<?xml version="1.0" standalone="no"?>
<!DOCTYPE svg PUBLIC "-//W3C//DTD SVG 1.1//EN" "http://www.w3.org/Graphics/SVG/1.1/DTD/svg11.dtd" >
<svg>
<metadata>
Created by FontForge 20120731 at Sat Jun 29 15:55:33 2019
 By www
Copyright (c) 2011, Nick Curtis. All Rights Reserved. Unauthorized duplication or redistribution is expressly prohibited.
</metadata>
<defs>
<font id="CoochieNandoNFW01-Regular" horiz-adv-x="1946" >
  <font-face 
    font-family="CoochieNandoNFW01-Regular"
    font-weight="400"
    font-stretch="normal"
    units-per-em="2048"
    panose-1="1 0 0 0 0 0 0 0 0 0"
    ascent="1638"
    descent="-410"
    x-height="1712"
    cap-height="1712"
    bbox="-33 -358 3068 1933"
    underline-thickness="102"
    underline-position="-256"
    unicode-range="U+000D-2122"
  />
<missing-glyph horiz-adv-x="1024" 
 />
    <glyph glyph-name=".notdef" horiz-adv-x="1024" 
 />
    <glyph glyph-name="glyph1" horiz-adv-x="0" 
 />
    <glyph glyph-name="glyph1" horiz-adv-x="0" 
 />
    <glyph glyph-name="uni000D" unicode="&#xd;" horiz-adv-x="512" 
 />
    <glyph glyph-name="space" unicode=" " horiz-adv-x="512" 
 />
    <glyph glyph-name="exclam" unicode="!" horiz-adv-x="872" 
d="M487 172q0 43 -21 77q-22 33 -55 56q-34 23 -74 35q-41 12 -79 12t-78 -11q-41 -12 -74 -35q-34 -23 -55 -56q-22 -34 -22 -78q0 -43 22 -76q21 -34 55 -56q33 -23 74 -34q40 -12 78 -12t79 12q40 12 74 35q33 22 55 56zM481 451v874h-446v-874h446zM872 526
q0 -35 -13 -67q-14 -33 -40 -58l-356 -354q-42 -40 -95 -62t-110 -22q-45 0 -90 14q-46 14 -83 41q-38 27 -61 66q-24 39 -24 88q0 40 18 75q17 34 44 64q26 30 56 57q30 26 56 52h-170v926l365 364h499v-926l-94 -92q43 -29 71 -70z" />
    <glyph glyph-name="quotedbl" unicode="&#x22;" horiz-adv-x="1313" 
d="M481 1325h-297l-145 -543h297zM918 1325h-297l-146 -543h297zM1313 1710l-160 -590l-365 -366h-352l31 112l-113 -112h-354l160 594l362 362h355l-31 -111l112 111h355z" />
    <glyph glyph-name="numbersign" unicode="#" horiz-adv-x="1356" 
d="M969 322v268h-152l19 151h133v269h-103l37 315h-262l-37 -315h-139l35 315h-262l-35 -315h-174v-269h141l-16 -151h-125v-268h94l-35 -293h262l35 293h139l-35 -293h263l34 293h183zM1356 657l-211 -211l-12 -88l-361 -358h-315l12 98l-98 -98h-316l35 291h-90v319
l100 101h-100v319l197 197l14 121l364 362h314l-10 -98l104 98h309l-37 -315h101v-320l-101 -100h101v-318zM573 741l-18 -151h-139l18 151h139z" />
    <glyph glyph-name="dollar" unicode="$" horiz-adv-x="1423" 
d="M1030 494q0 74 -23 130t-60 98q-38 41 -86 71q-49 30 -99 52t-98 39q-49 17 -86 33q-38 15 -61 32q-23 16 -23 38q0 16 9 28t23 20q13 8 29 12q15 4 29 4q80 0 156 -30q75 -30 137 -81l151 190q-71 67 -157 106q-86 38 -179 58v160h-280v-158q-65 -17 -124 -50
q-60 -34 -106 -81q-47 -48 -74 -109q-28 -61 -28 -132q0 -74 22 -128t58 -94t82 -68q45 -28 93 -48t94 -35q45 -16 81 -30q36 -15 58 -32t22 -40q0 -17 -8 -28q-8 -12 -20 -19t-27 -10t-29 -3q-88 0 -170 33q-83 32 -148 92l-151 -192q71 -90 168 -141t207 -72v-193h280v201
q66 18 127 51t108 81q47 47 75 109zM1423 1491q-26 -35 -53 -73q-28 -39 -58 -77t-62 -73q-32 -36 -66 -64q50 -28 93 -66t75 -84q31 -46 49 -99t18 -111q0 -71 -27 -137q-28 -66 -79 -115l-236 -236v-106l-364 -365h-330v199q-115 25 -213 85q-99 60 -170 153l233 280
q-88 56 -135 136t-47 186q0 79 33 146t83 126t108 112q58 52 108 103v66l365 364h329v-168q99 -21 186 -67z" />
    <glyph glyph-name="percent" unicode="%" horiz-adv-x="2241" 
d="M805 938q0 80 -30 151q-31 70 -83 123q-53 52 -123 83q-71 30 -151 30t-150 -31q-71 -31 -124 -83q-53 -53 -84 -123q-31 -71 -31 -150q0 -80 31 -150q31 -71 84 -124t124 -84q70 -31 150 -31q79 0 150 31q70 31 123 84q52 53 83 124zM1542 1325h-385l-817 -1296h385z
M1853 414q0 80 -30 151q-31 70 -83 123q-53 53 -123 84q-71 31 -151 31t-150 -31q-71 -31 -123 -84q-53 -53 -83 -123q-31 -71 -31 -151q0 -79 31 -149q30 -70 83 -122q52 -53 123 -83q70 -31 150 -31t151 31q70 30 123 83q52 52 83 122zM2241 772q0 -38 -7 -76
q-7 -39 -21 -76t-34 -70q-21 -34 -47 -61l-356 -356q-60 -60 -141 -97q-81 -38 -169 -38q-72 0 -138 24q-66 23 -120 66t-92 102q-39 58 -55 129l-320 -319h-454q99 149 193 301q94 151 190 303q-54 -40 -119 -62t-133 -22q-86 0 -162 33t-133 90t-90 133t-33 162
q0 93 36 169q36 75 101 140l340 338q60 59 136 92t161 33q72 0 139 -23q66 -24 120 -66q53 -43 92 -101q38 -59 55 -129l319 319h453l-385 -610q55 42 121 65t135 23q86 0 162 -33t133 -89q57 -57 90 -132zM551 938q0 -27 -11 -51t-29 -42q-18 -19 -42 -29q-24 -11 -51 -11
t-51 11q-24 10 -42 29q-19 18 -29 42q-11 24 -11 51q0 26 11 50q10 24 28 42q17 18 41 29q23 10 49 10q28 0 53 -10t44 -27q18 -18 29 -42zM1599 414q0 -27 -10 -51q-11 -24 -29 -41q-19 -18 -43 -28q-24 -11 -51 -11t-51 11q-24 10 -42 28q-18 17 -29 41t-11 51t11 52
q11 24 29 42t42 29q24 10 51 10t51 -11t43 -29q18 -18 29 -42z" />
    <glyph glyph-name="ampersand" unicode="&#x26;" horiz-adv-x="1849" 
d="M1464 416q-146 5 -267 73q-122 68 -200 193q40 24 75 53q34 29 59 65t39 78t14 91q0 65 -23 120t-62 99q-40 44 -92 77q-53 33 -111 55q-59 22 -120 33t-117 11t-116 -11q-61 -11 -119 -33q-58 -23 -110 -56q-53 -33 -92 -77q-40 -44 -63 -98q-24 -55 -24 -120
q0 -76 33 -138t84 -114q-44 -26 -84 -59q-41 -33 -71 -73q-31 -40 -49 -87q-19 -48 -19 -103q0 -74 31 -132q30 -59 81 -104q50 -45 116 -76q65 -31 135 -51t140 -29t130 -9q105 0 209 18t198 68q66 -43 144 -64q77 -22 155 -22q25 0 49 1q23 2 47 7v414zM1849 338
l-368 -363q-56 -12 -113 -12q-78 0 -154 21q-77 21 -145 61q-94 -47 -199 -65q-105 -17 -208 -17q-64 0 -138 10t-147 32q-74 21 -142 55t-120 82t-83 111q-32 63 -32 142q0 57 19 107q18 49 48 91q29 41 66 73t74 53q-21 24 -39 54q-19 30 -33 63q-14 32 -22 66
q-9 34 -9 67q0 39 10 76q10 36 28 70q17 34 41 65q23 31 50 59l336 338q44 44 96 77q52 32 110 54q57 22 118 33q61 10 123 10q64 0 130 -12q65 -13 127 -37q61 -25 116 -61q54 -37 95 -86q40 -49 64 -109q23 -61 23 -133q0 -49 -15 -89t-39 -75t-54 -66q-31 -32 -62 -63
q37 -55 88 -96q50 -41 109 -68q58 -28 122 -41q64 -14 129 -14v-463zM692 393q0 -23 -13 -40t-32 -28q-20 -11 -42 -16q-23 -6 -42 -6q-20 0 -42 6q-23 5 -42 16q-20 11 -32 28q-13 17 -13 40q0 24 14 41q13 17 33 28q19 11 42 16t42 5q60 -46 127 -73v-17zM807 1010
q0 -20 -7 -36q-8 -16 -19 -29q-12 -14 -26 -25q-15 -12 -30 -21q-18 5 -42 16q-24 10 -46 25t-37 34q-16 19 -16 42q0 22 11 38q10 15 27 25q16 10 36 15q20 4 38 4q20 0 40 -5q20 -6 36 -17q15 -11 25 -27z" />
    <glyph glyph-name="quotesingle" unicode="'" horiz-adv-x="877" 
d="M481 1325h-297l-145 -543h297zM877 1710l-158 -590l-365 -366h-354l160 589l362 367h355z" />
    <glyph glyph-name="parenleft" unicode="(" horiz-adv-x="997" 
d="M229 1364q-103 -152 -151 -328q-49 -177 -49 -360q0 -90 12 -180t37 -176q24 -87 61 -169t88 -157h351q-54 73 -94 155q-41 81 -68 168t-40 178q-14 90 -14 181t14 183q13 92 41 180q27 87 68 170q41 82 97 155h-353zM997 1751q-125 -159 -186 -338t-61 -381
q0 -198 57 -371t178 -329l-371 -369h-403q-54 75 -93 161q-40 86 -66 179q-26 92 -39 187q-13 94 -13 186q0 195 53 381q9 28 27 76t40 98q22 49 46 93q23 44 43 65l362 362h426z" />
    <glyph glyph-name="parenright" unicode=")" horiz-adv-x="993" 
d="M608 676q0 183 -48 360q-48 176 -150 328h-353q55 -74 96 -156q41 -83 68 -170q27 -88 40 -179q13 -92 13 -183t-13 -181q-13 -91 -39 -178q-27 -87 -67 -168q-40 -82 -94 -155h351q51 75 88 157t61 169q24 86 36 176zM993 1032q0 -46 -6 -107t-18 -129t-29 -138
q-18 -70 -41 -133q-23 -64 -51 -117q-29 -53 -62 -86l-360 -359h-426q125 159 186 335q60 176 60 378q0 193 -59 373t-181 331l371 371h403q110 -164 162 -343z" />
    <glyph glyph-name="asterisk" unicode="*" horiz-adv-x="1108" 
d="M1108 1489q0 -30 -12 -54q-13 -25 -32 -46q-19 -22 -41 -41q-23 -19 -42 -37q22 -7 45 -18q22 -12 41 -28q18 -16 30 -36q11 -21 11 -47q0 -23 -7 -44t-24 -38l-346 -346q-37 -39 -88 -39q-15 0 -29 2t-28 8q-17 -18 -40 -46q-24 -29 -52 -56q-28 -28 -58 -48t-59 -20
q-27 0 -48 13q-22 12 -36 32q-15 19 -23 44q-8 24 -8 48q0 35 10 69t19 66l-38 -38q-20 -21 -41 -38q-22 -18 -46 -29q-25 -11 -53 -11q-23 0 -43 8t-36 22t-25 33t-9 41q0 31 14 56q13 25 33 47q19 21 42 41q22 19 40 38q-25 9 -48 21q-23 11 -41 28q-18 16 -29 38t-11 51
q0 20 9 38q8 18 22 33l352 353q17 17 38 27q21 9 46 9q14 0 29 -3q14 -3 26 -9q15 15 40 44q24 28 53 56t60 49q30 21 58 21q27 0 49 -14q21 -14 36 -35q14 -21 22 -46q8 -26 8 -50q0 -32 -10 -64q-11 -32 -19 -63l38 38q20 20 42 37q21 16 46 27q25 10 54 10q47 0 78 -29z
M723 817q0 39 -26 63t-62 40q-37 15 -76 24q-40 9 -67 17v28q27 8 66 17t76 25q37 15 63 39t26 63q0 35 -24 54t-56 19t-58 -15q-27 -15 -50 -37q-24 -22 -46 -45q-23 -24 -45 -42l-22 12q4 23 11 46q6 22 13 44q6 21 11 43q4 22 4 45q0 19 -5 38q-6 19 -16 35
q-11 15 -26 25q-16 9 -37 9t-37 -9q-16 -10 -27 -25q-11 -16 -16 -35q-6 -19 -6 -38q0 -23 5 -45t12 -43q6 -22 13 -44t11 -44l-25 -14q-18 17 -40 41q-23 24 -49 47q-26 22 -53 38q-27 15 -54 15q-15 0 -30 -5q-15 -6 -26 -15q-12 -10 -19 -23q-7 -14 -7 -30q0 -39 27 -63
q27 -25 65 -41q37 -16 78 -25q40 -9 67 -17l-2 -28q-29 -11 -69 -20t-77 -23t-63 -38t-26 -65q0 -16 8 -29q7 -14 19 -24t27 -15q15 -6 30 -6q26 0 54 16q27 16 53 39q26 22 49 47q22 24 38 40l25 -15q-6 -19 -13 -41t-13 -45t-10 -46q-5 -23 -5 -44q0 -18 6 -37
q5 -19 16 -34q11 -16 27 -25q16 -10 37 -10q20 0 36 10q15 9 26 25q11 15 17 34q5 19 5 37q0 19 -4 43q-5 23 -11 47q-7 24 -14 47t-12 41l24 15q19 -18 42 -42q22 -24 48 -46q25 -23 53 -38q27 -16 56 -16q32 0 56 21z" />
    <glyph glyph-name="plus" unicode="+" horiz-adv-x="1126" 
d="M739 526v254h-227v228h-254v-228h-229v-254h229v-229h254v229h227zM1126 862l-594 -594h-303v228h-229v305l594 594h303v-230h229v-303z" />
    <glyph glyph-name="comma" unicode="," horiz-adv-x="872" 
d="M487 160q0 45 -20 81t-52 61q-33 24 -74 37t-83 13q-38 0 -78 -12q-41 -12 -74 -35q-34 -23 -55 -56q-22 -34 -22 -77q0 -46 24 -76t61 -47q36 -17 79 -24q42 -7 79 -7v-127q40 18 79 45q38 27 69 61q30 35 49 76zM872 506q0 -27 -8 -54t-21 -52t-30 -48t-35 -41
l-354 -352q-38 -38 -84 -65q-47 -27 -96 -46v140q-42 1 -85 13q-43 11 -78 34q-36 22 -58 56q-23 34 -23 81q0 38 17 73q16 34 42 62l353 352q40 41 94 61q53 19 108 19q52 0 99 -16q46 -16 82 -46q35 -30 56 -73z" />
    <glyph glyph-name="hyphen" unicode="-" horiz-adv-x="930" 
d="M545 504v344h-516v-344h516zM930 840l-365 -365h-565v393l365 365h565v-393z" />
    <glyph glyph-name="period" unicode="." horiz-adv-x="872" 
d="M487 172q0 44 -21 78q-22 33 -55 56q-34 23 -74 35q-41 11 -79 11t-78 -11q-41 -12 -74 -35q-34 -23 -55 -56q-22 -34 -22 -78q0 -43 22 -76q21 -34 55 -56q33 -23 74 -34q40 -12 78 -12t79 12q40 12 74 35q33 22 55 56zM872 528q0 -35 -13 -68q-13 -34 -38 -59
l-356 -354q-42 -42 -96 -63t-111 -21q-45 0 -90 14q-46 14 -83 41q-38 27 -61 66q-24 39 -24 88q0 38 17 73q16 34 42 62l357 357q38 38 92 57q54 18 106 18q45 0 91 -14t83 -41t61 -66z" />
    <glyph glyph-name="slash" unicode="/" horiz-adv-x="1665" 
d="M1255 1325h-385l-817 -1296h385zM1665 1710l-854 -1345l-356 -365h-455l854 1354l358 356h453z" />
    <glyph glyph-name="zero" unicode="0" horiz-adv-x="1561" 
d="M1174 678q0 81 -17 163q-18 82 -52 159q-34 76 -83 143q-50 66 -113 115q-64 49 -141 78q-77 28 -166 28q-88 0 -164 -28q-77 -29 -141 -79t-113 -116q-50 -67 -84 -143q-35 -77 -53 -158q-18 -82 -18 -162q0 -81 18 -163q17 -82 51 -158t84 -142q49 -67 113 -116
q63 -49 140 -77t167 -28q88 0 165 29q77 28 141 78q63 49 113 115q49 66 83 142t52 158zM1561 1034q0 -153 -46 -288q-46 -136 -155 -244l-354 -352q-41 -40 -87 -74q-46 -35 -97 -60t-106 -39q-56 -14 -114 -14q-94 0 -175 29q-81 30 -148 81t-119 120t-87 149
q-36 79 -54 165q-19 86 -19 171q0 106 25 197q25 90 69 171q43 80 101 152t125 141q66 68 137 134q70 66 139 135q77 75 166 109q88 34 196 34q94 0 176 -29q81 -29 148 -80t119 -120q52 -70 88 -149q35 -80 54 -166zM762 678q0 -35 -9 -73q-10 -38 -30 -70t-50 -53t-71 -21
t-71 21t-50 53q-21 32 -31 70t-10 73q0 34 10 73q10 38 31 70q20 32 50 53t71 21q40 0 70 -21t50 -53t30 -70z" />
    <glyph glyph-name="one" unicode="1" horiz-adv-x="870" 
d="M483 29v1296h-178q-3 -55 -25 -104q-23 -50 -60 -87q-37 -38 -86 -61t-105 -26v-1018h454zM870 362l-366 -362h-504v1067l641 643h229v-1348z" />
    <glyph glyph-name="two" unicode="2" horiz-adv-x="1532" 
d="M1147 29v411h-350q48 52 105 110q57 57 107 121q50 63 84 134q33 70 33 149q0 105 -44 183q-45 77 -117 128q-72 50 -163 75q-91 24 -184 24q-72 0 -154 -15t-160 -44q-79 -29 -148 -72q-70 -43 -117 -100l184 -230q25 19 62 43q37 23 78 44q41 20 81 34t72 14
q19 0 37 -4q18 -5 32 -14q13 -10 21 -26t8 -38q0 -18 -9 -36q-9 -19 -22 -37q-14 -18 -28 -34q-15 -16 -27 -28l-444 -450v-342h1063zM1532 362l-365 -362h-1112v383q9 9 37 36q27 26 66 64t86 84t95 94q47 48 92 95q44 47 79 87q34 40 55 70t21 43q0 16 -6 27q-6 10 -16 16
t-22 9q-13 2 -26 2q-31 0 -72 -15q-42 -16 -84 -39t-80 -49t-61 -47l-219 273q42 53 94 107q52 53 107 106t111 105q55 52 104 101q48 48 117 85q68 37 144 63q76 25 154 38q77 13 142 13q103 0 200 -27q97 -28 173 -84q75 -57 121 -141q46 -85 46 -199q0 -76 -27 -140
q-28 -64 -71 -121t-94 -109t-98 -103h309v-465z" />
    <glyph glyph-name="three" unicode="3" horiz-adv-x="1544" 
d="M1159 389q0 52 -16 96t-43 82q-27 37 -63 69q-36 31 -76 58q38 25 73 55t62 66q26 36 42 78q15 42 15 92q0 65 -25 118q-25 52 -67 93q-43 41 -98 71t-114 49q-60 19 -121 29q-61 9 -114 9q-76 0 -154 -15q-78 -16 -151 -46q-74 -30 -139 -74q-66 -45 -117 -103l176 -215
q32 27 69 51t77 43q40 18 82 29q42 10 84 10q27 0 51 -5t42 -17t29 -32t11 -50q0 -44 -25 -69q-25 -26 -62 -39q-37 -14 -79 -17q-43 -4 -78 -4h-33v-228h90q27 0 60 -9q32 -9 61 -26q28 -18 47 -43t19 -57t-13 -53q-14 -22 -35 -34q-21 -13 -48 -18t-54 -5q-42 0 -83 10
t-79 27q-39 17 -75 41q-36 23 -68 49l-180 -238q53 -50 120 -91q66 -41 140 -70q73 -30 150 -46q76 -16 149 -16q56 0 120 11q63 11 126 33q62 21 119 54q57 32 101 76q43 44 69 99zM1544 745q0 -65 -27 -130q-27 -66 -73 -111l-359 -357q-47 -46 -103 -80q-57 -35 -120 -58
t-130 -35q-67 -11 -134 -11q-45 0 -99 8q-54 9 -111 25t-114 39q-57 22 -108 50q-52 27 -95 60q-43 32 -71 68q38 57 81 116q42 58 88 115q46 56 96 108q49 52 102 97v172l184 185h-10q-44 0 -86 -12q-43 -13 -82 -33q-40 -21 -77 -47t-69 -54l-211 256q25 31 54 60
q68 69 132 138q63 68 128 131q64 62 132 116t146 94q77 39 167 62q89 22 196 22q58 0 123 -10q64 -10 127 -31t121 -53q57 -33 101 -77q43 -44 69 -100q26 -57 26 -127q0 -50 -13 -90t-35 -74q-23 -35 -52 -66q-30 -32 -64 -64q36 -28 67 -61t54 -71t36 -80z" />
    <glyph glyph-name="four" unicode="4" horiz-adv-x="1634" 
d="M1235 238v397h-209v690h-459l-538 -680v-407h546v-209h451v209h209zM1634 590l-587 -590h-502v207h-545v446l545 701l364 356h504v-688h221v-432zM575 635h-217l217 274v-274z" />
    <glyph glyph-name="five" unicode="5" horiz-adv-x="1567" 
d="M1180 469q0 102 -38 182t-103 135t-151 84t-183 29q-57 0 -113 -9q-57 -9 -113 -22l17 183h581v274h-866l-74 -651l174 -144q22 15 49 27t56 20q28 7 57 11t55 4q30 0 61 -5q30 -6 55 -20t41 -37q15 -24 15 -61q0 -31 -17 -56q-18 -25 -44 -43t-57 -28t-58 -10
q-38 0 -78 10q-41 10 -81 27t-76 39q-37 22 -66 45l-184 -224q60 -56 132 -99q72 -44 151 -74q78 -30 161 -46t164 -16q106 0 203 32q96 32 170 93q73 61 117 150zM1567 811q0 -93 -33 -177t-98 -149q-173 -174 -344 -344q-44 -43 -96 -76t-109 -55q-57 -23 -118 -35
t-122 -12q-87 0 -176 17q-89 18 -173 52q-85 33 -161 82t-137 111l211 258q11 14 24 26t25 23l-156 130l78 679l365 369h915v-326l-151 -151q61 -29 109 -74q47 -45 80 -100q33 -56 50 -119z" />
    <glyph glyph-name="six" unicode="6" horiz-adv-x="1636" 
d="M1253 446q0 105 -46 188q-46 82 -121 139t-169 87q-94 29 -190 29q-45 0 -88 -5t-86 -16v19q0 45 26 78q25 32 63 53q37 21 81 31q43 10 80 10q63 0 128 -17t122 -43l147 232q-119 66 -240 100q-122 33 -260 33q-96 0 -183 -24q-88 -25 -162 -69q-75 -45 -135 -107
q-60 -63 -102 -139q-43 -76 -66 -164t-23 -183q0 -87 21 -171q20 -85 59 -161t94 -140q55 -65 125 -112q69 -47 151 -73q82 -27 174 -27q64 0 134 13q69 13 136 39q66 26 126 64t106 88q45 50 72 112zM1636 807q0 -82 -29 -156q-30 -74 -87 -131q-87 -88 -173 -173
q-87 -86 -173 -173q-52 -51 -112 -90q-61 -39 -128 -66t-138 -41t-143 -14q-96 0 -182 27q-86 28 -158 77q-73 49 -131 117q-58 67 -98 147q-41 79 -62 168q-22 88 -22 179q0 150 58 287q57 137 163 243l352 353q50 50 109 86q58 36 122 59q63 23 131 34q67 11 136 11
q146 0 275 -41q128 -42 253 -115l-176 -270q-6 -8 -18 -21l-27 -27q-15 -14 -28 -27q-14 -13 -23 -21q67 -28 124 -69q56 -42 97 -95q41 -54 65 -118zM768 467q0 -21 -10 -36q-10 -16 -26 -26q-16 -11 -35 -16q-19 -6 -38 -6q-18 0 -36 6q-19 5 -34 16q-16 10 -26 26
q-10 15 -10 36t10 38q10 16 26 27q15 10 35 16q19 5 38 5q18 0 37 -5q19 -6 35 -17q15 -11 25 -27z" />
    <glyph glyph-name="seven" unicode="7" horiz-adv-x="1419" 
d="M1034 930v395h-995v-389h498l-488 -907h502zM1419 1282l-327 -616q-24 -45 -42 -83l-37 -74t-38 -72q-20 -37 -47 -79q-2 -4 -27 -30l-63 -63q-38 -37 -82 -80t-83 -81q-39 -39 -68 -67q-30 -29 -38 -37h-567l487 905h-477v441l365 364h1044v-428z" />
    <glyph glyph-name="eight" unicode="8" horiz-adv-x="1694" 
d="M1309 403q0 52 -18 97t-48 83t-69 70t-80 58q31 25 59 54q27 28 48 61q20 32 32 70q12 37 12 79q0 44 -13 84q-14 39 -36 74q-23 34 -54 63t-65 53q-43 30 -92 52q-50 21 -102 36q-53 14 -107 21q-54 6 -106 6q-76 0 -157 -14q-82 -15 -156 -47q-75 -32 -136 -83
t-96 -124q-16 -28 -24 -58q-9 -31 -9 -63q0 -47 12 -83q12 -37 33 -67q21 -31 49 -58q27 -28 58 -58q-42 -26 -80 -57q-39 -32 -69 -70t-48 -82q-18 -45 -18 -97q0 -47 15 -88q15 -42 41 -78q25 -36 59 -67q33 -31 71 -55q48 -32 104 -54q55 -23 114 -38q58 -15 118 -22
t119 -7q78 0 156 13q77 12 151 40q57 21 116 53t107 77q48 44 79 101zM1694 764q0 -69 -28 -132q-29 -64 -77 -112l-350 -348q-54 -54 -122 -93q-68 -40 -142 -65q-74 -26 -152 -39q-78 -12 -153 -12q-60 0 -122 7q-62 8 -123 23q-61 16 -119 40t-109 57q-40 26 -76 59
t-63 73q-27 39 -42 85q-16 45 -16 96q0 49 16 95q15 45 42 85q27 39 63 73q35 33 74 59q-57 49 -94 116q-38 66 -38 144q0 37 10 72q10 34 27 66q16 32 39 61q22 29 47 55l351 350q44 45 103 78q58 32 124 53q65 21 133 31q67 10 129 10q61 0 129 -11t135 -33
q67 -23 129 -57q61 -34 108 -80q47 -47 75 -106q28 -60 28 -133q0 -42 -10 -78t-27 -67q-17 -32 -41 -60q-25 -29 -53 -57q39 -26 75 -58q35 -33 62 -71q27 -39 43 -83zM786 430q0 -21 -12 -36q-12 -16 -29 -25q-18 -10 -38 -14q-20 -5 -37 -5q-18 0 -38 5q-21 4 -39 14
q-18 9 -30 25q-12 15 -12 36t12 36q12 14 30 24q18 9 39 14q20 4 38 4q17 0 37 -4q20 -5 38 -14q17 -10 29 -24zM782 967q0 -20 -11 -34q-12 -14 -29 -23t-36 -13q-20 -4 -36 -4q-17 0 -37 4t-37 13q-18 9 -29 23q-12 14 -12 34q0 21 12 35q11 14 29 23q17 8 37 12
q20 3 37 3q16 0 36 -4q19 -4 36 -12q17 -9 29 -23z" />
    <glyph glyph-name="nine" unicode="9" horiz-adv-x="1675" 
d="M1290 684q0 142 -44 266t-126 216t-199 145q-118 53 -266 53q-82 0 -165 -18q-84 -18 -159 -55q-75 -38 -135 -95q-60 -58 -96 -137q-17 -35 -25 -72q-9 -37 -9 -78q0 -105 46 -187t121 -139t169 -86q94 -30 190 -30q45 0 88 5q43 4 86 15v-18q0 -43 -26 -73t-64 -49
q-39 -19 -82 -27q-44 -9 -78 -9q-81 0 -159 34q-79 34 -142 87l-176 -207q56 -58 123 -101q67 -44 142 -72q74 -29 154 -43q79 -15 160 -15q151 0 275 53q123 52 212 145q88 92 137 219zM1675 1040q0 -68 -12 -140q-13 -72 -37 -140q-25 -68 -62 -130t-85 -110l-357 -356
q-102 -100 -231 -150q-129 -51 -273 -51q-87 0 -172 16q-86 17 -165 50t-150 82q-72 49 -131 114l260 301q-50 31 -91 73q-41 41 -70 91q-30 49 -46 105q-16 55 -16 114q0 90 39 169q38 79 100 141l346 346q46 46 102 81t118 58t127 35t130 12q155 0 280 -54
q125 -55 213 -150t136 -225zM768 889q0 -21 -10 -37q-11 -16 -26 -27q-16 -11 -35 -16q-20 -6 -38 -6t-37 6q-20 5 -35 16q-16 11 -26 27t-10 37t10 37q10 15 26 26q15 10 35 16q19 5 37 5t38 -5q19 -6 35 -16q15 -11 26 -26z" />
    <glyph glyph-name="colon" unicode=":" horiz-adv-x="872" 
d="M487 172q0 44 -21 78q-22 33 -55 56q-34 23 -74 35q-41 11 -79 11t-78 -11q-41 -12 -74 -35q-34 -23 -55 -56q-22 -34 -22 -78q0 -43 22 -76q21 -34 55 -56q33 -23 74 -34q40 -12 78 -12t79 12q40 12 74 35q33 22 55 56zM487 668q0 43 -21 77q-22 34 -55 58
q-34 23 -74 35q-41 12 -79 12t-78 -12q-41 -12 -74 -35q-34 -24 -55 -58q-22 -34 -22 -77t22 -76q21 -34 55 -57q33 -24 74 -36q40 -12 78 -12t79 12q40 12 74 36q33 23 55 57zM872 528q0 -35 -13 -68q-13 -34 -38 -59l-356 -354q-42 -42 -96 -63t-111 -21q-45 0 -90 14
q-46 14 -83 41q-38 27 -61 66q-24 39 -24 88q0 38 16 74q16 35 43 61l156 154q-40 6 -78 23q-39 16 -69 43q-31 26 -49 62q-19 35 -19 79q0 38 17 74q16 35 42 61l357 356q38 38 92 57t106 19q45 0 91 -14q46 -15 83 -42t61 -66q23 -39 23 -89q0 -35 -13 -68
q-13 -34 -38 -59l-162 -162q40 -6 79 -22q38 -17 68 -43q30 -27 48 -62z" />
    <glyph glyph-name="semicolon" unicode=";" horiz-adv-x="872" 
d="M487 160q0 46 -20 82t-52 61q-33 24 -74 37q-41 12 -83 12q-38 0 -78 -12q-41 -12 -74 -35q-34 -23 -55 -56q-22 -34 -22 -77q0 -46 24 -76t61 -47q36 -17 79 -24q42 -7 79 -7v-127q40 18 79 45q38 27 69 61q30 35 49 76zM487 668q0 43 -21 77q-22 34 -55 58
q-34 23 -74 35q-41 12 -79 12t-78 -12q-41 -12 -74 -35q-34 -24 -55 -58q-22 -34 -22 -77t22 -76q21 -34 55 -57q33 -24 74 -36q40 -12 78 -12t79 12q40 12 74 36q33 23 55 57zM872 1024q0 -35 -13 -68q-13 -34 -38 -59l-162 -162q45 -6 84 -24q39 -19 68 -48q28 -30 45 -69
q16 -40 16 -88q0 -27 -8 -54t-21 -52t-30 -48t-35 -41l-354 -352q-38 -38 -83 -65q-46 -27 -97 -46v140q-42 1 -85 13q-43 11 -78 33q-36 22 -58 56q-23 34 -23 82q0 38 16 74q16 35 43 61l156 154q-40 6 -78 23q-39 16 -69 43q-31 26 -49 62q-19 35 -19 79q0 38 17 74
q16 35 42 61l357 356q38 38 92 57t106 19q45 0 91 -14q46 -15 83 -42t61 -66z" />
    <glyph glyph-name="less" unicode="&#x3c;" horiz-adv-x="1221" 
d="M834 182v277l-447 194l447 195v276l-805 -352v-240zM1221 510l-369 -369l-852 373v274l365 363l856 375v-338l-248 -248l248 -106v-324z" />
    <glyph glyph-name="equal" unicode="=" horiz-adv-x="1126" 
d="M739 336v254h-710v-254h710zM739 717v252h-710v-252h710zM1126 672l-364 -365h-762v303l76 76h-76v305l365 365h761v-303l-75 -78h75v-303z" />
    <glyph glyph-name="greater" unicode="&#x3e;" horiz-adv-x="1221" 
d="M836 532v240l-807 352v-276l448 -195l-448 -194v-277zM1221 874l-365 -364l-856 -375v338l248 248l-248 108v324l367 367l10 -2l844 -369v-275z" />
    <glyph glyph-name="question" unicode="?" horiz-adv-x="1518" 
d="M813 172q0 44 -21 78q-22 33 -55 56q-34 23 -74 35q-41 11 -79 11q-39 0 -79 -11q-41 -12 -74 -35q-34 -23 -55 -56q-22 -34 -22 -78q0 -43 22 -76q21 -34 55 -56q33 -23 74 -34q40 -12 79 -12q38 0 79 12q40 11 74 34q33 22 55 56zM1130 969q0 69 -24 125
q-25 56 -67 100t-97 76t-116 53t-124 31q-64 10 -122 10q-70 0 -144 -16q-75 -16 -146 -45t-135 -69q-65 -41 -116 -91l192 -232q23 22 55 46q31 23 66 42q34 19 71 31q36 12 69 12q29 0 59 -6q29 -6 53 -20q23 -15 38 -38q15 -24 15 -58q0 -39 -22 -67t-54 -46
q-33 -19 -71 -28t-70 -9h-82v-319h449v170q76 10 136 36q60 25 102 68q41 43 63 104zM1518 1325q0 -78 -24 -147q-24 -70 -81 -127l-219 -220v-47l-94 -92q42 -28 70 -70q28 -43 28 -94q0 -40 -16 -74q-17 -35 -45 -63l-349 -344q-42 -40 -93 -62q-52 -22 -111 -22
q-45 0 -90 14q-46 14 -83 41q-38 27 -61 66q-24 39 -24 88q0 37 17 73q16 36 42 62l115 113h-170v381l209 209q-13 2 -24 3t-23 1q-34 0 -70 -14q-37 -15 -72 -37t-66 -48q-32 -26 -55 -49l-229 279l391 391q48 48 113 88q65 39 138 68q72 28 148 44q76 15 146 15
q63 0 131 -11q67 -11 132 -34t123 -58q57 -35 101 -82q44 -48 70 -108z" />
    <glyph glyph-name="at" unicode="@" horiz-adv-x="1556" 
d="M1556 1100q0 -109 -34 -208t-111 -177l-176 -178q-16 -14 -30 -29t-31 -29q32 10 63 23q30 13 59 28l80 -131l-89 -89q-44 -45 -89 -89q-3 -2 -13 -8l-21 -14q-12 -8 -22 -14q-11 -7 -16 -9q-108 -63 -227 -99t-246 -36q-97 0 -183 26t-158 73q-73 46 -130 111
q-58 64 -98 142q-41 77 -62 165q-22 88 -22 181q0 153 60 289q60 135 169 242q63 62 116 116t103 99q50 44 101 80q51 35 111 59t132 37q72 12 164 12q127 0 237 -40q110 -41 191 -116q80 -75 126 -181zM1350 932q0 121 -45 220q-45 98 -123 168q-78 69 -182 107
q-104 37 -222 37q-99 0 -193 -25q-94 -26 -177 -72q-84 -47 -153 -113q-70 -66 -120 -146q-50 -81 -78 -174q-28 -94 -28 -195q0 -134 46 -254q45 -121 128 -213q82 -92 197 -146q114 -54 253 -54q134 0 264 41t242 116l-51 84q-74 -37 -154 -56t-163 -19q-73 0 -144 19
q-72 18 -137 52t-121 82t-97 107t-64 129q-23 69 -23 145q0 105 37 198t102 164q65 70 155 111t197 41q97 0 184 -30t153 -86q65 -57 103 -138t38 -182q0 -25 -6 -58q-7 -34 -19 -69t-29 -69q-18 -35 -40 -62t-48 -43q-27 -17 -57 -17q-14 0 -19 12q-6 11 -6 23v12q0 7 2 13
l107 352l-84 53l-23 -20q-28 40 -66 67t-89 27q-56 0 -107 -20q-52 -21 -96 -55q-45 -35 -82 -81q-37 -47 -63 -99q-26 -53 -40 -107q-14 -55 -14 -107q0 -37 13 -71q13 -35 36 -62t56 -43q32 -16 71 -16q59 0 111 28q51 27 94 64q22 -44 56 -72q33 -29 86 -29q65 0 122 23
t105 63q48 39 86 91t65 111q26 59 40 122zM823 1243q-31 6 -63 10t-64 4q-57 0 -112 -14q-56 -14 -107 -43q-32 -60 -48 -121q-17 -62 -17 -131q0 -28 4 -56t10 -54q46 82 113 149l178 178q23 23 50 42zM842 860q0 -38 -15 -85q-15 -48 -42 -90t-64 -70q-37 -29 -82 -29
q-12 0 -22 8q-11 8 -18 20q-8 11 -12 24q-5 13 -5 24q0 23 7 54q6 30 19 63q12 32 30 64q17 31 39 56q21 25 46 40q24 15 51 15q18 0 31 -9q12 -9 21 -23q8 -14 12 -30z" />
    <glyph glyph-name="A" unicode="A" 
d="M1550 29l-469 1296h-569l-469 -1296h508l49 170h412l49 -170h489zM1946 365l-369 -365h-539l-49 168h-248l-172 -168h-569l489 1350l363 362h606zM924 508h-234l117 407z" />
    <glyph glyph-name="B" unicode="B" horiz-adv-x="1559" 
d="M1174 367q0 105 -55 183t-146 126q91 48 146 127q55 78 55 184q0 69 -27 131q-27 61 -73 107q-47 46 -108 73q-62 27 -132 27h-805v-1296h805q70 0 132 27q61 26 108 72q46 46 73 108zM1559 723q0 -68 -24 -135q-25 -67 -75 -117l-354 -350q-57 -56 -124 -88
q-67 -33 -148 -33h-834v1346l365 366h825q76 0 143 -29q67 -30 118 -81q50 -51 79 -118q29 -68 29 -143q0 -54 -12 -96t-33 -78q-21 -37 -51 -70q-30 -34 -66 -69q75 -53 119 -133zM709 401q0 -34 -25 -59t-59 -25h-160v168h160q34 0 59 -25zM709 911q0 -34 -25 -59t-59 -25
h-160v168h160q34 0 59 -25z" />
    <glyph glyph-name="C" unicode="C" horiz-adv-x="1696" 
d="M1696 674l-447 -475q-105 -112 -241 -174t-291 -62q-98 0 -189 25q-92 26 -171 73q-80 47 -146 113q-66 65 -112 144q-47 79 -73 171q-26 91 -26 189q0 158 63 289t173 241q62 62 122 127q59 65 120 125t126 113q64 53 137 93q72 39 154 62t178 23q98 0 188 -25
q89 -25 168 -71t145 -112t118 -148q-20 -20 -55 -57q-36 -37 -79 -81q-44 -45 -91 -92q-48 -47 -92 -87q-45 -41 -83 -70q-38 -30 -61 -39zM862 586q-23 -37 -61 -58q-39 -22 -84 -22q-36 0 -67 14q-32 13 -56 37q-24 23 -37 55q-14 31 -14 66q0 36 14 68q14 31 38 55t56 38
q31 13 66 13q45 0 84 -21q38 -22 61 -59l434 275q-47 73 -110 133q-64 59 -139 100t-159 64q-84 22 -171 22q-94 0 -181 -25q-88 -25 -164 -70q-77 -45 -140 -108t-108 -139q-45 -77 -70 -164q-25 -88 -25 -182t25 -181q25 -88 70 -164t108 -138q63 -63 140 -107
q76 -45 164 -69q87 -25 181 -25q87 0 171 22t159 63t139 100q63 58 110 132z" />
    <glyph glyph-name="D" unicode="D" horiz-adv-x="1536" 
d="M1153 676q0 89 -23 172q-24 82 -66 155q-43 72 -102 131q-60 59 -132 102q-73 42 -155 66q-83 23 -171 23h-473v-1296h473q88 0 171 24q82 23 155 65q72 42 132 102q59 59 102 131q42 72 66 154zM1536 1030q0 -130 -48 -253q-49 -123 -140 -216l-340 -342
q-103 -103 -229 -161q-127 -58 -275 -58h-504v1346l365 366h495q94 0 181 -24q86 -25 161 -69q75 -45 137 -107q61 -63 105 -138q44 -76 68 -163zM659 676q0 -32 -12 -61q-13 -29 -34 -50q-22 -22 -50 -34q-29 -13 -61 -13h-41v316h41q32 0 61 -12q28 -13 50 -34
q21 -22 34 -51z" />
    <glyph glyph-name="E" unicode="E" horiz-adv-x="1327" 
d="M1327 369l-364 -369h-963v1348l365 364h962v-457l-233 -233q-2 -45 -19 -83q-18 -39 -49 -71l-49 -49h350v-450zM940 29v403h-494v41h60q41 0 78 16t65 44q27 28 44 65q16 36 16 78q0 41 -16 78q-17 37 -44 65q-28 27 -65 44q-37 16 -78 16h-60v41h494v405h-911v-1296
h911z" />
    <glyph glyph-name="F" unicode="F" horiz-adv-x="1327" 
d="M940 920v405h-911v-1296h417v444h60q41 0 78 16t65 44q27 28 44 65q16 36 16 78q0 41 -16 78q-17 37 -44 65q-28 27 -65 44q-37 16 -78 16h-60v41h494zM1327 1253l-233 -231q-2 -43 -19 -83q-18 -40 -49 -71l-192 -192v-314l-365 -362h-469v1346l365 366h962v-459z" />
    <glyph glyph-name="G" unicode="G" horiz-adv-x="1774" 
d="M1386 41v606h-499q-6 -31 -21 -57q-16 -26 -39 -44q-23 -19 -51 -29q-28 -11 -59 -11q-36 0 -67 14q-32 13 -56 37q-24 23 -37 55q-14 31 -14 66q0 36 14 68q14 31 38 55t56 38q31 13 66 13q43 0 82 -21q38 -22 63 -59l443 262q-47 77 -111 139q-64 61 -140 104t-161 66
q-86 23 -176 23q-94 0 -181 -25q-88 -25 -164 -70q-77 -45 -140 -108t-108 -139q-45 -77 -70 -164q-25 -88 -25 -182t25 -181q25 -88 70 -164t108 -138q63 -63 140 -107q76 -45 164 -69q87 -25 181 -25q131 0 251 48q119 47 216 134zM1774 362l-371 -366l-217 143
q-97 -85 -218 -130q-121 -46 -251 -46q-98 0 -189 25q-92 26 -171 73q-80 47 -146 113q-66 65 -112 144q-47 79 -73 171q-26 91 -26 189q0 156 61 290t172 240q64 60 124 124t121 125q60 60 124 114q64 53 136 93t155 64q82 23 180 23q100 0 191 -26t171 -74t147 -116
t118 -153l-350 -350h424v-670z" />
    <glyph glyph-name="H" unicode="H" horiz-adv-x="1536" 
d="M1149 29v1296h-465v-469h-188v469h-465v-1296h465v477h188v-477h465zM1536 362l-365 -362h-516v135l-139 -135h-516v1346l365 366h516v-139l139 139h516v-1350z" />
    <glyph glyph-name="I" unicode="I" horiz-adv-x="881" 
d="M494 29v1296h-465v-1296h465zM881 362l-365 -362h-516v1348l365 364h516v-1350z" />
    <glyph glyph-name="J" unicode="J" horiz-adv-x="1540" 
d="M1153 1325h-428v-766q0 -25 -10 -47q-10 -23 -27 -40q-17 -18 -40 -28t-48 -10q-43 0 -68 17q-25 16 -37 42q-13 26 -16 59q-4 33 -4 66h-444v-65q0 -116 44 -218t121 -177q76 -76 178 -120t218 -44q115 0 217 44t179 120q76 76 121 178q44 102 44 217v772zM1540 909
q0 -121 -47 -228q-48 -107 -133 -194q-85 -88 -171 -174q-87 -87 -175 -174q-87 -83 -193 -129q-107 -47 -229 -47t-230 47q-108 46 -188 126q-81 80 -127 188q-47 107 -47 229v86l365 365h331v342l365 366h479v-803z" />
    <glyph glyph-name="K" unicode="K" horiz-adv-x="1655" 
d="M1266 29q-28 213 -131 397q-103 183 -267 324l330 575h-387l-315 -547v547h-465v-1296h465v491q108 -100 179 -222q70 -123 93 -269h498zM1288 0h-547q-6 46 -16 92q-11 45 -27 88l-182 -180h-516v1348l365 364h516v-272l270 272h455l-342 -600q24 -22 59 -67t75 -106
q39 -61 80 -133q41 -73 77 -149q35 -76 62 -152q26 -76 38 -143z" />
    <glyph glyph-name="L" unicode="L" horiz-adv-x="1227" 
d="M842 29v403h-396v893h-417v-1296h813zM1227 362l-365 -362h-862v1348l365 364h469v-893h393v-457z" />
    <glyph glyph-name="M" unicode="M" horiz-adv-x="2032" 
d="M1647 29v1296h-566l-243 -512l-244 512h-565v-1296h432v614l239 -614h277l237 614v-614h433zM2032 362l-365 -362h-481v190l-193 -190h-313l-55 139l-144 -139h-481v1346l365 366h604l145 -309l309 309h609v-1350z" />
    <glyph glyph-name="N" unicode="N" horiz-adv-x="1634" 
d="M1249 29v1296h-444v-489l-275 489h-499v-1296h444v481l268 -481h506zM1634 362l-364 -362h-543l-84 145l-147 -145h-496v1346l365 366h540l84 -151l150 151h495v-1350z" />
    <glyph glyph-name="O" unicode="O" horiz-adv-x="1790" 
d="M1403 678q0 94 -24 182q-25 87 -70 164q-45 76 -107 139q-63 63 -139 108q-77 45 -164 70q-88 25 -182 25t-181 -25q-88 -25 -164 -70q-77 -45 -140 -108t-108 -139q-45 -77 -70 -164q-25 -88 -25 -182t25 -181q25 -88 70 -164t108 -138q63 -63 140 -107q76 -45 164 -69
q87 -25 181 -25t182 25q87 24 164 69q76 45 139 108q62 62 107 138t70 163zM1790 1018q0 -136 -50 -256q-51 -121 -147 -217l-362 -367q-102 -103 -235 -159t-279 -56q-98 0 -189 25q-92 26 -171 73q-80 47 -146 113q-66 65 -112 144q-47 79 -73 171q-26 91 -26 189
q0 155 60 286q59 130 167 236l344 344q49 49 108 88q58 38 123 65q64 26 133 40q68 14 138 14q100 0 193 -27q92 -27 172 -75q79 -49 144 -116q65 -68 112 -149q46 -82 71 -174zM889 678q0 -35 -13 -66q-14 -32 -37 -55q-24 -24 -55 -37q-32 -14 -67 -14q-36 0 -67 14
q-32 13 -56 37q-24 23 -37 55q-14 31 -14 66q0 36 14 68q14 31 38 55t56 38q31 13 66 13t67 -13q31 -14 55 -38q23 -24 37 -55z" />
    <glyph glyph-name="P" unicode="P" horiz-adv-x="1536" 
d="M1149 905q0 86 -33 163q-34 76 -91 133t-133 91q-77 33 -163 33h-698v-1296h471v456h227q86 0 163 34q76 33 133 90t91 134zM1536 1262q0 -88 -33 -170q-34 -82 -96 -144l-324 -325q-43 -44 -91 -81t-105 -59v-121l-365 -362h-522v1346l365 366h720q92 0 174 -36t144 -97
q61 -62 97 -143zM719 877q0 -21 -8 -39q-8 -19 -22 -33q-15 -15 -33 -23q-19 -8 -40 -8h-127v207h127q21 0 40 -8q18 -8 33 -22q14 -15 22 -34z" />
    <glyph glyph-name="Q" unicode="Q" horiz-adv-x="1790" 
d="M1405 678q0 94 -25 182q-25 87 -70 164q-45 76 -108 139t-139 108q-77 45 -164 70q-88 25 -182 25t-181 -25q-88 -25 -164 -70q-77 -45 -140 -108t-108 -139q-45 -77 -70 -164q-25 -88 -25 -182t25 -181q25 -88 70 -164t108 -138q63 -63 140 -107q76 -45 164 -69
q87 -25 181 -25q28 0 61 5q32 6 62 13q30 6 56 12q25 5 40 5h391l-137 151q100 100 158 227zM1790 1034q0 -140 -54 -268q-54 -129 -151 -231l152 -166l-371 -369h-426q-15 0 -40 -6q-26 -6 -57 -13q-31 -6 -64 -12t-62 -6q-98 0 -189 25q-92 26 -171 73q-80 47 -146 113
q-66 65 -112 144q-47 79 -73 171q-26 91 -26 189q0 115 29 205q29 89 79 166q50 76 116 146q66 69 141 146q78 82 152 157q74 74 157 131q82 56 179 89t220 33q98 0 190 -26q91 -26 171 -72q79 -47 145 -113t113 -145q46 -80 72 -171zM891 678q0 -35 -14 -66
q-14 -32 -38 -55q-24 -24 -55 -37q-32 -14 -67 -14t-66 14q-32 13 -56 37q-24 23 -38 55q-14 31 -14 66q0 36 14 68q14 31 38 55t56 38q31 13 66 13t67 -13q31 -14 55 -38t38 -55z" />
    <glyph glyph-name="R" unicode="R" horiz-adv-x="1622" 
d="M1233 29q-23 168 -94 320t-181 282q87 54 139 136t52 187q0 76 -29 144q-30 67 -80 118q-51 50 -118 80q-68 29 -144 29h-749v-1296h473v510q116 -104 193 -230q77 -127 100 -280h438zM1255 0h-487q-6 50 -18 99q-13 48 -31 96l-197 -195h-522v1352l365 360h770
q82 0 155 -32t128 -86q54 -55 86 -128t32 -155q0 -56 -13 -101q-13 -46 -36 -86t-54 -77q-32 -37 -69 -74q106 -131 171 -286q65 -156 87 -325zM721 952q0 -29 -21 -49t-49 -20h-162v137h162q28 0 49 -20z" />
    <glyph glyph-name="S" unicode="S" horiz-adv-x="1550" 
d="M1280 1188q59 -32 108 -72t84 -90q34 -50 53 -109q19 -60 19 -129q0 -88 -37 -165q-38 -78 -98 -140q-87 -89 -174 -176l-174 -174q-93 -90 -212 -133t-247 -43q-87 0 -172 18t-162 54q-78 36 -146 90q-68 53 -122 123q29 38 60 81q31 42 64 84q33 41 68 80q34 38 72 70
q-100 62 -153 152q-54 90 -54 209q0 89 37 167q36 77 99 140q88 89 175 177t177 175q80 78 186 119q105 41 217 41q168 0 323 -56t279 -172zM1157 432q0 84 -26 148q-26 63 -68 111q-42 47 -96 81q-55 33 -111 58t-110 44q-55 19 -97 36t-68 35t-26 42q0 18 10 31t25 22
q14 8 31 13q17 4 32 4q90 0 175 -34q84 -34 153 -91l172 217q-55 53 -121 92q-67 38 -139 63q-73 24 -149 36q-77 12 -152 12q-92 0 -182 -30q-91 -31 -163 -87q-72 -57 -116 -137q-45 -80 -45 -180q0 -83 25 -145q24 -62 64 -107t92 -76q51 -32 105 -55q53 -23 105 -40
q51 -17 91 -33q40 -17 65 -35q24 -18 24 -44q0 -18 -9 -30q-9 -13 -22 -20q-14 -8 -30 -11t-31 -3q-99 0 -191 36q-93 36 -165 104l-172 -219q51 -63 116 -110q64 -48 138 -80q73 -32 152 -48t159 -16q64 0 130 13t128 39q61 25 116 63q54 38 94 88q40 49 64 110z" />
    <glyph glyph-name="T" unicode="T" horiz-adv-x="1554" 
d="M1169 985v340h-1138v-340h334v-956h469v956h335zM1554 1319l-333 -334v-623l-365 -362h-522v954h-334v394l365 364h1189v-393z" />
    <glyph glyph-name="U" unicode="U" horiz-adv-x="1540" 
d="M1153 1325h-428v-766q0 -25 -10 -47q-10 -23 -27 -40q-17 -18 -40 -28t-48 -10q-26 0 -48 10q-23 10 -40 28q-17 17 -27 40q-10 22 -10 47v766h-444v-772q0 -116 44 -218t121 -177q76 -76 178 -120t218 -44q115 0 217 44t179 120q76 76 121 178q44 102 44 217v772z
M1540 909q0 -118 -45 -224t-127 -189q-87 -90 -174 -175t-174 -171q-87 -90 -195 -138q-108 -49 -233 -49q-122 0 -230 47q-108 46 -188 127q-81 80 -127 187q-47 107 -47 229v793l365 366h495v-201l201 201h479v-803z" />
    <glyph glyph-name="V" unicode="V" horiz-adv-x="1823" 
d="M1425 1325h-479l-215 -618l-213 618h-479l448 -1296h488zM1823 1712l-471 -1354l-361 -358h-524l-467 1343l367 369h528l100 -291l291 291h537z" />
    <glyph glyph-name="W" unicode="W" horiz-adv-x="2433" 
d="M2038 1325h-477l-117 -491l-164 491h-485l-142 -489l-139 489h-477l412 -1296h462l144 553l168 -553h463zM2433 1712l-371 -1354l-360 -358h-502l-63 205l-207 -205h-502l-428 1346l367 366h524l55 -188l187 188h526l59 -182l180 182h535z" />
    <glyph glyph-name="X" unicode="X" horiz-adv-x="1792" 
d="M1395 29l-283 651l279 645h-476l-196 -453l-195 453h-475l277 -645l-281 -651h477l197 458l199 -458h477zM1792 1712l-291 -676l289 -671l-367 -365h-524l-108 250l-254 -250h-537l293 680l-285 663l367 369h526l107 -248l247 248h537z" />
    <glyph glyph-name="Y" unicode="Y" horiz-adv-x="1815" 
d="M1405 1325h-522l-158 -268l-158 268h-522l449 -770v-526h462v526zM1815 1712l-474 -809v-541l-364 -362h-512v547l-465 796l369 369h571l104 -178l181 178h590z" />
    <glyph glyph-name="Z" unicode="Z" horiz-adv-x="1473" 
d="M1085 29v426h-444l420 456v414h-1024v-412h436l-442 -458v-426h1054zM1473 362l-365 -362h-1108v465l403 420h-397v461l365 366h1075v-457l-383 -421h410v-472z" />
    <glyph glyph-name="bracketleft" unicode="[" horiz-adv-x="1004" 
d="M616 29v258h-210v778h210v260h-587v-1296h587zM1004 362l-365 -362h-639v1346l365 366h639v-311l-213 -213v-514h213v-312z" />
    <glyph glyph-name="backslash" unicode="\" horiz-adv-x="1649" 
d="M1247 29l-817 1296h-385l817 -1296h385zM1649 367l-369 -367h-434l-846 1341l369 369h434z" />
    <glyph glyph-name="bracketright" unicode="]" horiz-adv-x="1004" 
d="M616 29v1296h-587v-260h213v-778h-213v-258h587zM1004 362l-365 -362h-639v307l213 213v516h-213v310l365 366h639v-1350z" />
    <glyph glyph-name="asciicircum" unicode="^" horiz-adv-x="1229" 
d="M831 678l-284 647h-217l-285 -647h277l116 266l117 -266h276zM1229 1016l-369 -369h-323l-99 223l-98 -223h-340l307 703l363 362h252z" />
    <glyph glyph-name="underscore" unicode="_" horiz-adv-x="1024" 
d="M1024 -119h-1024v119h1024v-119z" />
    <glyph glyph-name="grave" unicode="`" horiz-adv-x="623" 
d="M379 1397l-197 194q-10 10 -21 22q-12 12 -25 22t-27 17t-29 7q-22 0 -36 -13q-15 -14 -15 -34q0 -14 9 -26q8 -12 20 -22t25 -18t23 -14l218 -135h55zM623 1544l-179 -178h-131l-223 141q-15 9 -30 20q-16 10 -29 22q-14 12 -22 28q-9 15 -9 35q0 32 23 53l178 178
q12 13 26 18t29 5q20 0 38 -7q17 -7 32 -18t29 -24q14 -14 26 -27z" />
    <glyph glyph-name="a" unicode="a" 
d="M1550 29l-469 1296h-569l-469 -1296h508l49 170h412l49 -170h489zM1946 365l-369 -365h-539l-49 168h-248l-172 -168h-569l489 1350l363 362h606zM924 508h-234l117 407z" />
    <glyph glyph-name="b" unicode="b" horiz-adv-x="1559" 
d="M1174 367q0 105 -55 183t-146 126q91 48 146 127q55 78 55 184q0 69 -27 131q-27 61 -73 107q-47 46 -108 73q-62 27 -132 27h-805v-1296h805q70 0 132 27q61 26 108 72q46 46 73 108zM1559 723q0 -68 -24 -135q-25 -67 -75 -117l-354 -350q-57 -56 -124 -88
q-67 -33 -148 -33h-834v1346l365 366h825q76 0 143 -29q67 -30 118 -81q50 -51 79 -118q29 -68 29 -143q0 -54 -12 -96t-33 -78q-21 -37 -51 -70q-30 -34 -66 -69q75 -53 119 -133zM709 401q0 -34 -25 -59t-59 -25h-160v168h160q34 0 59 -25zM709 911q0 -34 -25 -59t-59 -25
h-160v168h160q34 0 59 -25z" />
    <glyph glyph-name="c" unicode="c" horiz-adv-x="1696" 
d="M1696 674l-447 -475q-105 -112 -241 -174t-291 -62q-98 0 -189 25q-92 26 -171 73q-80 47 -146 113q-66 65 -112 144q-47 79 -73 171q-26 91 -26 189q0 158 63 289t173 241q62 62 122 127q59 65 120 125t126 113q64 53 137 93q72 39 154 62t178 23q98 0 188 -25
q89 -25 168 -71t145 -112t118 -148q-20 -20 -55 -57q-36 -37 -79 -81q-44 -45 -91 -92q-48 -47 -92 -87q-45 -41 -83 -70q-38 -30 -61 -39zM862 586q-23 -37 -61 -58q-39 -22 -84 -22q-36 0 -67 14q-32 13 -56 37q-24 23 -37 55q-14 31 -14 66q0 36 14 68q14 31 38 55t56 38
q31 13 66 13q45 0 84 -21q38 -22 61 -59l434 275q-47 73 -110 133q-64 59 -139 100t-159 64q-84 22 -171 22q-94 0 -181 -25q-88 -25 -164 -70q-77 -45 -140 -108t-108 -139q-45 -77 -70 -164q-25 -88 -25 -182t25 -181q25 -88 70 -164t108 -138q63 -63 140 -107
q76 -45 164 -69q87 -25 181 -25q87 0 171 22t159 63t139 100q63 58 110 132z" />
    <glyph glyph-name="d" unicode="d" horiz-adv-x="1536" 
d="M1153 676q0 89 -23 172q-24 82 -66 155q-43 72 -102 131q-60 59 -132 102q-73 42 -155 66q-83 23 -171 23h-473v-1296h473q88 0 171 24q82 23 155 65q72 42 132 102q59 59 102 131q42 72 66 154zM1536 1030q0 -130 -48 -253q-49 -123 -140 -216l-340 -342
q-103 -103 -229 -161q-127 -58 -275 -58h-504v1346l365 366h495q94 0 181 -24q86 -25 161 -69q75 -45 137 -107q61 -63 105 -138q44 -76 68 -163zM659 676q0 -32 -12 -61q-13 -29 -34 -50q-22 -22 -50 -34q-29 -13 -61 -13h-41v316h41q32 0 61 -12q28 -13 50 -34
q21 -22 34 -51z" />
    <glyph glyph-name="e" unicode="e" horiz-adv-x="1327" 
d="M1327 369l-364 -369h-963v1348l365 364h962v-457l-233 -233q-2 -45 -19 -83q-18 -39 -49 -71l-49 -49h350v-450zM940 29v403h-494v41h60q41 0 78 16t65 44q27 28 44 65q16 36 16 78q0 41 -16 78q-17 37 -44 65q-28 27 -65 44q-37 16 -78 16h-60v41h494v405h-911v-1296
h911z" />
    <glyph glyph-name="f" unicode="f" horiz-adv-x="1327" 
d="M940 920v405h-911v-1296h417v444h60q41 0 78 16t65 44q27 28 44 65q16 36 16 78q0 41 -16 78q-17 37 -44 65q-28 27 -65 44q-37 16 -78 16h-60v41h494zM1327 1253l-233 -231q-2 -43 -19 -83q-18 -40 -49 -71l-192 -192v-314l-365 -362h-469v1346l365 366h962v-459z" />
    <glyph glyph-name="g" unicode="g" horiz-adv-x="1774" 
d="M1386 41v606h-499q-6 -31 -21 -57q-16 -26 -39 -44q-23 -19 -51 -29q-28 -11 -59 -11q-36 0 -67 14q-32 13 -56 37q-24 23 -37 55q-14 31 -14 66q0 36 14 68q14 31 38 55t56 38q31 13 66 13q43 0 82 -21q38 -22 63 -59l443 262q-47 77 -111 139q-64 61 -140 104t-161 66
q-86 23 -176 23q-94 0 -181 -25q-88 -25 -164 -70q-77 -45 -140 -108t-108 -139q-45 -77 -70 -164q-25 -88 -25 -182t25 -181q25 -88 70 -164t108 -138q63 -63 140 -107q76 -45 164 -69q87 -25 181 -25q131 0 251 48q119 47 216 134zM1774 362l-371 -366l-217 143
q-97 -85 -218 -130q-121 -46 -251 -46q-98 0 -189 25q-92 26 -171 73q-80 47 -146 113q-66 65 -112 144q-47 79 -73 171q-26 91 -26 189q0 156 61 290t172 240q64 60 124 124t121 125q60 60 124 114q64 53 136 93t155 64q82 23 180 23q100 0 191 -26t171 -74t147 -116
t118 -153l-350 -350h424v-670z" />
    <glyph glyph-name="h" unicode="h" horiz-adv-x="1536" 
d="M1149 29v1296h-465v-469h-188v469h-465v-1296h465v477h188v-477h465zM1536 362l-365 -362h-516v135l-139 -135h-516v1346l365 366h516v-139l139 139h516v-1350z" />
    <glyph glyph-name="i" unicode="i" horiz-adv-x="881" 
d="M494 29v1296h-465v-1296h465zM881 362l-365 -362h-516v1348l365 364h516v-1350z" />
    <glyph glyph-name="j" unicode="j" horiz-adv-x="1540" 
d="M1153 1325h-428v-766q0 -25 -10 -47q-10 -23 -27 -40q-17 -18 -40 -28t-48 -10q-43 0 -68 17q-25 16 -37 42q-13 26 -16 59q-4 33 -4 66h-444v-65q0 -116 44 -218t121 -177q76 -76 178 -120t218 -44q115 0 217 44t179 120q76 76 121 178q44 102 44 217v772zM1540 909
q0 -121 -47 -228q-48 -107 -133 -194q-85 -88 -171 -174q-87 -87 -175 -174q-87 -83 -193 -129q-107 -47 -229 -47t-230 47q-108 46 -188 126q-81 80 -127 188q-47 107 -47 229v86l365 365h331v342l365 366h479v-803z" />
    <glyph glyph-name="k" unicode="k" horiz-adv-x="1655" 
d="M1266 29q-28 213 -131 397q-103 183 -267 324l330 575h-387l-315 -547v547h-465v-1296h465v491q108 -100 179 -222q70 -123 93 -269h498zM1288 0h-547q-6 46 -16 92q-11 45 -27 88l-182 -180h-516v1348l365 364h516v-272l270 272h455l-342 -600q24 -22 59 -67t75 -106
q39 -61 80 -133q41 -73 77 -149q35 -76 62 -152q26 -76 38 -143z" />
    <glyph glyph-name="l" unicode="l" horiz-adv-x="1227" 
d="M842 29v403h-396v893h-417v-1296h813zM1227 362l-365 -362h-862v1348l365 364h469v-893h393v-457z" />
    <glyph glyph-name="m" unicode="m" horiz-adv-x="2032" 
d="M1647 29v1296h-566l-243 -512l-244 512h-565v-1296h432v614l239 -614h277l237 614v-614h433zM2032 362l-365 -362h-481v190l-193 -190h-313l-55 139l-144 -139h-481v1346l365 366h604l145 -309l309 309h609v-1350z" />
    <glyph glyph-name="n" unicode="n" horiz-adv-x="1634" 
d="M1249 29v1296h-444v-489l-275 489h-499v-1296h444v481l268 -481h506zM1634 362l-364 -362h-543l-84 145l-147 -145h-496v1346l365 366h540l84 -151l150 151h495v-1350z" />
    <glyph glyph-name="o" unicode="o" horiz-adv-x="1790" 
d="M1403 678q0 94 -24 182q-25 87 -70 164q-45 76 -107 139q-63 63 -139 108q-77 45 -164 70q-88 25 -182 25t-181 -25q-88 -25 -164 -70q-77 -45 -140 -108t-108 -139q-45 -77 -70 -164q-25 -88 -25 -182t25 -181q25 -88 70 -164t108 -138q63 -63 140 -107q76 -45 164 -69
q87 -25 181 -25t182 25q87 24 164 69q76 45 139 108q62 62 107 138t70 163zM1790 1018q0 -136 -50 -256q-51 -121 -147 -217l-362 -367q-102 -103 -235 -159t-279 -56q-98 0 -189 25q-92 26 -171 73q-80 47 -146 113q-66 65 -112 144q-47 79 -73 171q-26 91 -26 189
q0 155 60 286q59 130 167 236l344 344q49 49 108 88q58 38 123 65q64 26 133 40q68 14 138 14q100 0 193 -27q92 -27 172 -75q79 -49 144 -116q65 -68 112 -149q46 -82 71 -174zM889 678q0 -35 -13 -66q-14 -32 -37 -55q-24 -24 -55 -37q-32 -14 -67 -14q-36 0 -67 14
q-32 13 -56 37q-24 23 -37 55q-14 31 -14 66q0 36 14 68q14 31 38 55t56 38q31 13 66 13t67 -13q31 -14 55 -38q23 -24 37 -55z" />
    <glyph glyph-name="p" unicode="p" horiz-adv-x="1536" 
d="M1149 905q0 86 -33 163q-34 76 -91 133t-133 91q-77 33 -163 33h-698v-1296h471v456h227q86 0 163 34q76 33 133 90t91 134zM1536 1262q0 -88 -33 -170q-34 -82 -96 -144l-324 -325q-43 -44 -91 -81t-105 -59v-121l-365 -362h-522v1346l365 366h720q92 0 174 -36t144 -97
q61 -62 97 -143zM719 877q0 -21 -8 -39q-8 -19 -22 -33q-15 -15 -33 -23q-19 -8 -40 -8h-127v207h127q21 0 40 -8q18 -8 33 -22q14 -15 22 -34z" />
    <glyph glyph-name="q" unicode="q" horiz-adv-x="1790" 
d="M1405 678q0 94 -25 182q-25 87 -70 164q-45 76 -108 139t-139 108q-77 45 -164 70q-88 25 -182 25t-181 -25q-88 -25 -164 -70q-77 -45 -140 -108t-108 -139q-45 -77 -70 -164q-25 -88 -25 -182t25 -181q25 -88 70 -164t108 -138q63 -63 140 -107q76 -45 164 -69
q87 -25 181 -25q28 0 61 5q32 6 62 13q30 6 56 12q25 5 40 5h391l-137 151q100 100 158 227zM1790 1034q0 -140 -54 -268q-54 -129 -151 -231l152 -166l-371 -369h-426q-15 0 -40 -6q-26 -6 -57 -13q-31 -6 -64 -12t-62 -6q-98 0 -189 25q-92 26 -171 73q-80 47 -146 113
q-66 65 -112 144q-47 79 -73 171q-26 91 -26 189q0 115 29 205q29 89 79 166q50 76 116 146q66 69 141 146q78 82 152 157q74 74 157 131q82 56 179 89t220 33q98 0 190 -26q91 -26 171 -72q79 -47 145 -113t113 -145q46 -80 72 -171zM891 678q0 -35 -14 -66
q-14 -32 -38 -55q-24 -24 -55 -37q-32 -14 -67 -14t-66 14q-32 13 -56 37q-24 23 -38 55q-14 31 -14 66q0 36 14 68q14 31 38 55t56 38q31 13 66 13t67 -13q31 -14 55 -38t38 -55z" />
    <glyph glyph-name="r" unicode="r" horiz-adv-x="1622" 
d="M1233 29q-23 168 -94 320t-181 282q87 54 139 136t52 187q0 76 -29 144q-30 67 -80 118q-51 50 -118 80q-68 29 -144 29h-749v-1296h473v510q116 -104 193 -230q77 -127 100 -280h438zM1255 0h-487q-6 50 -18 99q-13 48 -31 96l-197 -195h-522v1352l365 360h770
q82 0 155 -32t128 -86q54 -55 86 -128t32 -155q0 -56 -13 -101q-13 -46 -36 -86t-54 -77q-32 -37 -69 -74q106 -131 171 -286q65 -156 87 -325zM721 952q0 -29 -21 -49t-49 -20h-162v137h162q28 0 49 -20z" />
    <glyph glyph-name="s" unicode="s" horiz-adv-x="1550" 
d="M1280 1188q59 -32 108 -72t84 -90q34 -50 53 -109q19 -60 19 -129q0 -88 -37 -165q-38 -78 -98 -140q-87 -89 -174 -176l-174 -174q-93 -90 -212 -133t-247 -43q-87 0 -172 18t-162 54q-78 36 -146 90q-68 53 -122 123q29 38 60 81q31 42 64 84q33 41 68 80q34 38 72 70
q-100 62 -153 152q-54 90 -54 209q0 89 37 167q36 77 99 140q88 89 175 177t177 175q80 78 186 119q105 41 217 41q168 0 323 -56t279 -172zM1157 432q0 84 -26 148q-26 63 -68 111q-42 47 -96 81q-55 33 -111 58t-110 44q-55 19 -97 36t-68 35t-26 42q0 18 10 31t25 22
q14 8 31 13q17 4 32 4q90 0 175 -34q84 -34 153 -91l172 217q-55 53 -121 92q-67 38 -139 63q-73 24 -149 36q-77 12 -152 12q-92 0 -182 -30q-91 -31 -163 -87q-72 -57 -116 -137q-45 -80 -45 -180q0 -83 25 -145q24 -62 64 -107t92 -76q51 -32 105 -55q53 -23 105 -40
q51 -17 91 -33q40 -17 65 -35q24 -18 24 -44q0 -18 -9 -30q-9 -13 -22 -20q-14 -8 -30 -11t-31 -3q-99 0 -191 36q-93 36 -165 104l-172 -219q51 -63 116 -110q64 -48 138 -80q73 -32 152 -48t159 -16q64 0 130 13t128 39q61 25 116 63q54 38 94 88q40 49 64 110z" />
    <glyph glyph-name="t" unicode="t" horiz-adv-x="1554" 
d="M1169 985v340h-1138v-340h334v-956h469v956h335zM1554 1319l-333 -334v-623l-365 -362h-522v954h-334v394l365 364h1189v-393z" />
    <glyph glyph-name="u" unicode="u" horiz-adv-x="1540" 
d="M1153 1325h-428v-766q0 -25 -10 -47q-10 -23 -27 -40q-17 -18 -40 -28t-48 -10q-26 0 -48 10q-23 10 -40 28q-17 17 -27 40q-10 22 -10 47v766h-444v-772q0 -116 44 -218t121 -177q76 -76 178 -120t218 -44q115 0 217 44t179 120q76 76 121 178q44 102 44 217v772z
M1540 909q0 -118 -45 -224t-127 -189q-87 -90 -174 -175t-174 -171q-87 -90 -195 -138q-108 -49 -233 -49q-122 0 -230 47q-108 46 -188 127q-81 80 -127 187q-47 107 -47 229v793l365 366h495v-201l201 201h479v-803z" />
    <glyph glyph-name="v" unicode="v" horiz-adv-x="1823" 
d="M1425 1325h-479l-215 -618l-213 618h-479l448 -1296h488zM1823 1712l-471 -1354l-361 -358h-524l-467 1343l367 369h528l100 -291l291 291h537z" />
    <glyph glyph-name="w" unicode="w" horiz-adv-x="2433" 
d="M2038 1325h-477l-117 -491l-164 491h-485l-142 -489l-139 489h-477l412 -1296h462l144 553l168 -553h463zM2433 1712l-371 -1354l-360 -358h-502l-63 205l-207 -205h-502l-428 1346l367 366h524l55 -188l187 188h526l59 -182l180 182h535z" />
    <glyph glyph-name="x" unicode="x" horiz-adv-x="1792" 
d="M1395 29l-283 651l279 645h-476l-196 -453l-195 453h-475l277 -645l-281 -651h477l197 458l199 -458h477zM1792 1712l-291 -676l289 -671l-367 -365h-524l-108 250l-254 -250h-537l293 680l-285 663l367 369h526l107 -248l247 248h537z" />
    <glyph glyph-name="y" unicode="y" horiz-adv-x="1815" 
d="M1405 1325h-522l-158 -268l-158 268h-522l449 -770v-526h462v526zM1815 1712l-474 -809v-541l-364 -362h-512v547l-465 796l369 369h571l104 -178l181 178h590z" />
    <glyph glyph-name="z" unicode="z" horiz-adv-x="1473" 
d="M1085 29v426h-444l420 456v414h-1024v-412h436l-442 -458v-426h1054zM1473 362l-365 -362h-1108v465l403 420h-397v461l365 366h1075v-457l-383 -421h410v-472z" />
    <glyph glyph-name="braceleft" unicode="{" horiz-adv-x="1096" 
d="M1096 324l-365 -363h-297q-61 0 -115 25q-54 26 -94 69q-41 42 -64 97q-24 55 -24 114q0 27 6 53q5 26 12 52q6 25 12 51q5 26 5 53q0 35 -15 61q-16 26 -41 44t-55 29q-31 10 -61 16v96l170 170q-2 24 -7 48l-12 48t-11 48t-5 48q0 65 28 124t73 104l350 350
q40 40 93 64t112 24h305v-98l-174 -176q0 -24 5 -47q4 -24 10 -47t11 -46q4 -24 4 -49q0 -45 -15 -81q-16 -37 -40 -68t-53 -59q-30 -28 -58 -56q36 -19 66 -44q30 -26 53 -57q22 -32 35 -69q12 -38 12 -80q0 -22 -4 -43q-5 -22 -11 -44t-10 -43q-5 -22 -5 -44q0 -42 14 -72
t38 -51q23 -21 55 -34q31 -14 67 -23v-94zM711 -8v47q-36 10 -67 27q-32 17 -55 42q-24 24 -38 56t-14 72q0 24 5 47q4 23 9 46t10 47q4 23 4 48q0 45 -17 83q-18 37 -46 67q-29 30 -65 53q-37 22 -75 37v28q39 14 76 36q36 22 65 52q28 30 45 68q17 37 17 82q0 24 -4 48
q-5 24 -11 47t-10 47q-5 24 -5 48q0 39 14 72q14 32 38 56t56 41q32 16 68 24v49h-277q-54 0 -103 -23q-49 -24 -85 -62q-37 -39 -58 -89q-22 -51 -22 -105q0 -27 6 -52q5 -26 12 -52l12 -52q5 -27 5 -55q0 -35 -15 -63q-15 -29 -39 -50q-25 -21 -56 -35q-31 -15 -62 -22
v-53q33 -7 64 -21t55 -36t39 -51q14 -29 14 -66q0 -27 -5 -53q-6 -26 -12 -51q-7 -26 -12 -52q-6 -26 -6 -53q0 -53 21 -102q21 -50 58 -88q36 -38 85 -61t104 -23h277z" />
    <glyph glyph-name="bar" unicode="|" horiz-adv-x="336" 
d="M287 -160h-238v2046h238v-2046z" />
    <glyph glyph-name="braceright" unicode="}" horiz-adv-x="1096" 
d="M711 702q-32 7 -62 22q-31 14 -55 35t-38 50q-15 28 -15 63q0 28 6 55q5 26 11 52l12 52q5 25 5 52q0 55 -21 106q-22 50 -58 89q-37 38 -86 61q-50 23 -105 23h-276v-49q36 -8 68 -24q32 -17 56 -41t38 -56q14 -33 14 -72q0 -24 -5 -48t-10 -47q-6 -23 -11 -47t-5 -48
q0 -45 18 -82q17 -38 46 -68t66 -52q36 -22 75 -36v-28q-39 -15 -75 -37q-37 -23 -66 -53t-46 -67q-18 -38 -18 -83q0 -25 5 -48t11 -46l10 -46q5 -24 5 -48q0 -40 -14 -72t-38 -56q-24 -25 -56 -42t-68 -27v-47h276q55 0 104 23t86 61q36 38 57 88q21 49 21 102q0 27 -5 53
l-12 52q-6 25 -11 51q-6 26 -6 53q0 37 15 66q14 29 38 51t55 36t64 21v53zM1096 987l-170 -170q1 -25 7 -49q6 -25 12 -49t11 -48q5 -25 5 -50q0 -29 -6 -58q-7 -29 -19 -57t-29 -53t-37 -45l-356 -355q-42 -42 -95 -67q-54 -25 -114 -25h-305v96l174 172q1 25 -3 50
l-10 48q-6 23 -11 47t-5 50q0 45 15 81t39 67t54 60q29 28 58 58q-34 18 -64 42t-52 55q-23 30 -36 66q-14 36 -14 77q0 24 5 48t11 47q5 23 10 47t5 48q0 39 -15 68q-15 28 -39 49q-25 20 -56 33q-32 12 -66 18v96l365 365q52 0 103 2t103 2q34 0 68 -1q34 -2 68 -7
q53 -8 99 -36t81 -69q34 -42 54 -92q20 -51 20 -104q0 -26 -5 -51q-5 -26 -11 -50l-12 -50t-7 -50q-2 -38 12 -65q14 -28 39 -47q24 -19 56 -30q31 -12 63 -18v-96z" />
    <glyph glyph-name="asciitilde" unicode="~" horiz-adv-x="1585" 
d="M1585 1004l-366 -367q-44 -45 -87 -82q-43 -38 -90 -66t-101 -43q-54 -16 -120 -16q-60 0 -115 16q-55 15 -106 34t-97 35q-47 15 -89 15q-29 0 -55 -12q-27 -13 -51 -31q-25 -19 -47 -41l-40 -40l-221 221q46 49 101 111q54 61 115 125q60 63 127 124q66 61 136 108
t143 76t148 29q55 0 107 -15q51 -16 101 -35q49 -19 98 -34q49 -16 100 -16q28 0 54 13q26 12 50 31q23 18 45 40q21 22 39 41zM1008 825q-20 -19 -41 -39q-22 -20 -46 -36t-50 -26q-27 -11 -56 -11q-44 0 -90 16q-47 15 -96 34q-50 19 -103 35q-53 15 -110 15
q-64 0 -114 -13q-51 -13 -94 -37q-44 -24 -84 -58q-40 -35 -83 -78l180 -178q19 18 41 38q21 20 45 37q24 16 51 27q27 10 56 10q43 0 90 -16t98 -35q50 -19 105 -35q54 -16 114 -16q61 0 111 14q49 14 93 40q43 25 83 59q39 34 80 75z" />
    <glyph glyph-name="uni00A0" unicode="&#xa0;" horiz-adv-x="717" 
 />
    <glyph glyph-name="exclamdown" unicode="&#xa1;" horiz-adv-x="872" 
d="M483 -6v872h-448v-872h448zM487 1145q0 44 -21 78q-22 33 -55 56q-34 23 -74 35q-41 11 -79 11t-78 -12q-41 -12 -74 -35q-34 -23 -55 -56q-22 -34 -22 -77q0 -44 22 -77q21 -34 55 -57q33 -23 74 -34q40 -12 78 -12t79 12q40 11 74 34q33 23 55 57zM872 1501
q0 -40 -16 -74q-17 -35 -45 -63l-113 -113h170v-925l-364 -363h-500v924l94 94q-43 26 -70 69q-28 42 -28 95q0 38 16 74q16 35 43 61l351 348q42 42 95 62q52 20 109 20q45 0 91 -14t83 -40q37 -27 61 -66z" />
    <glyph glyph-name="cent" unicode="&#xa2;" horiz-adv-x="1358" 
d="M958 961q-46 71 -111 120q-66 49 -145 78v166h-325v-164q-77 -28 -141 -75q-64 -48 -110 -111t-71 -138q-26 -75 -26 -157q0 -83 26 -158q25 -76 71 -139q45 -63 109 -110t142 -74v-170h325v170q79 29 145 79q65 50 111 119l-309 181q-20 -25 -50 -38q-30 -14 -62 -14
t-59 12q-28 12 -48 33q-21 21 -33 49t-12 60q0 31 12 59t33 48q20 20 48 32q27 12 59 12t63 -13q30 -13 51 -38zM1358 764q-28 -42 -60 -80q-33 -38 -68 -73q-35 -36 -71 -70l-72 -70v-109l-364 -362h-375v176q-78 30 -142 81q-65 51 -110 117q-46 66 -71 144t-25 162
q0 66 14 122q13 55 38 104q24 49 57 93q33 43 72 85q38 41 81 82q42 40 86 83v97l365 364h374v-174q41 -9 80 -33q38 -24 73 -55q34 -32 64 -67q29 -36 52 -70l-344 -346z" />
    <glyph glyph-name="sterling" unicode="&#xa3;" horiz-adv-x="1241" 
d="M842 387h-316q13 48 20 94q7 45 7 94h166v99h-176q-6 32 -15 65q-10 33 -10 68q0 26 12 50q11 24 29 43t41 33t47 21l-80 365q-86 -24 -167 -65q-82 -42 -146 -102t-102 -138q-39 -79 -39 -176q0 -44 11 -84q10 -40 19 -80h-114v-99h131q0 -34 -5 -62t-16 -51
q-12 -24 -32 -44q-20 -21 -50 -39l56 -350h587zM1241 772l-160 -410l-364 -362h-629l-63 393q24 14 43 29t33 33q13 18 21 41q7 22 9 51h-131v147l88 88q-6 28 -6 56q0 100 42 185t112 155l356 356q73 73 165 113q91 40 189 63l92 -416l-135 -133q2 -26 8 -51q6 -26 13 -51
h182v-148l-139 -139h274z" />
    <glyph glyph-name="currency" unicode="&#xa4;" horiz-adv-x="1888" 
d="M1524 1030q-10 -10 -38 -27t-60 -35q-32 -19 -62 -37t-45 -30q-10 -8 -31 -29q-21 -22 -44 -46q-24 -25 -45 -48t-32 -35q26 -6 57 -12q30 -6 58 -6q50 0 87 14t68 37q30 23 59 53q28 30 60 62l297 -215q-86 -130 -189 -246t-214 -225q-55 -54 -116 -98q-62 -45 -129 -77
q-68 -32 -141 -50q-73 -17 -151 -17q-124 0 -238 41t-206 115q-93 73 -159 175q-67 101 -95 222h-215q7 15 22 41q14 25 31 52q16 27 33 50t31 33h-64q7 12 18 31q10 19 22 39q11 20 21 38t17 27q9 11 25 27q15 16 33 33q17 17 34 33q16 15 27 26q31 74 77 141
q46 66 103 121l346 344q48 48 106 85q57 37 121 63q64 25 132 38q67 13 135 13q97 0 187 -25q89 -25 168 -71t146 -112q66 -66 117 -148zM1200 496q-23 -36 -54 -65q-31 -30 -68 -50q-37 -21 -78 -32q-42 -11 -85 -11q-53 0 -100 15q-48 14 -88 41t-72 65t-53 86h324l49 86
h-397q0 12 -1 25q-2 12 -2 24q0 11 1 21q0 9 2 20h448l49 84h-475q43 99 125 156t190 57q43 0 85 -11q41 -11 78 -32t68 -50t54 -65l293 187q-47 73 -110 132q-64 59 -139 100t-159 63t-172 22q-124 0 -235 -42q-112 -42 -201 -117q-90 -75 -152 -177q-62 -103 -87 -223h-84
l-50 -84h123q-2 -12 -2 -23v-45q0 -11 2 -22h-127l-49 -86h187q26 -121 88 -222t151 -174t201 -114q111 -41 235 -41q85 0 170 23q84 23 160 65t141 100q64 58 109 129z" />
    <glyph glyph-name="yen" unicode="&#xa5;" horiz-adv-x="1815" 
d="M1407 1325h-524l-158 -270l-158 270h-522l395 -678h-293v-86h347v-90h-347v-84h347v-358h462v358h349v84h-349v90h349v86h-295zM1815 1710l-396 -678h271v-135l-41 -39h41v-156l-713 -702h-512v356h-348v136l41 40h-41v136l174 174l-291 499l369 369h571l104 -178
l181 178h590z" />
    <glyph glyph-name="brokenbar" unicode="&#xa6;" horiz-adv-x="336" 
d="M287 -160h-238v991h238v-991zM287 891h-238v995h238v-995z" />
    <glyph glyph-name="section" unicode="&#xa7;" horiz-adv-x="1815" 
d="M979 1104l156 165q-35 7 -59 31q-25 24 -25 61q0 23 11 41t29 31q17 12 39 19q21 6 41 6q33 0 63 -13q30 -14 51 -41q34 0 71 -14t68 -37t51 -54q19 -31 19 -64q19 0 38 -9q18 -10 33 -26t24 -37t9 -43q0 -24 -9 -44q-10 -21 -26 -36t-37 -23q-22 -9 -46 -9q-23 0 -45 8
t-37 25l-127 -156q-2 -15 -10 -33q-9 -19 -21 -35q-13 -16 -29 -27q-17 -11 -34 -11q-11 0 -23 5q-23 59 -61 109q-38 49 -87 85q-50 35 -108 55q-59 20 -123 20q-80 0 -150 -32q-71 -32 -123 -86q-52 -55 -82 -127q-30 -73 -30 -153q0 -82 31 -154t85 -126t126 -85t154 -31
q63 0 124 21q60 20 112 57q-11 -2 -23 -4t-23 -2q-39 0 -66 18q-28 17 -45 45q-18 27 -26 62q-9 34 -9 67q0 49 17 104t48 104q31 48 75 83q43 34 97 42l5 -25q-42 -15 -76 -48q-34 -34 -58 -76t-37 -88q-13 -47 -13 -89q0 -28 7 -57q6 -30 21 -54q14 -25 37 -40
q23 -16 56 -16q29 0 58 15q31 31 55 68q23 37 37 79q-32 11 -62 26t-59 32q-12 23 -19 44q-8 21 -10 29q34 -17 73 -37q38 -20 79 -37q40 -17 81 -28q41 -12 79 -12q13 0 23 3q10 2 21 9q-1 3 -1 10v10q0 21 8 39t23 32q14 13 33 21q18 8 39 8h8q2 0 8 -2v58q0 48 -3 93
t-3 93q0 7 1 16q0 8 3 16q2 7 8 12q5 5 14 5q13 0 22 -11q8 -12 12 -28t6 -32q1 -16 1 -25q0 -54 -4 -108q-5 -54 -12 -108q42 -30 42 -77q0 -36 -23 -65q-30 0 -39 -24q-2 -5 -5 -24q-3 -20 -6 -43q-4 -23 -6 -44l-4 -28q-2 -18 -3 -38q-2 -20 -6 -39q-5 -19 -14 -35
q-10 -17 -28 -27l-6 -2q-4 -1 -8 -1q-14 0 -25 9t-11 25q0 23 14 46q13 23 25 43q20 34 28 71q7 36 12 75q-29 0 -53 15q-25 14 -38 40q-21 -16 -46 -22q-26 -6 -52 -6q-22 0 -43 4q-22 3 -43 8q-12 -33 -27 -66q17 -17 41 -34q24 -18 52 -32q28 -15 57 -24q28 -10 54 -10
q3 -26 3 -53q0 -60 -23 -114t-62 -94q-40 -40 -93 -63q-54 -24 -115 -24q-26 0 -50 4q-25 4 -49 13l3 24q63 5 123 32q60 26 109 68h-7q-32 0 -67 7q-35 6 -68 18q-34 12 -64 31q-30 18 -52 42q-45 -21 -92 -31t-96 -10q-94 0 -178 37q-85 36 -148 105q-23 -7 -49 -19
q-27 -13 -52 -30q-26 -17 -47 -37q-22 -20 -34 -41q-44 15 -81 43q-37 27 -63 64q-27 37 -42 81t-15 91q0 63 27 121q27 57 75 100l19 -15q-18 -40 -26 -83t-8 -85q0 -21 2 -42q2 -22 6 -43q29 54 74 97q44 42 99 68v26q0 60 16 117t46 107t72 92t94 72l-64 146
q-45 0 -68 20q-24 20 -40 62q-17 1 -48 4t-68 9t-75 16q-39 10 -70 24q-31 13 -51 32q-20 18 -20 42q0 23 18 40t43 29t52 20t44 12q18 38 46 69q27 31 61 54q33 22 72 36q38 13 79 16l-4 10q-2 4 -2 9q0 17 13 29q12 12 29 12t29 -12q11 -12 11 -29q0 -13 -7 -23
q75 -11 135 -56q59 -45 91 -114q18 -4 46 -12q27 -8 53 -20q25 -12 44 -29q18 -18 18 -41q0 -27 -26 -47q-27 -20 -62 -34q-36 -14 -72 -22q-37 -8 -58 -12l-22 -43q0 -14 7 -33q6 -20 15 -40q8 -21 17 -40q9 -20 14 -33q5 1 9 2h9h20q65 0 130 -20q-5 12 -5 25q0 18 13 31
q12 12 30 12q11 0 21 -6t18 -15zM410 1572l10 -22q-46 -29 -72 -77q-27 -48 -28 -105q46 -9 92 -13q45 -4 93 -4q30 0 63 2t67 6q33 4 66 11q32 7 61 17q-7 52 -31 97q-25 44 -62 77q-38 33 -85 52q-48 18 -100 18q-50 0 -96 -17t-82 -47q-37 -31 -63 -73t-36 -91l44 -17
q11 64 54 114q42 50 105 72zM1425 1077l-12 -17q12 -14 30 -20q17 -6 37 -6q19 0 37 6q17 6 30 18q13 11 21 27q7 16 7 36q0 18 -7 34t-19 28t-28 19q-17 7 -36 7h-17q0 37 -16 69q-16 31 -42 54q-26 22 -58 35q-33 12 -67 12h-19q-14 29 -38 42q-25 12 -57 12q-15 0 -32 -4
q-17 -5 -30 -14q-14 -9 -23 -22q-9 -14 -9 -32q0 -35 26 -52q25 -17 56 -21q101 -11 164 -61q62 -50 100 -144zM1276 929l122 153q-65 158 -234 180l-139 -144q40 -9 79 -24t72 -37q33 -23 59 -54q26 -32 41 -74zM897 1379l-15 27q-15 12 -35 22q-21 9 -42 16q-21 6 -33 9
q7 -20 11 -41t6 -42q-69 -25 -140 -34q-72 -9 -144 -9q-38 0 -80 3q-43 3 -85 10q-43 7 -83 19q-41 12 -75 30q3 17 6 33q3 15 8 31q-11 -3 -31 -10q-21 -7 -41 -16q-20 -10 -35 -22q-15 -13 -15 -26q0 -14 14 -26t34 -21q19 -9 39 -15q19 -7 30 -10q72 -21 146 -27
q73 -7 148 -7t150 7q75 6 147 27q10 3 30 10q19 6 38 15t33 21t14 26zM1338 329l-100 35q-49 24 -87 60q-29 -54 -74 -98q-45 -45 -99 -76q48 -42 107 -63q59 -22 122 -22q10 0 19 1q8 1 17 1q34 33 59 74q25 40 36 88zM423 360l-62 105q-25 56 -31 119q-57 -28 -100 -72
q-44 -44 -69 -104q14 -46 37 -88q23 -43 58 -75q33 40 76 70t91 45zM1179 955l27 -13q9 -13 9 -29q0 -25 -17 -46q-18 -21 -44 -23l9 -18l8 -18q27 8 41 30t14 49q0 16 -4 30q-5 14 -10 25q-6 10 -10 17q-5 7 -5 11q0 7 4 14t12 7q-21 26 -48 44t-57 31q-30 12 -62 21
q-33 9 -65 16q5 -8 5 -12q0 -14 -10 -14q-5 0 -8 4q-4 3 -8 8l-8 8q-5 4 -12 4q-9 0 -14 -6q-5 -7 -5 -15q0 -9 5 -15q4 -6 4 -10q0 -8 -6 -8q66 -26 118 -72q51 -46 93 -98q3 -4 6 -7q3 -4 8 -4q17 0 29 16t12 32q0 9 -4 12q-4 2 -9 3q-5 0 -9 2t-4 10q0 14 15 14z
M708 1073l-44 110q-7 15 -7 36q0 11 2 21q1 10 6 18q-45 -5 -89 -7q-45 -3 -91 -3h-39q-9 0 -18 1q-10 0 -20 1q11 -31 32 -44t50 -13q10 0 19 1t17 1q11 0 11 -12q0 -6 -6 -9t-11 -3l57 -137q31 16 65 26q33 9 66 13zM1531 535l13 39q0 31 -23 54q-23 22 -54 22
q-33 0 -56 -22q-24 -22 -24 -54t24 -53q23 -22 56 -22q5 0 10 1q5 0 10 2q8 11 19 21t25 12zM1463 347l-13 -24q-9 -14 -17 -28q-9 -15 -15 -29q-7 -14 -7 -24q0 -4 4 -7q4 -4 10 -4q12 5 20 20q7 14 11 32q4 17 6 35q1 18 1 29zM501 1658l15 16q0 17 -15 17q-16 0 -16 -16
q0 -17 16 -17zM1065 1017l-23 10q-13 9 -13 20q0 8 5 12q4 3 9 3q11 0 25 -10q13 -10 13 -21q0 -7 -5 -10q-6 -4 -11 -4zM883 1517l-5 18q16 11 33 25t37 14q13 0 22 -5q8 -6 16 -13q7 -7 15 -12q7 -6 19 -6t24 7q11 7 24 16q12 9 26 16q13 7 28 7q13 0 23 -5l18 -12t18 -11
q8 -6 19 -6q13 0 26 7q13 6 26 14t27 15q13 6 28 6q12 0 24 -4q12 -5 22 -10t17 -9q7 -5 9 -5q1 0 11 6q9 5 23 11t30 12q15 5 29 5q15 0 29 -6q14 -7 25 -14q11 -8 18 -14q7 -7 10 -7q8 0 16 10q8 9 15 14q10 9 25 17q14 8 31 15q16 6 32 10q16 3 30 3q22 0 42 -12t20 -38
q0 -11 -5 -19q-5 -9 -10 -17h-21q2 5 5 10t3 12q0 20 -17 29t-32 9q-32 0 -55 -11q-23 -12 -40 -25q-17 -14 -28 -25q-12 -11 -21 -11q-8 0 -17 7t-19 15q-11 8 -23 15q-13 7 -29 7q-14 0 -28 -5q-14 -6 -26 -13q-13 -7 -22 -12q-10 -6 -16 -6q-5 0 -12 5q-7 4 -16 10
t-20 11q-11 4 -23 4t-24 -6l-26 -14q-14 -8 -28 -14q-15 -7 -31 -7q-12 0 -21 6q-9 5 -17 11l-18 12q-9 5 -20 5q-13 0 -25 -7l-24 -16q-13 -9 -26 -16q-13 -8 -28 -8q-13 0 -21 6q-9 5 -16 12q-8 6 -15 12q-8 5 -18 5q-14 0 -27 -11q-14 -11 -25 -19zM1401 687l-3 -23
q-34 4 -62 8t-54 10t-52 15q-27 9 -59 23l11 39q54 -24 107 -43q52 -19 112 -29z" />
    <glyph glyph-name="dieresis" unicode="&#xa8;" horiz-adv-x="559" 
d="M162 1528q0 28 -20 48q-20 19 -46 19q-28 0 -47 -19q-20 -20 -20 -48q0 -26 20 -46q19 -20 47 -20q26 0 46 20zM350 1528q0 28 -18 48q-19 19 -47 19t-47 -19q-19 -20 -19 -48q0 -26 19 -46t47 -20t47 20zM559 1706q0 -39 -29 -68l-178 -178q-14 -12 -31 -19
q-18 -7 -36 -7q-29 0 -53 16q-24 15 -35 43q-23 -23 -44 -41q-22 -18 -57 -18q-20 0 -37 8q-18 7 -31 20t-20 30q-8 17 -8 36q0 20 8 38q7 17 21 29l178 179q28 28 67 28q29 0 53 -16q24 -17 35 -43q23 23 45 41q21 18 56 18q40 0 68 -28z" />
    <glyph glyph-name="copyright" unicode="&#xa9;" horiz-adv-x="1434" 
d="M1403 676q0 95 -24 183q-25 87 -70 164q-45 76 -107 139q-63 62 -139 107q-77 44 -164 69q-88 24 -182 24q-95 0 -182 -24q-88 -25 -164 -69q-77 -45 -140 -107q-63 -63 -108 -139q-45 -77 -69 -164q-25 -88 -25 -183q0 -94 25 -181q25 -88 70 -164t108 -138
q63 -63 140 -107q76 -45 164 -69q87 -25 181 -25t182 25q87 24 164 69q76 44 139 106q62 62 107 138t70 164zM1434 676q0 -99 -26 -190t-72 -170q-47 -80 -113 -145q-66 -66 -145 -112q-80 -47 -171 -73q-92 -25 -190 -25t-189 25q-92 26 -171 73q-80 47 -146 113
q-66 65 -112 144q-47 79 -73 171q-26 91 -26 189q0 99 26 191q25 91 72 171q47 79 113 145q65 65 145 112q79 47 171 73q91 25 190 25q98 0 190 -25q91 -26 171 -73q79 -47 145 -112q66 -66 113 -145q46 -80 72 -171zM748 571q-16 -21 -38 -33t-48 -12q-22 0 -41 9
q-19 8 -33 23q-15 14 -23 34q-8 19 -8 41q0 21 8 40t23 34q14 14 33 22t41 8q26 0 48 -11q22 -12 38 -32l235 150q-54 80 -139 126t-182 46q-79 0 -149 -30q-70 -31 -122 -83t-82 -122t-30 -148q0 -80 30 -150t82 -122q52 -53 122 -83t149 -30q97 0 182 46t139 128z
M1229 631l-250 -264q-65 -70 -142 -109q-78 -39 -175 -39q-86 0 -161 33t-131 89q-57 56 -89 132q-33 75 -33 160q0 88 35 163q34 74 96 136l201 203q55 57 130 85q74 27 154 27q116 0 209 -56q92 -56 152 -153l-211 -211q-8 -8 -23 -16t-24 -14z" />
    <glyph glyph-name="ordfeminine" unicode="&#xaa;" horiz-adv-x="1440" 
d="M1053 348v152h-1022v-152h1022zM1024 612l-307 848h-369l-305 -848h324l32 115h279l33 -115h313zM1440 682l-365 -365h-1075v205l61 62h-61l328 905l360 356h406l323 -895l-63 -63h86v-205zM623 920h-168l84 292z" />
    <glyph glyph-name="guillemotleft" unicode="&#xab;" horiz-adv-x="1327" 
d="M561 893h-272l-252 -340l237 -324h273l-240 324zM913 893h-272l-252 -340l238 -324h272l-237 324zM1327 1280l-274 -373l252 -338l-371 -368h-322l-12 16l-18 -16h-322l-260 352l180 242q13 18 23 34q9 15 19 30q9 14 20 28t26 31l363 362h344l-27 -37l37 37h342z" />
    <glyph glyph-name="logicalnot" unicode="&#xac;" horiz-adv-x="1217" 
d="M829 389v391h-800v-254h549v-137h251zM1217 723l-367 -365h-303v138h-547v305l365 364h852v-442z" />
    <glyph glyph-name="uni00AD" unicode="&#xad;" horiz-adv-x="1126" 
d="M739 526v254h-710v-254h710zM1126 862l-364 -366h-762v305l365 364h761v-303z" />
    <glyph glyph-name="registered" unicode="&#xae;" horiz-adv-x="852" 
d="M823 1284q0 82 -31 155q-32 72 -86 126t-126 85q-73 31 -154 31t-153 -31q-73 -31 -127 -85t-85 -126q-32 -73 -32 -155q0 -81 32 -153q31 -72 85 -126t127 -85q72 -31 153 -31q82 0 155 31q72 31 126 85t85 126zM852 1284q0 -87 -33 -164q-34 -78 -91 -136
q-58 -58 -136 -92t-166 -34q-87 0 -164 34q-78 34 -136 92t-92 136q-34 77 -34 164q0 88 34 166t92 136q58 57 136 91q77 33 164 33t165 -33q77 -34 135 -91q58 -58 92 -136zM606 1026q-11 59 -36 108q-25 48 -62 93q31 18 51 44q19 26 19 64q0 24 -9 46q-10 21 -26 37
q-16 15 -37 25q-21 9 -45 9h-248v-426h141v188q47 -40 78 -83q30 -43 41 -105h133zM629 997h-180q-4 29 -13 60l-59 -60h-195v478l131 131h271q31 0 58 -11q26 -12 46 -32q19 -20 30 -47t11 -58q0 -38 -14 -65q-15 -27 -41 -52q37 -46 58 -100q20 -54 28 -113zM451 1335
q0 -14 -10 -24q-11 -11 -25 -11h-64v68h64q14 0 25 -10z" />
    <glyph glyph-name="macron" unicode="&#xaf;" horiz-adv-x="330" 
d="M330 1386h-330v97h330v-97z" />
    <glyph glyph-name="degree" unicode="&#xb0;" horiz-adv-x="1028" 
d="M641 1180q0 63 -24 119t-65 98q-42 41 -97 66q-56 24 -119 24t-119 -24q-56 -25 -97 -66q-42 -42 -66 -98q-25 -56 -25 -119t25 -118q24 -56 66 -98q41 -42 97 -66t119 -24t119 24q55 24 97 66q41 42 65 98zM1028 1532q0 -65 -24 -123t-70 -104l-350 -351
q-51 -51 -112 -80q-62 -30 -136 -30q-69 0 -130 27q-61 26 -107 72q-46 45 -72 107q-27 61 -27 130q0 74 29 135t82 112l350 351q46 46 106 70t125 24q71 0 133 -27q61 -27 106 -73q45 -47 71 -108zM424 1180q0 -18 -7 -33q-7 -16 -19 -27q-12 -12 -28 -19t-34 -7t-34 7
t-28 19q-12 11 -19 27q-7 15 -7 33t7 34t19 28t28 19t34 7t34 -7t28 -19t19 -28z" />
    <glyph glyph-name="plusminus" unicode="&#xb1;" horiz-adv-x="1126" 
d="M1126 360l-364 -362h-762v303l229 229h-229v306l365 364h34l195 195h303v-195h229v-305l-229 -229h229v-306zM739 561v254h-227v193h-254v-193h-229v-254h229v-194h254v194h227zM739 29v252h-710v-252h710z" />
    <glyph glyph-name="uni00B2" unicode="&#xb2;" horiz-adv-x="782" 
d="M575 891v190h-184q24 26 54 57q30 30 57 64q27 33 45 69t18 75q0 51 -21 88q-22 37 -57 61q-36 24 -80 36q-45 11 -90 11q-36 0 -75 -6q-39 -7 -76 -20q-37 -14 -70 -34q-33 -21 -57 -48l84 -103q13 10 31 22q17 11 37 21q19 9 39 15q19 6 36 6q23 0 41 -11
q17 -12 17 -36q0 -10 -5 -20q-5 -11 -11 -20q-7 -10 -15 -18q-8 -9 -14 -16l-220 -223v-160h516zM782 1038l-178 -178h-575v203l229 231q4 4 10 11q6 6 12 14q6 7 11 15q4 8 4 14q0 12 -9 15t-20 3q-17 0 -37 -8q-21 -8 -41 -20t-38 -25q-19 -14 -31 -25l-119 146l37 41
q46 45 90 89q43 44 88 89q25 24 59 43q34 18 72 31q37 12 76 18q38 6 72 6q51 0 101 -14t90 -42q39 -28 63 -70t24 -99q0 -39 -12 -71t-31 -60q-20 -28 -44 -54t-48 -51h145v-252z" />
    <glyph glyph-name="uni00B3" unicode="&#xb3;" horiz-adv-x="788" 
d="M788 1241q0 -31 -11 -63t-34 -54l-178 -178q-24 -24 -54 -43t-64 -32q-34 -14 -69 -21q-35 -8 -69 -8q-43 0 -85 10q-43 9 -82 27q-40 17 -76 42q-36 24 -66 54q17 24 40 55q22 31 47 62t51 59q25 28 48 47v92l70 72q-38 -6 -71 -27q-34 -22 -62 -47l-115 137q9 13 18 22
l21 21l176 177q56 54 126 77q69 23 147 23q44 0 95 -12t95 -37q43 -25 72 -64q28 -40 28 -94q0 -47 -23 -80q-23 -34 -54 -65q35 -28 57 -66zM582 1063q0 27 -9 49t-24 41q-15 18 -34 33t-40 28q20 13 39 28q18 15 33 33q14 18 23 40q8 21 8 47q0 46 -26 80q-27 33 -66 55
q-39 21 -84 31q-46 10 -85 10q-36 0 -73 -7q-38 -7 -74 -21t-67 -35q-32 -22 -56 -50l78 -96q32 26 72 45t84 19q29 0 51 -13t22 -47q0 -24 -15 -38q-15 -15 -37 -22q-22 -8 -45 -10q-24 -2 -42 -1v-101l37 2q15 0 33 -5t34 -15q15 -10 25 -24t10 -32t-7 -29q-8 -12 -19 -19
q-12 -7 -26 -10q-15 -3 -30 -3q-43 0 -81 18q-38 17 -70 41l-82 -106q26 -25 58 -44q32 -20 67 -34t72 -21q37 -8 73 -8q40 0 88 12q47 12 89 36q41 24 69 60z" />
    <glyph glyph-name="acute" unicode="&#xb4;" horiz-adv-x="623" 
d="M623 1788q0 -17 -6 -30q-7 -13 -19 -25l-137 -137q-23 -23 -41 -39t-35 -29q-18 -14 -38 -27q-21 -14 -50 -31q-29 -18 -69 -43t-97 -61h-131l434 440q23 23 50 42q27 18 61 18q32 0 55 -22zM416 1612q0 20 -14 34q-15 13 -35 13q-15 0 -29 -7q-15 -7 -28 -17
q-14 -10 -26 -22l-216 -216h53l219 135q10 6 23 14t25 18t20 22z" />
    <glyph glyph-name="mu" unicode="&#xb5;" horiz-adv-x="1540" 
d="M1153 1083h-428v-524q0 -25 -10 -47q-10 -23 -27 -40q-18 -18 -41 -28t-49 -10t-48 10q-23 10 -40 28q-17 17 -27 40q-10 22 -10 47v524h-444v-1200h446v121q29 -5 59 -9q29 -3 58 -3q115 0 217 45q102 44 179 121q76 76 121 178q44 102 44 217v530zM1540 907
q0 -115 -41 -219q-41 -105 -125 -188l-342 -342q-43 -42 -92 -77q-50 -36 -104 -61q-54 -26 -112 -41q-59 -15 -120 -16l-108 -108h-496v1249l365 364h495v-200l201 200h479v-561z" />
    <glyph glyph-name="paragraph" unicode="&#xb6;" horiz-adv-x="1475" 
d="M1090 -92v1417h-539q-71 0 -137 -19t-124 -53t-106 -82t-82 -106q-35 -58 -54 -124t-19 -136q0 -107 42 -201q41 -95 112 -166t166 -112t202 -41h67v-377h175v1153h122v-1153h175zM1475 240l-365 -361h-225v72l-72 -72h-225v375h-37q-113 0 -213 44t-175 119t-119 175
t-44 213q0 118 50 221q49 103 130 184l357 357q77 75 171 109q93 34 199 34h568v-1470z" />
    <glyph glyph-name="periodcentered" unicode="&#xb7;" horiz-adv-x="872" 
d="M487 623q0 43 -21 77q-22 34 -55 57q-34 22 -74 34q-41 12 -79 12t-78 -12q-41 -12 -74 -34q-34 -23 -55 -57q-22 -34 -22 -77q0 -44 22 -77q21 -34 55 -57q33 -23 74 -35q40 -12 78 -12t79 12q40 12 74 36q33 23 55 57zM872 979q0 -35 -13 -68q-13 -34 -38 -59
l-356 -356q-42 -42 -96 -63t-111 -21q-45 0 -90 14q-46 14 -83 41q-38 27 -61 67q-24 39 -24 89q0 38 17 73q16 34 42 62l357 356q38 38 92 57t106 19q45 0 91 -14q46 -15 83 -42t61 -66z" />
    <glyph glyph-name="cedilla" unicode="&#xb8;" horiz-adv-x="573" 
d="M365 -197q0 34 -14 55t-36 32q-23 12 -50 16q-28 4 -56 4h-27l41 98h-49l-68 -155l11 -7q12 2 25 4q12 3 24 3q34 0 59 -14q25 -13 25 -50q0 -19 -9 -33q-9 -13 -23 -22t-31 -13t-33 -4q-25 0 -50 6t-47 15l-18 -43q28 -13 59 -18t60 -5q30 0 66 6q36 7 68 22
q31 15 52 40zM573 -18q0 -34 -14 -59t-37 -48l-162 -162q-19 -18 -43 -32q-25 -13 -51 -22q-27 -9 -54 -13q-28 -4 -54 -4q-44 0 -82 10t-76 29l43 96l51 51l-24 14l86 195l178 176h112l-40 -94q32 -2 62 -10t54 -24q23 -16 37 -41z" />
    <glyph glyph-name="uni00B9" unicode="&#xb9;" horiz-adv-x="449" 
d="M242 891v633h-76q-2 -27 -13 -51q-12 -24 -30 -42q-19 -19 -43 -31q-24 -13 -51 -16v-493h213zM449 1038l-179 -178h-270v553l315 318h134v-693z" />
    <glyph glyph-name="ordmasculine" unicode="&#xba;" horiz-adv-x="1327" 
d="M942 348v152h-913v-152h913zM934 1038q0 92 -35 174q-36 82 -97 143t-143 97q-82 35 -174 35q-91 0 -172 -36q-82 -36 -143 -97t-97 -143t-36 -173q0 -92 36 -173q35 -82 96 -143t143 -96q81 -36 173 -36t174 36q82 35 143 96t97 143zM1327 682l-364 -365h-963v205
l164 164q-74 68 -115 159t-41 193q0 103 43 192q42 89 113 161q87 88 173 174q86 85 173 172q31 31 70 57q38 25 80 42t87 27q44 9 89 9q103 0 191 -38t153 -104t102 -155q37 -90 37 -193q0 -44 -9 -88q-10 -44 -27 -85q-18 -42 -43 -79q-25 -38 -56 -69l-174 -174h317v-205
zM604 1038q0 -24 -9 -45q-10 -22 -26 -38t-37 -25q-22 -10 -47 -10q-24 0 -45 10q-22 9 -38 25t-25 38q-10 21 -10 45q0 25 10 47q9 21 25 37t38 26q21 9 45 9q25 0 47 -9q21 -10 37 -26t26 -37z" />
    <glyph glyph-name="guillemotright" unicode="&#xbb;" horiz-adv-x="1317" 
d="M571 553l-252 340h-270l252 -340l-238 -324h271zM924 553l-254 340h-271l252 -340l-237 -324h270zM1317 907l-172 -229q-12 -17 -21 -31q-10 -15 -19 -28q-9 -14 -19 -27q-10 -14 -25 -29l-363 -362h-344l23 28l-29 -28h-344l260 352l-264 356l371 371h319l15 -18l16 18
h321z" />
    <glyph glyph-name="onequarter" unicode="&#xbc;" horiz-adv-x="2085" 
d="M360 436v959h-124q-3 -41 -20 -77q-18 -37 -45 -64q-28 -28 -64 -45q-37 -18 -78 -21v-752h331zM1307 1325h-263l-817 -1296h262zM1780 174v289h-156v514h-336l-399 -504v-299h407v-154h328v154h156zM2085 428l-440 -438h-379v155h-406v207l-354 -352h-334l340 537
l-131 -131h-381v802l479 482h176v-926l373 590h2l354 356h332l-444 -706l268 268h379v-514h166v-330zM1296 463h-174l174 225v-225z" />
    <glyph glyph-name="onehalf" unicode="&#xbd;" horiz-adv-x="2220" 
d="M360 436v959h-124q-3 -41 -20 -77q-18 -37 -45 -64q-28 -28 -64 -45q-37 -18 -78 -21v-752h331zM1307 1325h-263l-817 -1296h262zM1925 20v299h-266l141 152q22 24 42 51q19 27 34 57q15 29 24 61t9 65q0 77 -33 134t-86 95q-54 37 -121 56q-67 18 -135 18
q-56 0 -115 -11q-60 -11 -117 -32t-108 -53t-88 -74l135 -166q18 15 46 33q27 17 58 32q30 15 60 25t53 10q31 0 55 -15q23 -15 23 -50q0 -14 -7 -28q-7 -15 -17 -28q-11 -14 -22 -26t-20 -21l-329 -336v-248h784zM2220 262l-274 -272h-836v291l338 344q7 6 17 16
q9 10 18 22q9 11 16 23q6 12 6 21q0 21 -14 28q-14 6 -33 6q-23 0 -53 -11q-31 -12 -62 -29q-32 -17 -60 -36q-28 -20 -46 -36l-113 141l-172 -272q-12 -20 -21 -37q-10 -17 -19 -33q-10 -17 -20 -33q-11 -16 -26 -35t-29 -33q-15 -15 -29 -28q-14 -14 -29 -27
q-16 -14 -34 -32l-239 -240h-334l340 537l-131 -131h-381v802l479 482h176v-926l248 393q18 29 33 54q14 24 28 47q13 23 28 46t36 50q15 20 29 35q13 14 28 27q14 13 29 27q15 13 33 30l237 237h332l-377 -598q11 11 21 22q9 10 20 19q88 74 197 112t221 38q78 0 152 -21
q73 -21 130 -63q56 -42 90 -106t34 -150q0 -56 -20 -103q-20 -48 -50 -90q-31 -42 -68 -80q-38 -39 -73 -76h227v-352z" />
    <glyph glyph-name="threequarters" unicode="&#xbe;" horiz-adv-x="2433" 
d="M2433 434l-440 -444h-379v155h-406v197l-342 -342h-334l404 639l-123 -123q-35 -35 -77 -61q-43 -26 -90 -43t-97 -25t-98 -8q-62 0 -123 14q-62 13 -120 39q-59 25 -112 60t-96 79l274 349v104l134 133q-67 -2 -126 -35q-60 -33 -108 -75l-162 196l303 307q39 41 88 71
t103 50q53 20 110 30q57 9 113 9q44 0 93 -7q49 -8 97 -23q47 -16 90 -40t76 -57q32 -33 51 -76t19 -96q0 -37 -10 -67t-26 -56q-17 -26 -38 -49q-22 -23 -45 -47q48 -37 82 -87q33 -51 41 -114l152 242q11 18 20 33q8 15 16 29t17 29q9 14 22 30q16 19 31 34q14 14 28 27
l29 27q15 14 33 31l238 237h332l-424 -674l235 236h379v-514h166v-324zM2128 174v289h-156v514h-336l-399 -504v-299h405v-154h330v154h156zM872 707q0 39 -12 72q-13 33 -34 61q-21 27 -48 51q-28 23 -59 43q29 19 56 42q26 22 47 49q20 26 32 57t12 69q0 47 -18 86
q-19 38 -50 68t-71 52q-41 22 -85 36t-89 21t-84 7q-124 0 -228 -45q-105 -46 -192 -133l127 -156q48 41 109 70t123 29q21 0 40 -4q18 -4 33 -13q14 -10 23 -25q8 -16 8 -40q0 -26 -15 -45q-16 -19 -38 -31q-23 -12 -49 -18t-48 -6h-57v-162h64q21 0 46 -7q24 -7 46 -20
q22 -14 37 -33q14 -19 14 -43q0 -25 -10 -41q-10 -17 -26 -27q-17 -10 -38 -14t-43 -4q-63 0 -120 26t-105 66l-131 -172q40 -37 89 -67t103 -51q54 -22 110 -33q56 -12 110 -12q42 0 90 8q47 8 94 25q46 16 89 41t76 58t53 74zM1667 1325h-264l-817 -1296h264zM1642 463
h-172l172 225v-225z" />
    <glyph glyph-name="questiondown" unicode="&#xbf;" horiz-adv-x="1518" 
d="M360 1149q0 -44 22 -77q21 -34 55 -57t75 -34q40 -12 78 -12t79 12q40 11 74 34q33 23 55 57q21 33 21 77t-21 78q-22 33 -55 56q-34 23 -74 35q-41 11 -79 11t-78 -12q-41 -12 -75 -35t-55 -56zM424 989q-40 28 -66 69t-26 91q0 40 17 74q16 33 44 61l357 356
q40 41 90 58q50 16 106 16q48 0 94 -14t83 -41q36 -27 59 -67q22 -40 22 -93q0 -37 -15 -70q-16 -33 -44 -59l-115 -113h158v-370l-215 -217q9 -2 19 -3t20 -1q39 0 78 14q38 13 74 34t68 47q31 25 56 50l230 -279l-367 -366q-53 -53 -120 -97t-142 -76t-154 -50
q-79 -17 -155 -17q-61 0 -128 11t-131 34q-65 23 -123 58t-102 83q-44 47 -70 108q-26 60 -26 134q0 75 25 147q24 71 81 128l220 219v43zM31 354q0 -69 25 -125q25 -57 67 -101q42 -45 97 -77t116 -53t124 -31t120 -10q73 0 147 16t145 45q70 29 134 70q64 40 116 90
l-190 234q-23 -23 -54 -47q-32 -24 -67 -43t-71 -31q-37 -12 -70 -12q-29 0 -58 6q-30 6 -54 21q-24 14 -39 37t-15 58q0 39 23 68q22 28 55 47q33 18 71 27q38 8 70 8h80v321h-449v-172q-74 -10 -134 -36t-102 -69t-64 -103z" />
    <glyph glyph-name="Agrave" unicode="&#xc0;" 
d="M1016 1712h442l488 -1347l-369 -365h-539l-49 168h-248l-172 -168h-569l489 1350l158 157q-15 9 -30 20q-16 10 -28 22q-13 12 -21 28q-9 15 -9 35q0 32 23 53l178 178q12 13 26 18t29 5q20 0 38 -7q17 -7 32 -18t29 -24q14 -14 26 -27zM1550 29l-469 1296h-569
l-469 -1296h508l49 170h412l49 -170h489zM938 1397l-197 194q-10 10 -21 22q-12 12 -25 22t-27 17t-29 7q-22 0 -36 -13q-15 -14 -15 -34q0 -14 9 -26q8 -12 20 -22t26 -18q13 -8 23 -14l217 -135h55zM924 508h-234l117 407z" />
    <glyph glyph-name="Aacute" unicode="&#xc1;" 
d="M1243 1788q0 -17 -6 -30t-18 -25l-21 -21h260l488 -1347l-369 -365h-539l-49 168h-248l-172 -168h-569l489 1350l363 362h109l94 94q23 23 50 42q26 18 60 18q32 0 55 -22zM1550 29l-469 1296h-569l-469 -1296h508l49 170h412l49 -170h489zM1036 1612q0 20 -14 34
q-15 13 -35 13q-15 0 -29 -7q-15 -7 -28 -17q-14 -10 -25 -22l-22 -22l-195 -194h53l220 135q10 6 23 14t25 18q11 10 19 22zM924 508h-234l117 407z" />
    <glyph glyph-name="Acircumflex" unicode="&#xc2;" 
d="M1163 1712h295l488 -1347l-369 -365h-539l-49 168h-248l-172 -168h-569l489 1350l256 338q17 18 30 30t30 29l119 119h123zM1550 29l-469 1296h-569l-469 -1296h508l49 170h412l49 -170h489zM1051 1399l-197 260h-92l-199 -260h53l191 164l190 -164h54zM924 508h-234
l117 407z" />
    <glyph glyph-name="Atilde" unicode="&#xc3;" 
d="M1272 1821q-3 -31 -7 -57q-5 -27 -16 -52h209l488 -1347l-369 -365h-539l-49 168h-248l-172 -168h-569l489 1350l66 65h-45q2 25 6 47q3 22 10 42q6 20 18 39q12 18 31 36l179 178q28 29 62 42q33 13 73 13q34 0 59 -8q25 -9 48 -20q22 -11 45 -23q22 -13 51 -20l79 80
h101zM1550 29l-469 1296h-569l-469 -1296h508l49 170h412l49 -170h489zM1018 1614q-6 -32 -26 -58q-21 -26 -56 -26q-27 0 -52 12q-26 12 -52 26q-27 14 -57 26t-66 12q-34 0 -63 -13q-30 -13 -52 -35t-35 -51q-14 -30 -16 -63h43q8 34 34 56q25 22 60 22q26 0 50 -12
t49 -27t53 -27t63 -12t65 14q29 14 51 38t35 55q13 30 15 63h-43zM924 508h-234l117 407z" />
    <glyph glyph-name="Adieresis" unicode="&#xc4;" 
d="M1946 365l-369 -365h-539l-49 168h-248l-172 -168h-569l489 1350l136 135q-5 9 -7 20q-2 10 -2 23q0 20 8 38q7 17 21 29l178 179q30 28 68 28q29 0 53 -16q24 -17 35 -43q23 23 44 41t56 18q19 0 36 -7t30 -19q13 -13 21 -29q8 -17 10 -35h282zM1550 29l-469 1296h-569
l-469 -1296h508l49 170h412l49 -170h489zM778 1528q0 28 -19 48q-20 19 -46 19q-28 0 -48 -19q-20 -20 -20 -48q0 -26 20 -46t48 -20q26 0 46 20zM967 1528q0 28 -19 48q-19 19 -47 19t-46 -19q-19 -20 -19 -48q0 -26 19 -46q18 -20 46 -20t47 20zM924 508h-234l117 407z
" />
    <glyph glyph-name="Aring" unicode="&#xc5;" 
d="M1204 1712h254l488 -1347l-369 -365h-539l-49 168h-248l-172 -168h-569l489 1350l117 116q-12 34 -12 74q0 47 20 88q20 40 52 72l178 178q29 29 64 42t77 13h2q46 -1 86 -17q39 -17 68 -46t46 -68q16 -39 17 -84v-6zM1550 29l-469 1296h-569l-469 -1296h508l49 170h412
l49 -170h489zM809 1726q-38 0 -72 -14q-34 -15 -59 -40q-26 -26 -40 -60q-15 -34 -15 -72q0 -39 15 -73q14 -34 40 -59q25 -25 59 -39q34 -15 72 -15q39 0 73 15q34 14 59 39t40 59q14 34 14 73q0 38 -14 72q-15 34 -40 60q-25 25 -59 40zM924 508h-234l117 407zM809 1642
q21 0 40 -8t34 -22q14 -14 22 -32q8 -19 8 -40t-8 -40t-22 -33q-15 -15 -34 -23t-40 -8t-39 8q-19 8 -33 23q-14 14 -22 33t-8 40t8 40q8 18 22 32t33 22z" />
    <glyph glyph-name="AE" unicode="&#xc6;" horiz-adv-x="2234" 
d="M2234 362l-364 -362h-963v203h-180l-205 -203h-522l520 897q38 66 68 121q29 55 58 108q29 52 61 106q31 53 73 116q3 4 29 31l64 64q37 37 81 80l82 82l107 107h1091v-457l-233 -233q-2 -35 -11 -62q-9 -28 -25 -51t-36 -44q-21 -22 -45 -46h350v-457zM1847 29v403h-493
v41h59q42 0 79 16q36 16 64 44t44 65q16 36 16 78q0 41 -16 78t-44 65q-28 27 -64 44q-37 16 -79 16h-59v41h493v405h-1046l-750 -1296h455l119 202h313v-202h909zM938 401h-215l215 371v-371z" />
    <glyph glyph-name="Ccedilla" unicode="&#xc7;" horiz-adv-x="1696" 
d="M1100 -12q0 -34 -14 -59t-37 -48l-162 -162q-19 -18 -43 -32q-25 -13 -51 -22q-27 -9 -55 -13t-54 -4q-43 0 -81 10t-77 29l43 96l52 51l-25 14l51 119q-90 8 -173 38t-155 79q-72 48 -130 112q-59 64 -101 140t-65 163q-23 86 -23 179q0 158 63 289t173 241
q62 62 122 127q59 65 120 125t126 113q64 53 137 93q72 39 154 62t178 23q98 0 188 -25q89 -25 168 -71t145 -112t118 -148q-20 -20 -55 -57q-36 -37 -79 -81q-44 -45 -91 -92q-48 -47 -92 -87q-45 -41 -83 -70q-38 -30 -61 -39l465 -295l-447 -475q-38 -42 -81 -76
q-44 -34 -91 -62q10 -15 17 -32zM891 -190q0 34 -14 54q-14 21 -36 32q-23 12 -50 16q-28 4 -56 4h-26l32 78q84 3 165 26q80 23 152 64q71 41 132 99q61 57 106 128l-434 275q-23 -37 -61 -58q-39 -22 -84 -22q-36 0 -67 14q-32 13 -56 37q-24 23 -37 55q-14 31 -14 66
q0 36 14 68q14 31 38 55t56 38q31 13 66 13q45 0 84 -21q38 -22 61 -59l434 275q-47 73 -110 133q-64 59 -139 100t-159 64q-84 22 -171 22q-94 0 -181 -25q-88 -25 -164 -70q-77 -45 -140 -108t-108 -139q-45 -77 -70 -164q-25 -88 -25 -182q0 -92 24 -177q23 -86 67 -161
q43 -75 104 -137q60 -62 134 -107q73 -45 158 -71q84 -26 176 -29l-59 -137l10 -6q12 2 25 4q12 2 24 2q34 0 59 -14q25 -13 25 -50q0 -19 -9 -33q-9 -13 -23 -22q-14 -8 -31 -12t-33 -4q-25 0 -50 5q-25 6 -46 15l-19 -43q28 -12 59 -18q31 -5 60 -5q30 0 66 6q36 7 68 22
q31 15 52 40z" />
    <glyph glyph-name="Egrave" unicode="&#xc8;" horiz-adv-x="1327" 
d="M727 1712h600v-457l-233 -233q-2 -45 -19 -83q-18 -39 -49 -71l-49 -49h350v-450l-364 -369h-963v1348l270 270q0 14 6 25t17 22l178 178q12 13 26 18t29 5q20 0 38 -7q17 -7 33 -18q15 -11 29 -24q13 -14 25 -27zM940 29v403h-494v41h60q41 0 78 16t65 44q27 28 44 65
q16 36 16 78q0 41 -16 78q-17 37 -44 65q-28 27 -65 44q-37 16 -78 16h-60v41h494v405h-911v-1296h911zM649 1397l-196 194l-22 22q-12 12 -25 22t-27 17t-29 7q-21 0 -36 -13q-15 -14 -15 -34q0 -14 9 -26q8 -12 20 -22t26 -18q13 -8 23 -14l217 -135h55z" />
    <glyph glyph-name="Eacute" unicode="&#xc9;" horiz-adv-x="1327" 
d="M975 1788q0 -17 -6 -30t-19 -25l-20 -21h397v-457l-233 -233q-2 -45 -19 -83q-18 -39 -49 -71l-49 -49h350v-450l-364 -369h-963v1348l365 364h327l94 94q23 23 50 42q27 18 61 18q32 0 55 -22zM940 29v403h-494v41h60q41 0 78 16t65 44q27 28 44 65q16 36 16 78
q0 41 -16 78q-17 37 -44 65q-28 27 -65 44q-37 16 -78 16h-60v41h494v405h-911v-1296h911zM768 1612q0 20 -14 34q-15 13 -35 13q-15 0 -29 -7q-15 -7 -28 -17q-14 -10 -26 -22l-216 -216h53l219 135q10 6 23 14t25 18t20 22z" />
    <glyph glyph-name="Ecircumflex" unicode="&#xca;" horiz-adv-x="1327" 
d="M889 1712h438v-457l-233 -233q-2 -45 -19 -83q-18 -39 -49 -71l-49 -49h350v-450l-364 -369h-963v1348l365 364h129l155 154h123zM940 29v403h-494v41h60q41 0 78 16t65 44q27 28 44 65q16 36 16 78q0 41 -16 78q-17 37 -44 65q-28 27 -65 44q-37 16 -78 16h-60v41h494
v405h-911v-1296h911zM776 1399l-196 260h-93l-198 -260h53l190 164l191 -164h53z" />
    <glyph glyph-name="Edieresis" unicode="&#xcb;" horiz-adv-x="1327" 
d="M1327 369l-364 -369h-963v1348l365 364h122l62 62q28 28 67 28q29 0 54 -16q24 -17 35 -43q22 23 44 41q21 18 56 18q19 0 36 -7t30 -19q12 -13 20 -29q8 -17 10 -35h426v-457l-233 -233q-2 -45 -19 -83q-18 -39 -49 -71l-49 -49h350v-450zM940 29v403h-494v41h60
q41 0 78 16t65 44q27 28 44 65q16 36 16 78q0 41 -16 78q-17 37 -44 65q-28 27 -65 44q-37 16 -78 16h-60v41h494v405h-911v-1296h911zM504 1528q0 28 -20 48q-20 19 -46 19q-28 0 -47 -19q-20 -20 -20 -48q0 -26 20 -46q19 -20 47 -20q26 0 46 20zM692 1528q0 28 -18 48
q-19 19 -47 19t-47 -19q-19 -20 -19 -48q0 -26 19 -46t47 -20t47 20z" />
    <glyph glyph-name="Igrave" unicode="&#xcc;" horiz-adv-x="881" 
d="M483 1712h398v-1350l-365 -362h-516v1348l143 143l-26 16q-15 9 -30 20q-16 10 -29 22q-14 12 -22 28q-9 15 -9 35q0 31 22 53l178 178q13 13 27 18q13 5 29 5q20 0 38 -7q17 -7 32 -18t29 -24q14 -14 26 -27zM494 29v1296h-465v-1296h465zM406 1397l-197 194l-22 22
q-12 12 -25 22t-27 17t-29 7q-21 0 -36 -13q-15 -14 -15 -34q0 -14 9 -26q8 -12 20 -22t26 -18q13 -8 23 -14l217 -135h56z" />
    <glyph glyph-name="Iacute" unicode="&#xcd;" horiz-adv-x="881" 
d="M705 1788q0 -17 -6 -30q-7 -13 -19 -25l-21 -21h222v-1350l-365 -362h-516v1348l365 364h57l94 94q23 23 50 42q27 18 61 18q32 0 55 -22zM494 29v1296h-465v-1296h465zM498 1612q0 20 -14 34q-15 13 -35 13q-15 0 -29 -7q-15 -7 -28 -17q-14 -10 -26 -22l-216 -216h53
l219 135q10 6 23 14t25 18t20 22z" />
    <glyph glyph-name="Icircumflex" unicode="&#xce;" horiz-adv-x="881" 
d="M627 1712h254v-1350l-365 -362h-516v1348l23 22h-56l242 318q8 9 17 18l27 27q18 18 50 49l84 84h123zM494 29v1296h-465v-1296h465zM514 1399l-197 260h-92l-198 -260h53l190 164l191 -164h53z" />
    <glyph glyph-name="Idieresis" unicode="&#xcf;" horiz-adv-x="881" 
d="M881 362l-365 -362h-516v1348l106 108q-32 27 -32 72q0 20 7 38q7 17 21 29l179 179q28 28 67 28q29 0 53 -16q24 -17 35 -43q23 23 44 41t57 18q19 0 36 -7t30 -19q12 -13 20 -29q8 -17 10 -35h248v-1350zM494 29v1296h-465v-1296h465zM236 1528q0 28 -20 48
q-20 19 -46 19q-28 0 -48 -19q-20 -20 -20 -48q0 -26 20 -46t48 -20q26 0 46 20zM424 1528q0 28 -19 48q-19 19 -47 19q-27 0 -46 -19q-19 -20 -19 -48q0 -26 19 -46t46 -20q28 0 47 20z" />
    <glyph glyph-name="Eth" unicode="&#xd0;" horiz-adv-x="1618" 
d="M1233 676q0 89 -23 172q-24 82 -66 155q-43 72 -102 131t-131 102q-73 42 -155 66q-83 23 -172 23h-473v-627h-82v-45h82v-624h473q89 0 171 24q82 23 155 65q72 42 132 102q59 59 102 131q42 72 66 154zM1618 1020q0 -62 -13 -124q-14 -62 -38 -121q-25 -59 -59 -112
q-35 -54 -78 -98q-90 -93 -180 -182t-181 -180q-99 -97 -222 -150t-263 -53h-504v625h-80v96l80 80v545l364 366h496q144 0 268 -55q123 -55 215 -149q91 -94 143 -220zM739 676q0 -32 -12 -61t-33 -50q-21 -22 -49 -34q-29 -13 -61 -13h-41v135h69v45h-69v136h41
q32 0 61 -12q28 -13 49 -34q21 -22 33 -51z" />
    <glyph glyph-name="Ntilde" unicode="&#xd1;" horiz-adv-x="1634" 
d="M1143 1821q-2 -25 -5 -47q-4 -23 -10 -43q-7 -21 -18 -39q-11 -19 -29 -37l58 57h495v-1350l-364 -362h-543l-84 145l-147 -145h-496v1346l365 366h215l45 45q28 29 62 42q33 13 73 13q34 0 59 -8q25 -9 48 -20q22 -11 45 -23q22 -13 51 -20l79 80h101zM1249 29v1296
h-444v-489l-275 489h-499v-1296h444v481l268 -481h506zM889 1614q-6 -32 -26 -58q-21 -26 -56 -26q-27 0 -52 12q-26 12 -52 26q-27 14 -57 26t-66 12q-34 0 -63 -13q-30 -13 -52 -35t-35 -51q-14 -30 -16 -63h43q8 34 34 56q25 22 60 22q26 0 50 -12t49 -27t53 -27t63 -12
t65 14q29 14 51 38t35 55q13 30 15 63h-43z" />
    <glyph glyph-name="Ograve" unicode="&#xd2;" horiz-adv-x="1790" 
d="M969 1743l52 6q26 2 52 2q100 0 193 -27q92 -27 172 -75q79 -49 144 -116q65 -68 112 -149q46 -82 71 -174q25 -93 25 -192q0 -136 -50 -256q-51 -121 -147 -217l-362 -367q-102 -103 -235 -159t-279 -56q-98 0 -189 25q-92 26 -171 73q-80 47 -146 113q-66 65 -112 144
q-47 79 -73 171q-26 91 -26 189q0 155 60 286q59 130 167 236l351 350q-22 14 -39 34q-17 19 -17 48q0 31 23 54l178 178q12 12 26 17t29 5q20 0 38 -7q17 -7 32 -18t29 -24q14 -14 26 -27zM1403 678q0 94 -24 182q-25 87 -70 164q-45 76 -107 139q-63 63 -139 108
q-77 45 -164 70q-88 25 -182 25t-181 -25q-88 -25 -164 -70q-77 -45 -140 -108t-108 -139q-45 -77 -70 -164q-25 -88 -25 -182t25 -181q25 -88 70 -164t108 -138q63 -63 140 -107q76 -45 164 -69q87 -25 181 -25t182 25q87 24 164 69q76 45 139 108q62 62 107 138t70 163z
M901 1417l-196 195l-22 22q-12 11 -25 21t-27 17t-29 7q-22 0 -36 -13q-15 -14 -15 -34q0 -14 9 -26q8 -12 20 -21q12 -10 26 -18q13 -9 23 -15l217 -135h55zM889 678q0 -35 -13 -66q-14 -32 -37 -55q-24 -24 -55 -37q-32 -14 -67 -14q-36 0 -67 14q-32 13 -56 37
q-24 23 -37 55q-14 31 -14 66q0 36 14 68q14 31 38 55t56 38q31 13 66 13t67 -13q31 -14 55 -38q23 -24 37 -55z" />
    <glyph glyph-name="Oacute" unicode="&#xd3;" horiz-adv-x="1790" 
d="M1186 1823q0 -17 -6 -30t-19 -26l-10 -10q-5 -4 -10 -10q138 -13 257 -76q118 -63 206 -161q87 -99 137 -225q49 -127 49 -267q0 -136 -50 -256q-51 -121 -147 -217l-362 -367q-102 -103 -235 -159t-279 -56q-98 0 -189 25q-92 26 -171 73q-80 47 -146 113
q-66 65 -112 144q-47 79 -73 171q-26 91 -26 189q0 155 60 286q59 130 167 236l344 344q65 65 145 111q79 45 167 69l114 117q23 23 50 42q27 18 61 18q32 0 55 -22zM1403 678q0 94 -24 182q-25 87 -70 164q-45 76 -107 139q-63 63 -139 108q-77 45 -164 70q-88 25 -182 25
t-181 -25q-88 -25 -164 -70q-77 -45 -140 -108t-108 -139q-45 -77 -70 -164q-25 -88 -25 -182t25 -181q25 -88 70 -164t108 -138q63 -63 140 -107q76 -45 164 -69q87 -25 181 -25t182 25q87 24 164 69q76 45 139 108q62 62 107 138t70 163zM979 1647q0 20 -14 34
q-15 13 -35 13q-15 0 -29 -7q-15 -7 -28 -17q-14 -10 -26 -22l-216 -216h53l219 135q10 6 23 14t25 18t20 22zM889 678q0 -35 -13 -66q-14 -32 -37 -55q-24 -24 -55 -37q-32 -14 -67 -14q-36 0 -67 14q-32 13 -56 37q-24 23 -37 55q-14 31 -14 66q0 36 14 68q14 31 38 55
t56 38q31 13 66 13t67 -13q31 -14 55 -38q23 -24 37 -55z" />
    <glyph glyph-name="Ocircumflex" unicode="&#xd4;" horiz-adv-x="1790" 
d="M1059 1751h14q100 0 193 -27q92 -27 172 -75q79 -49 144 -116q65 -68 112 -149q46 -82 71 -174q25 -93 25 -192q0 -136 -50 -256q-51 -121 -147 -217l-362 -367q-102 -103 -235 -159t-279 -56q-98 0 -189 25q-92 26 -171 73q-80 47 -146 113q-66 65 -112 144
q-47 79 -73 171q-26 91 -26 189q0 155 60 286q59 130 167 236l172 172l256 336q9 9 18 19l27 27q18 17 50 48l84 84h122zM1403 678q0 94 -24 182q-25 87 -70 164q-45 76 -107 139q-63 63 -139 108q-77 45 -164 70q-88 25 -182 25t-181 -25q-88 -25 -164 -70
q-77 -45 -140 -108t-108 -139q-45 -77 -70 -164q-25 -88 -25 -182t25 -181q25 -88 70 -164t108 -138q63 -63 140 -107q76 -45 164 -69q87 -25 181 -25t182 25q87 24 164 69q76 45 139 108q62 62 107 138t70 163zM961 1419l-197 260h-92l-199 -260h53l191 164l190 -164h54z
M889 678q0 -35 -13 -66q-14 -32 -37 -55q-24 -24 -55 -37q-32 -14 -67 -14q-36 0 -67 14q-32 13 -56 37q-24 23 -37 55q-14 31 -14 66q0 36 14 68q14 31 38 55t56 38q31 13 66 13t67 -13q31 -14 55 -38q23 -24 37 -55z" />
    <glyph glyph-name="Otilde" unicode="&#xd5;" horiz-adv-x="1790" 
d="M1174 1827q-4 -22 -6 -43q-3 -21 -9 -39q90 -11 172 -43q82 -33 152 -83q70 -51 127 -116q57 -66 97 -143q40 -78 62 -164q21 -87 21 -178q0 -136 -50 -256q-51 -121 -147 -217l-362 -367q-102 -103 -235 -159t-279 -56q-98 0 -189 25q-92 26 -171 73q-80 47 -146 113
q-66 65 -112 144q-47 79 -73 171q-26 91 -26 189q0 155 60 286q59 130 167 236l222 221h-37q2 25 6 47q3 22 10 42q6 20 18 39q12 18 31 36l178 178q28 29 62 43q33 13 74 13q34 0 59 -8q25 -9 48 -20q22 -12 45 -24q22 -13 50 -20l80 80h101zM1403 678q0 94 -24 182
q-25 87 -70 164q-45 76 -107 139q-63 63 -139 108q-77 45 -164 70q-88 25 -182 25t-181 -25q-88 -25 -164 -70q-77 -45 -140 -108t-108 -139q-45 -77 -70 -164q-25 -88 -25 -182t25 -181q25 -88 70 -164t108 -138q63 -63 140 -107q76 -45 164 -69q87 -25 181 -25t182 25
q87 24 164 69q76 45 139 108q62 62 107 138t70 163zM920 1620q-3 -16 -10 -31t-17 -27t-23 -19q-14 -7 -32 -7q-27 0 -52 12q-26 12 -53 26t-57 26t-66 12q-34 0 -63 -13t-51 -35t-35 -51q-14 -30 -17 -63h43q8 34 34 56t61 22q26 0 50 -12t49 -27t53 -27t63 -12t65 14
q29 14 51 38q21 24 34 55q13 30 16 63h-43zM889 678q0 -35 -13 -66q-14 -32 -37 -55q-24 -24 -55 -37q-32 -14 -67 -14q-36 0 -67 14q-32 13 -56 37q-24 23 -37 55q-14 31 -14 66q0 36 14 68q14 31 38 55t56 38q31 13 66 13t67 -13q31 -14 55 -38q23 -24 37 -55z" />
    <glyph glyph-name="Odieresis" unicode="&#xd6;" horiz-adv-x="1790" 
d="M1790 1018q0 -136 -50 -256q-51 -121 -147 -217l-362 -367q-102 -103 -235 -159t-279 -56q-98 0 -189 25q-92 26 -171 73q-80 47 -146 113q-66 65 -112 144q-47 79 -73 171q-26 91 -26 189q0 155 60 286q59 130 167 236l303 303q-2 6 -3 13q-1 6 -1 12q0 20 8 38
q7 17 21 29l178 179q30 28 68 28q29 0 53 -16q24 -17 35 -43q23 23 44 41t56 18q28 0 50 -14t34 -37q100 0 193 -27q92 -28 172 -76q79 -49 144 -116q65 -68 112 -149q46 -81 71 -173zM1403 678q0 94 -24 182q-25 87 -70 164q-45 76 -107 139q-63 63 -139 108
q-77 45 -164 70q-88 25 -182 25t-181 -25q-88 -25 -164 -70q-77 -45 -140 -108t-108 -139q-45 -77 -70 -164q-25 -88 -25 -182t25 -181q25 -88 70 -164t108 -138q63 -63 140 -107q76 -45 164 -69q87 -25 181 -25t182 25q87 24 164 69q76 45 139 108q62 62 107 138t70 163z
M688 1528q0 28 -19 48q-20 19 -46 19q-28 0 -48 -19q-20 -20 -20 -48q0 -26 20 -46t48 -20q13 0 25 6q11 5 20 14t15 21zM877 1528q0 28 -19 48q-19 19 -47 19t-47 -19q-19 -20 -19 -48q0 -26 19 -46t47 -20t47 20zM889 678q0 -35 -13 -66q-14 -32 -37 -55q-24 -24 -55 -37
q-32 -14 -67 -14q-36 0 -67 14q-32 13 -56 37q-24 23 -37 55q-14 31 -14 66q0 36 14 68q14 31 38 55t56 38q31 13 66 13t67 -13q31 -14 55 -38q23 -24 37 -55z" />
    <glyph glyph-name="multiply" unicode="&#xd7;" horiz-adv-x="1176" 
d="M778 465l-188 188l188 189l-180 178l-188 -189l-189 189l-180 -178l190 -189l-190 -188l180 -180l189 188l188 -188zM1176 1198l-189 -190l189 -187l-578 -577l-188 188l-189 -188l-221 221l188 188l-188 189l578 577l188 -190l188 190z" />
    <glyph glyph-name="Oslash" unicode="&#xd8;" horiz-adv-x="1788" 
d="M1405 678q0 130 -46 246q-47 116 -132 215l123 123h-97l-75 -74q-97 85 -213 132q-117 46 -248 46q-94 0 -181 -25q-88 -25 -164 -70q-77 -45 -140 -108t-108 -139q-45 -77 -70 -164q-25 -88 -25 -182q0 -130 47 -247q46 -117 133 -214l-125 -123h96l78 74
q97 -84 213 -129t246 -45q94 0 182 25q87 24 164 69q76 44 139 107q63 62 108 138t70 164zM1788 1032q0 -67 -13 -134t-38 -130q-25 -64 -61 -121q-37 -58 -85 -106l-352 -353q-106 -106 -236 -165q-131 -60 -286 -60q-125 0 -243 43q-119 43 -216 121l-65 -64h-181l156 154
q-82 97 -125 216q-43 118 -43 245q0 157 61 287t170 239l175 175q86 87 174 173q48 48 106 85t122 63q63 25 131 38q67 13 134 13q124 0 245 -44q120 -45 216 -124l65 66h183l-158 -156q81 -97 123 -216zM891 678q0 -35 -13 -66q-14 -32 -38 -55q-24 -24 -55 -37
q-32 -14 -68 -14q-25 0 -50 7t-46 19l241 242zM573 582q-30 42 -30 96q0 36 14 68q14 31 38 55t56 38q31 13 66 13q26 0 51 -6q25 -7 47 -23z" />
    <glyph glyph-name="Ugrave" unicode="&#xd9;" horiz-adv-x="1540" 
d="M850 1712h10v-10l94 -96l107 106h479v-803q0 -118 -45 -224t-127 -189q-87 -90 -174 -175t-174 -171q-87 -90 -195 -138q-108 -49 -233 -49q-122 0 -230 47q-108 46 -188 127q-81 80 -127 187q-47 107 -47 229v793l365 366h98l131 131q12 13 26 18t29 5q20 0 38 -7
q17 -7 32 -18t29 -24q14 -14 26 -27zM1153 1325h-428v-766q0 -25 -10 -47q-10 -23 -27 -40q-17 -18 -40 -28t-48 -10q-26 0 -48 10q-23 10 -40 28q-17 17 -27 40q-10 22 -10 47v766h-444v-772q0 -116 44 -218t121 -177q76 -76 178 -120t218 -44q115 0 217 44t179 120
q76 76 121 178q44 102 44 217v772zM772 1397l-197 194q-10 10 -21 22q-12 12 -25 22t-27 17t-29 7q-22 0 -36 -13q-15 -14 -15 -34q0 -14 9 -26q8 -12 20 -22t26 -18q13 -8 23 -14l217 -135h55z" />
    <glyph glyph-name="Uacute" unicode="&#xda;" horiz-adv-x="1540" 
d="M1020 1788q0 -17 -6 -30t-19 -25l-135 -136v-86l201 201h479v-803q0 -118 -45 -224t-127 -189q-87 -90 -174 -175t-174 -171q-87 -90 -195 -138q-108 -49 -233 -49q-122 0 -230 47q-108 46 -188 127q-81 80 -127 187q-47 107 -47 229v793l365 366h372l94 94q23 23 50 42
q27 18 61 18q32 0 55 -22zM1153 1325h-428v-766q0 -25 -10 -47q-10 -23 -27 -40q-17 -18 -40 -28t-48 -10q-26 0 -48 10q-23 10 -40 28q-17 17 -27 40q-10 22 -10 47v766h-444v-772q0 -116 44 -218t121 -177q76 -76 178 -120t218 -44q115 0 217 44t179 120q76 76 121 178
q44 102 44 217v772zM813 1612q0 20 -14 34q-15 13 -35 13q-15 0 -29 -7q-15 -7 -28 -17q-14 -10 -26 -22l-216 -216h53l219 135q10 6 23 14t25 18t20 22z" />
    <glyph glyph-name="Ucircumflex" unicode="&#xdb;" horiz-adv-x="1540" 
d="M999 1651l62 61h479v-803q0 -118 -45 -224t-127 -189q-87 -90 -174 -175t-174 -171q-87 -90 -195 -138q-108 -49 -233 -49q-122 0 -230 47q-108 46 -188 127q-81 80 -127 187q-47 107 -47 229v793l365 366h194l156 154h123zM1153 1325h-428v-766q0 -25 -10 -47
q-10 -23 -27 -40q-17 -18 -40 -28t-48 -10q-26 0 -48 10q-23 10 -40 28q-17 17 -27 40q-10 22 -10 47v766h-444v-772q0 -116 44 -218t121 -177q76 -76 178 -120t218 -44q115 0 217 44t179 120q76 76 121 178q44 102 44 217v772zM842 1399l-197 260h-92l-199 -260h54l190 164
l190 -164h54z" />
    <glyph glyph-name="Udieresis" unicode="&#xdc;" horiz-adv-x="1540" 
d="M967 1706q0 -20 -7 -37q-8 -17 -22 -31l-78 -77v-50l201 201h479v-803q0 -118 -45 -224t-127 -189q-87 -90 -174 -175t-174 -171q-87 -90 -195 -138q-108 -49 -233 -49q-122 0 -230 47q-108 46 -188 127q-81 80 -127 187q-47 107 -47 229v793l365 366h188l61 62
q30 28 68 28q29 0 53 -16q24 -17 35 -43q23 23 44 41t56 18q41 0 69 -28zM1153 1325h-428v-766q0 -25 -10 -47q-10 -23 -27 -40q-17 -18 -40 -28t-48 -10q-26 0 -48 10q-23 10 -40 28q-17 17 -27 40q-10 22 -10 47v766h-444v-772q0 -116 44 -218t121 -177q76 -76 178 -120
t218 -44q115 0 217 44t179 120q76 76 121 178q44 102 44 217v772zM569 1528q0 28 -19 48q-20 19 -46 19q-28 0 -48 -19q-20 -20 -20 -48q0 -26 20 -46t48 -20q26 0 46 20zM758 1528q0 28 -19 48q-19 19 -47 19t-46 -19q-19 -20 -19 -48q0 -26 19 -46q18 -20 46 -20t47 20z
" />
    <glyph glyph-name="Yacute" unicode="&#xdd;" horiz-adv-x="1815" 
d="M1137 1788q0 -17 -6 -30q-7 -13 -19 -25l-117 -117l49 -82l181 178h590l-474 -809v-541l-364 -362h-512v547l-465 796l369 369h485l94 94q23 23 50 42q27 18 61 18q32 0 55 -22zM1405 1325h-522l-158 -268l-158 268h-522l449 -770v-526h462v526zM930 1612q0 20 -14 34
q-15 13 -35 13q-15 0 -29 -7q-15 -7 -28 -17q-14 -10 -26 -22l-216 -216h53l219 135q10 6 23 14t25 18t20 22z" />
    <glyph glyph-name="Thorn" unicode="&#xde;" horiz-adv-x="1534" 
d="M1149 676q0 76 -29 144q-30 67 -80 118q-51 50 -118 80q-68 29 -144 29h-276v278h-473v-1296h473v276h276q76 0 144 30q67 29 118 80q50 50 80 118zM1534 1022q0 -82 -33 -152q-34 -71 -90 -127l-328 -327q-60 -60 -127 -97q-67 -38 -155 -43l-279 -276h-522v1346
l365 366h522v-278h268q85 0 155 -34t120 -91q49 -57 77 -131zM719 674q0 -31 -18 -50q-19 -20 -50 -20h-149v137h149q31 0 50 -19z" />
    <glyph glyph-name="germandbls" unicode="&#xdf;" horiz-adv-x="2716" 
d="M2445 1188q59 -32 108 -72t84 -90t54 -109q19 -60 19 -129q0 -88 -38 -165q-38 -78 -98 -140q-86 -89 -173 -175l-175 -175q-93 -90 -212 -133t-247 -43q-87 0 -171 18q-85 18 -162 53q-78 35 -145 88q-68 53 -122 122l-106 -105q-93 -90 -212 -133t-247 -43
q-87 0 -172 18t-162 54q-78 36 -146 90q-68 53 -122 123q29 38 60 81q31 42 64 84q33 41 68 80q34 38 72 70q-100 62 -153 152q-54 90 -54 209q0 89 37 167q36 77 99 140q88 89 175 177t177 175q80 78 186 119q105 41 217 41q168 0 323 -56t279 -172l-270 -321l31 -19
q11 16 22 29t25 27q88 89 175 177t177 175q81 78 186 119t218 41q168 0 323 -56t279 -172zM1157 432q0 84 -26 148q-26 63 -68 111q-42 47 -96 81q-55 33 -111 58t-110 44q-55 19 -97 36t-68 35t-26 42q0 18 10 31t25 22q14 8 31 13q17 4 32 4q90 0 175 -34q84 -34 153 -91
l172 217q-55 53 -121 92q-67 38 -139 63q-73 24 -149 36q-77 12 -152 12q-92 0 -182 -30q-91 -31 -163 -87q-72 -57 -116 -137q-45 -80 -45 -180q0 -83 25 -145q24 -62 64 -107t92 -76q51 -32 105 -55q53 -23 105 -40q51 -17 91 -33q40 -17 65 -35q24 -18 24 -44
q0 -18 -9 -30q-9 -13 -22 -20q-14 -8 -30 -11t-31 -3q-99 0 -191 36q-93 36 -165 104l-172 -219q51 -63 116 -110q64 -48 138 -80q73 -32 152 -48t159 -16q64 0 130 13t128 39q61 25 116 63q54 38 94 88q40 49 64 110zM2322 432q0 84 -26 148q-26 63 -68 111q-42 47 -96 81
q-55 33 -111 58t-110 44q-55 19 -97 36t-68 35t-26 42q0 18 10 31t25 22q15 8 32 13q17 4 32 4q89 0 174 -34q84 -34 153 -91l172 217q-55 53 -121 92q-67 38 -139 63q-73 24 -149 36q-77 12 -152 12q-92 0 -182 -30q-91 -31 -163 -87q-72 -57 -116 -137q-45 -80 -45 -180
q0 -83 25 -145q24 -62 65 -107q40 -45 91 -76q51 -32 105 -55t105 -40t92 -33q40 -17 65 -35q24 -18 24 -44q0 -18 -9 -30q-9 -13 -22 -20q-14 -8 -30 -11q-17 -3 -31 -3q-100 0 -192 36q-93 36 -165 104l-172 -219q51 -63 116 -110q64 -48 138 -80q73 -32 152 -48t159 -16
q64 0 130 13t128 39q61 25 116 63q54 38 94 88q40 49 64 110z" />
    <glyph glyph-name="agrave" unicode="&#xe0;" 
d="M1016 1712h442l488 -1347l-369 -365h-539l-49 168h-248l-172 -168h-569l489 1350l158 157q-15 9 -30 20q-16 10 -28 22q-13 12 -21 28q-9 15 -9 35q0 32 23 53l178 178q12 13 26 18t29 5q20 0 38 -7q17 -7 32 -18t29 -24q14 -14 26 -27zM1550 29l-469 1296h-569
l-469 -1296h508l49 170h412l49 -170h489zM938 1397l-197 194q-10 10 -21 22q-12 12 -25 22t-27 17t-29 7q-22 0 -36 -13q-15 -14 -15 -34q0 -14 9 -26q8 -12 20 -22t26 -18q13 -8 23 -14l217 -135h55zM924 508h-234l117 407z" />
    <glyph glyph-name="aacute" unicode="&#xe1;" 
d="M1243 1788q0 -17 -6 -30t-18 -25l-21 -21h260l488 -1347l-369 -365h-539l-49 168h-248l-172 -168h-569l489 1350l363 362h109l94 94q23 23 50 42q26 18 60 18q32 0 55 -22zM1550 29l-469 1296h-569l-469 -1296h508l49 170h412l49 -170h489zM1036 1612q0 20 -14 34
q-15 13 -35 13q-15 0 -29 -7q-15 -7 -28 -17q-14 -10 -25 -22l-22 -22l-195 -194h53l220 135q10 6 23 14t25 18q11 10 19 22zM924 508h-234l117 407z" />
    <glyph glyph-name="acircumflex" unicode="&#xe2;" 
d="M1163 1712h295l488 -1347l-369 -365h-539l-49 168h-248l-172 -168h-569l489 1350l256 338q17 18 30 30t30 29l119 119h123zM1550 29l-469 1296h-569l-469 -1296h508l49 170h412l49 -170h489zM1051 1399l-197 260h-92l-199 -260h53l191 164l190 -164h54zM924 508h-234
l117 407z" />
    <glyph glyph-name="atilde" unicode="&#xe3;" 
d="M1272 1821q-3 -31 -7 -57q-5 -27 -16 -52h209l488 -1347l-369 -365h-539l-49 168h-248l-172 -168h-569l489 1350l66 65h-45q2 25 6 47q3 22 10 42q6 20 18 39q12 18 31 36l179 178q28 29 62 42q33 13 73 13q34 0 59 -8q25 -9 48 -20q22 -11 45 -23q22 -13 51 -20l79 80
h101zM1550 29l-469 1296h-569l-469 -1296h508l49 170h412l49 -170h489zM1018 1614q-6 -32 -26 -58q-21 -26 -56 -26q-27 0 -52 12q-26 12 -52 26q-27 14 -57 26t-66 12q-34 0 -63 -13q-30 -13 -52 -35t-35 -51q-14 -30 -16 -63h43q8 34 34 56q25 22 60 22q26 0 50 -12
t49 -27t53 -27t63 -12t65 14q29 14 51 38t35 55q13 30 15 63h-43zM924 508h-234l117 407z" />
    <glyph glyph-name="adieresis" unicode="&#xe4;" 
d="M1946 365l-369 -365h-539l-49 168h-248l-172 -168h-569l489 1350l136 135q-5 9 -7 20q-2 10 -2 23q0 20 8 38q7 17 21 29l178 179q30 28 68 28q29 0 53 -16q24 -17 35 -43q23 23 44 41t56 18q19 0 36 -7t30 -19q13 -13 21 -29q8 -17 10 -35h282zM1550 29l-469 1296h-569
l-469 -1296h508l49 170h412l49 -170h489zM778 1528q0 28 -19 48q-20 19 -46 19q-28 0 -48 -19q-20 -20 -20 -48q0 -26 20 -46t48 -20q26 0 46 20zM967 1528q0 28 -19 48q-19 19 -47 19t-46 -19q-19 -20 -19 -48q0 -26 19 -46q18 -20 46 -20t47 20zM924 508h-234l117 407z
" />
    <glyph glyph-name="aring" unicode="&#xe5;" 
d="M1204 1712h254l488 -1347l-369 -365h-539l-49 168h-248l-172 -168h-569l489 1350l117 116q-12 34 -12 74q0 47 20 88q20 40 52 72l178 178q29 29 64 42t77 13h2q46 -1 86 -17q39 -17 68 -46t46 -68q16 -39 17 -84v-6zM1550 29l-469 1296h-569l-469 -1296h508l49 170h412
l49 -170h489zM809 1726q-38 0 -72 -14q-34 -15 -59 -40q-26 -26 -40 -60q-15 -34 -15 -72q0 -39 15 -73q14 -34 40 -59q25 -25 59 -39q34 -15 72 -15q39 0 73 15q34 14 59 39t40 59q14 34 14 73q0 38 -14 72q-15 34 -40 60q-25 25 -59 40zM924 508h-234l117 407zM809 1642
q21 0 40 -8t34 -22q14 -14 22 -32q8 -19 8 -40t-8 -40t-22 -33q-15 -15 -34 -23t-40 -8t-39 8q-19 8 -33 23q-14 14 -22 33t-8 40t8 40q8 18 22 32t33 22z" />
    <glyph glyph-name="ae" unicode="&#xe6;" horiz-adv-x="2234" 
d="M2234 362l-364 -362h-963v203h-180l-205 -203h-522l520 897q38 66 68 121q29 55 58 108q29 52 61 106q31 53 73 116q3 4 29 31l64 64q37 37 81 80l82 82l107 107h1091v-457l-233 -233q-2 -35 -11 -62q-9 -28 -25 -51t-36 -44q-21 -22 -45 -46h350v-457zM1847 29v403h-493
v41h59q42 0 79 16q36 16 64 44t44 65q16 36 16 78q0 41 -16 78t-44 65q-28 27 -64 44q-37 16 -79 16h-59v41h493v405h-1046l-750 -1296h455l119 202h313v-202h909zM938 401h-215l215 371v-371z" />
    <glyph glyph-name="ccedilla" unicode="&#xe7;" horiz-adv-x="1697" 
d="M1100 -12q0 -34 -14 -59t-37 -48l-162 -162q-19 -18 -43 -32q-25 -13 -51 -22q-27 -9 -55 -13t-54 -4q-43 0 -81 10t-77 29l43 96l52 51l-25 14l51 119q-90 8 -173 38t-155 79q-72 48 -130 112q-59 64 -101 140t-65 163q-23 86 -23 179q0 158 63 289t173 241
q62 62 122 127q59 65 120 125t126 113q64 53 137 93q72 39 154 62t178 23q98 0 188 -25q89 -25 168 -71t145 -112t118 -148q-20 -20 -55 -57q-36 -37 -79 -81q-44 -45 -91 -92q-48 -47 -92 -87q-45 -41 -83 -70q-38 -30 -61 -39l465 -295l-447 -475q-38 -42 -81 -76
q-44 -34 -91 -62q10 -15 17 -32zM891 -190q0 34 -14 54q-14 21 -36 32q-23 12 -50 16q-28 4 -56 4h-26l32 78q84 3 165 26q80 23 152 64q71 41 132 99q61 57 106 128l-434 275q-23 -37 -61 -58q-39 -22 -84 -22q-36 0 -67 14q-32 13 -56 37q-24 23 -37 55q-14 31 -14 66
q0 36 14 68q14 31 38 55t56 38q31 13 66 13q45 0 84 -21q38 -22 61 -59l434 275q-47 73 -110 133q-64 59 -139 100t-159 64q-84 22 -171 22q-94 0 -181 -25q-88 -25 -164 -70q-77 -45 -140 -108t-108 -139q-45 -77 -70 -164q-25 -88 -25 -182q0 -92 24 -177q23 -86 67 -161
q43 -75 104 -137q60 -62 134 -107q73 -45 158 -71q84 -26 176 -29l-59 -137l10 -6q12 2 25 4q12 2 24 2q34 0 59 -14q25 -13 25 -50q0 -19 -9 -33q-9 -13 -23 -22q-14 -8 -31 -12t-33 -4q-25 0 -50 5q-25 6 -46 15l-19 -43q28 -12 59 -18q31 -5 60 -5q30 0 66 6q36 7 68 22
q31 15 52 40z" />
    <glyph glyph-name="egrave" unicode="&#xe8;" horiz-adv-x="1327" 
d="M727 1712h600v-457l-233 -233q-2 -45 -19 -83q-18 -39 -49 -71l-49 -49h350v-450l-364 -369h-963v1348l270 270q0 14 6 25t17 22l178 178q12 13 26 18t29 5q20 0 38 -7q17 -7 33 -18q15 -11 29 -24q13 -14 25 -27zM940 29v403h-494v41h60q41 0 78 16t65 44q27 28 44 65
q16 36 16 78q0 41 -16 78q-17 37 -44 65q-28 27 -65 44q-37 16 -78 16h-60v41h494v405h-911v-1296h911zM649 1397l-196 194l-22 22q-12 12 -25 22t-27 17t-29 7q-21 0 -36 -13q-15 -14 -15 -34q0 -14 9 -26q8 -12 20 -22t26 -18q13 -8 23 -14l217 -135h55z" />
    <glyph glyph-name="eacute" unicode="&#xe9;" horiz-adv-x="1327" 
d="M975 1788q0 -17 -6 -30t-19 -25l-20 -21h397v-457l-233 -233q-2 -45 -19 -83q-18 -39 -49 -71l-49 -49h350v-450l-364 -369h-963v1348l365 364h327l94 94q23 23 50 42q27 18 61 18q32 0 55 -22zM940 29v403h-494v41h60q41 0 78 16t65 44q27 28 44 65q16 36 16 78
q0 41 -16 78q-17 37 -44 65q-28 27 -65 44q-37 16 -78 16h-60v41h494v405h-911v-1296h911zM768 1612q0 20 -14 34q-15 13 -35 13q-15 0 -29 -7q-15 -7 -28 -17q-14 -10 -26 -22l-216 -216h53l219 135q10 6 23 14t25 18t20 22z" />
    <glyph glyph-name="ecircumflex" unicode="&#xea;" horiz-adv-x="1327" 
d="M889 1712h438v-457l-233 -233q-2 -45 -19 -83q-18 -39 -49 -71l-49 -49h350v-450l-364 -369h-963v1348l365 364h129l155 154h123zM940 29v403h-494v41h60q41 0 78 16t65 44q27 28 44 65q16 36 16 78q0 41 -16 78q-17 37 -44 65q-28 27 -65 44q-37 16 -78 16h-60v41h494
v405h-911v-1296h911zM776 1399l-196 260h-93l-198 -260h53l190 164l191 -164h53z" />
    <glyph glyph-name="edieresis" unicode="&#xeb;" horiz-adv-x="1327" 
d="M1327 369l-364 -369h-963v1348l365 364h122l62 62q28 28 67 28q29 0 54 -16q24 -17 35 -43q22 23 44 41q21 18 56 18q19 0 36 -7t30 -19q12 -13 20 -29q8 -17 10 -35h426v-457l-233 -233q-2 -45 -19 -83q-18 -39 -49 -71l-49 -49h350v-450zM940 29v403h-494v41h60
q41 0 78 16t65 44q27 28 44 65q16 36 16 78q0 41 -16 78q-17 37 -44 65q-28 27 -65 44q-37 16 -78 16h-60v41h494v405h-911v-1296h911zM504 1528q0 28 -20 48q-20 19 -46 19q-28 0 -47 -19q-20 -20 -20 -48q0 -26 20 -46q19 -20 47 -20q26 0 46 20zM692 1528q0 28 -18 48
q-19 19 -47 19t-47 -19q-19 -20 -19 -48q0 -26 19 -46t47 -20t47 20z" />
    <glyph glyph-name="igrave" unicode="&#xec;" horiz-adv-x="881" 
d="M483 1712h398v-1350l-365 -362h-516v1348l143 143l-26 16q-15 9 -30 20q-16 10 -29 22q-14 12 -22 28q-9 15 -9 35q0 31 22 53l178 178q13 13 27 18q13 5 29 5q20 0 38 -7q17 -7 32 -18t29 -24q14 -14 26 -27zM494 29v1296h-465v-1296h465zM406 1397l-197 194l-22 22
q-12 12 -25 22t-27 17t-29 7q-21 0 -36 -13q-15 -14 -15 -34q0 -14 9 -26q8 -12 20 -22t26 -18q13 -8 23 -14l217 -135h56z" />
    <glyph glyph-name="iacute" unicode="&#xed;" horiz-adv-x="881" 
d="M705 1788q0 -17 -6 -30q-7 -13 -19 -25l-21 -21h222v-1350l-365 -362h-516v1348l365 364h57l94 94q23 23 50 42q27 18 61 18q32 0 55 -22zM494 29v1296h-465v-1296h465zM498 1612q0 20 -14 34q-15 13 -35 13q-15 0 -29 -7q-15 -7 -28 -17q-14 -10 -26 -22l-216 -216h53
l219 135q10 6 23 14t25 18t20 22z" />
    <glyph glyph-name="icircumflex" unicode="&#xee;" horiz-adv-x="881" 
d="M627 1712h254v-1350l-365 -362h-516v1348l23 22h-56l242 318q8 9 17 18l27 27q18 18 50 49l84 84h123zM494 29v1296h-465v-1296h465zM514 1399l-197 260h-92l-198 -260h53l190 164l191 -164h53z" />
    <glyph glyph-name="idieresis" unicode="&#xef;" horiz-adv-x="881" 
d="M881 362l-365 -362h-516v1348l106 108q-32 27 -32 72q0 20 7 38q7 17 21 29l179 179q28 28 67 28q29 0 53 -16q24 -17 35 -43q23 23 44 41t57 18q19 0 36 -7t30 -19q12 -13 20 -29q8 -17 10 -35h248v-1350zM494 29v1296h-465v-1296h465zM236 1528q0 28 -20 48
q-20 19 -46 19q-28 0 -48 -19q-20 -20 -20 -48q0 -26 20 -46t48 -20q26 0 46 20zM424 1528q0 28 -19 48q-19 19 -47 19q-27 0 -46 -19q-19 -20 -19 -48q0 -26 19 -46t46 -20q28 0 47 20z" />
    <glyph glyph-name="eth" unicode="&#xf0;" horiz-adv-x="1618" 
d="M1233 676q0 89 -23 172q-24 82 -66 155q-43 72 -102 131t-131 102q-73 42 -155 66q-83 23 -172 23h-473v-627h-82v-45h82v-624h473q89 0 171 24q82 23 155 65q72 42 132 102q59 59 102 131q42 72 66 154zM1618 1020q0 -62 -13 -124q-14 -62 -38 -121q-25 -59 -59 -112
q-35 -54 -78 -98q-90 -93 -180 -182t-181 -180q-99 -97 -222 -150t-263 -53h-504v625h-80v96l80 80v545l364 366h496q144 0 268 -55q123 -55 215 -149q91 -94 143 -220zM739 676q0 -32 -12 -61t-33 -50q-21 -22 -49 -34q-29 -13 -61 -13h-41v135h69v45h-69v136h41
q32 0 61 -12q28 -13 49 -34q21 -22 33 -51z" />
    <glyph glyph-name="ntilde" unicode="&#xf1;" horiz-adv-x="1634" 
d="M1143 1821q-2 -25 -5 -47q-4 -23 -10 -43q-7 -21 -18 -39q-11 -19 -29 -37l58 57h495v-1350l-364 -362h-543l-84 145l-147 -145h-496v1346l365 366h215l45 45q28 29 62 42q33 13 73 13q34 0 59 -8q25 -9 48 -20q22 -11 45 -23q22 -13 51 -20l79 80h101zM1249 29v1296
h-444v-489l-275 489h-499v-1296h444v481l268 -481h506zM889 1614q-6 -32 -26 -58q-21 -26 -56 -26q-27 0 -52 12q-26 12 -52 26q-27 14 -57 26t-66 12q-34 0 -63 -13q-30 -13 -52 -35t-35 -51q-14 -30 -16 -63h43q8 34 34 56q25 22 60 22q26 0 50 -12t49 -27t53 -27t63 -12
t65 14q29 14 51 38t35 55q13 30 15 63h-43z" />
    <glyph glyph-name="ograve" unicode="&#xf2;" horiz-adv-x="1791" 
d="M969 1743l52 6q26 2 52 2q100 0 193 -27q92 -27 172 -75q79 -49 144 -116q65 -68 112 -149q46 -82 71 -174q25 -93 25 -192q0 -136 -50 -256q-51 -121 -147 -217l-362 -367q-102 -103 -235 -159t-279 -56q-98 0 -189 25q-92 26 -171 73q-80 47 -146 113q-66 65 -112 144
q-47 79 -73 171q-26 91 -26 189q0 155 60 286q59 130 167 236l351 350q-22 14 -39 34q-17 19 -17 48q0 31 23 54l178 178q12 12 26 17t29 5q20 0 38 -7q17 -7 32 -18t29 -24q14 -14 26 -27zM1403 678q0 94 -24 182q-25 87 -70 164q-45 76 -107 139q-63 63 -139 108
q-77 45 -164 70q-88 25 -182 25t-181 -25q-88 -25 -164 -70q-77 -45 -140 -108t-108 -139q-45 -77 -70 -164q-25 -88 -25 -182t25 -181q25 -88 70 -164t108 -138q63 -63 140 -107q76 -45 164 -69q87 -25 181 -25t182 25q87 24 164 69q76 45 139 108q62 62 107 138t70 163z
M901 1417l-196 195l-22 22q-12 11 -25 21t-27 17t-29 7q-22 0 -36 -13q-15 -14 -15 -34q0 -14 9 -26q8 -12 20 -21q12 -10 26 -18q13 -9 23 -15l217 -135h55zM889 678q0 -35 -13 -66q-14 -32 -37 -55q-24 -24 -55 -37q-32 -14 -67 -14q-36 0 -67 14q-32 13 -56 37
q-24 23 -37 55q-14 31 -14 66q0 36 14 68q14 31 38 55t56 38q31 13 66 13t67 -13q31 -14 55 -38q23 -24 37 -55z" />
    <glyph glyph-name="oacute" unicode="&#xf3;" horiz-adv-x="1791" 
d="M1186 1823q0 -17 -6 -30t-19 -26l-10 -10q-5 -4 -10 -10q138 -13 257 -76q118 -63 206 -161q87 -99 137 -225q49 -127 49 -267q0 -136 -50 -256q-51 -121 -147 -217l-362 -367q-102 -103 -235 -159t-279 -56q-98 0 -189 25q-92 26 -171 73q-80 47 -146 113
q-66 65 -112 144q-47 79 -73 171q-26 91 -26 189q0 155 60 286q59 130 167 236l344 344q65 65 145 111q79 45 167 69l114 117q23 23 50 42q27 18 61 18q32 0 55 -22zM1403 678q0 94 -24 182q-25 87 -70 164q-45 76 -107 139q-63 63 -139 108q-77 45 -164 70q-88 25 -182 25
t-181 -25q-88 -25 -164 -70q-77 -45 -140 -108t-108 -139q-45 -77 -70 -164q-25 -88 -25 -182t25 -181q25 -88 70 -164t108 -138q63 -63 140 -107q76 -45 164 -69q87 -25 181 -25t182 25q87 24 164 69q76 45 139 108q62 62 107 138t70 163zM979 1647q0 20 -14 34
q-15 13 -35 13q-15 0 -29 -7q-15 -7 -28 -17q-14 -10 -26 -22l-216 -216h53l219 135q10 6 23 14t25 18t20 22zM889 678q0 -35 -13 -66q-14 -32 -37 -55q-24 -24 -55 -37q-32 -14 -67 -14q-36 0 -67 14q-32 13 -56 37q-24 23 -37 55q-14 31 -14 66q0 36 14 68q14 31 38 55
t56 38q31 13 66 13t67 -13q31 -14 55 -38q23 -24 37 -55z" />
    <glyph glyph-name="ocircumflex" unicode="&#xf4;" horiz-adv-x="1791" 
d="M1059 1751h14q100 0 193 -27q92 -27 172 -75q79 -49 144 -116q65 -68 112 -149q46 -82 71 -174q25 -93 25 -192q0 -136 -50 -256q-51 -121 -147 -217l-362 -367q-102 -103 -235 -159t-279 -56q-98 0 -189 25q-92 26 -171 73q-80 47 -146 113q-66 65 -112 144
q-47 79 -73 171q-26 91 -26 189q0 155 60 286q59 130 167 236l172 172l256 336q9 9 18 19l27 27q18 17 50 48l84 84h122zM1403 678q0 94 -24 182q-25 87 -70 164q-45 76 -107 139q-63 63 -139 108q-77 45 -164 70q-88 25 -182 25t-181 -25q-88 -25 -164 -70
q-77 -45 -140 -108t-108 -139q-45 -77 -70 -164q-25 -88 -25 -182t25 -181q25 -88 70 -164t108 -138q63 -63 140 -107q76 -45 164 -69q87 -25 181 -25t182 25q87 24 164 69q76 45 139 108q62 62 107 138t70 163zM961 1419l-197 260h-92l-199 -260h53l191 164l190 -164h54z
M889 678q0 -35 -13 -66q-14 -32 -37 -55q-24 -24 -55 -37q-32 -14 -67 -14q-36 0 -67 14q-32 13 -56 37q-24 23 -37 55q-14 31 -14 66q0 36 14 68q14 31 38 55t56 38q31 13 66 13t67 -13q31 -14 55 -38q23 -24 37 -55z" />
    <glyph glyph-name="otilde" unicode="&#xf5;" horiz-adv-x="1791" 
d="M1174 1827q-4 -22 -6 -43q-3 -21 -9 -39q90 -11 172 -43q82 -33 152 -83q70 -51 127 -116q57 -66 97 -143q40 -78 62 -164q21 -87 21 -178q0 -136 -50 -256q-51 -121 -147 -217l-362 -367q-102 -103 -235 -159t-279 -56q-98 0 -189 25q-92 26 -171 73q-80 47 -146 113
q-66 65 -112 144q-47 79 -73 171q-26 91 -26 189q0 155 60 286q59 130 167 236l222 221h-37q2 25 6 47q3 22 10 42q6 20 18 39q12 18 31 36l178 178q28 29 62 43q33 13 74 13q34 0 59 -8q25 -9 48 -20q22 -12 45 -24q22 -13 50 -20l80 80h101zM1403 678q0 94 -24 182
q-25 87 -70 164q-45 76 -107 139q-63 63 -139 108q-77 45 -164 70q-88 25 -182 25t-181 -25q-88 -25 -164 -70q-77 -45 -140 -108t-108 -139q-45 -77 -70 -164q-25 -88 -25 -182t25 -181q25 -88 70 -164t108 -138q63 -63 140 -107q76 -45 164 -69q87 -25 181 -25t182 25
q87 24 164 69q76 45 139 108q62 62 107 138t70 163zM920 1620q-3 -16 -10 -31t-17 -27t-23 -19q-14 -7 -32 -7q-27 0 -52 12q-26 12 -53 26t-57 26t-66 12q-34 0 -63 -13t-51 -35t-35 -51q-14 -30 -17 -63h43q8 34 34 56t61 22q26 0 50 -12t49 -27t53 -27t63 -12t65 14
q29 14 51 38q21 24 34 55q13 30 16 63h-43zM889 678q0 -35 -13 -66q-14 -32 -37 -55q-24 -24 -55 -37q-32 -14 -67 -14q-36 0 -67 14q-32 13 -56 37q-24 23 -37 55q-14 31 -14 66q0 36 14 68q14 31 38 55t56 38q31 13 66 13t67 -13q31 -14 55 -38q23 -24 37 -55z" />
    <glyph glyph-name="odieresis" unicode="&#xf6;" horiz-adv-x="1791" 
d="M1790 1018q0 -136 -50 -256q-51 -121 -147 -217l-362 -367q-102 -103 -235 -159t-279 -56q-98 0 -189 25q-92 26 -171 73q-80 47 -146 113q-66 65 -112 144q-47 79 -73 171q-26 91 -26 189q0 155 60 286q59 130 167 236l303 303q-2 6 -3 13q-1 6 -1 12q0 20 8 38
q7 17 21 29l178 179q30 28 68 28q29 0 53 -16q24 -17 35 -43q23 23 44 41t56 18q28 0 50 -14t34 -37q100 0 193 -27q92 -28 172 -76q79 -49 144 -116q65 -68 112 -149q46 -81 71 -173zM1403 678q0 94 -24 182q-25 87 -70 164q-45 76 -107 139q-63 63 -139 108
q-77 45 -164 70q-88 25 -182 25t-181 -25q-88 -25 -164 -70q-77 -45 -140 -108t-108 -139q-45 -77 -70 -164q-25 -88 -25 -182t25 -181q25 -88 70 -164t108 -138q63 -63 140 -107q76 -45 164 -69q87 -25 181 -25t182 25q87 24 164 69q76 45 139 108q62 62 107 138t70 163z
M688 1528q0 28 -19 48q-20 19 -46 19q-28 0 -48 -19q-20 -20 -20 -48q0 -26 20 -46t48 -20q13 0 25 6q11 5 20 14t15 21zM877 1528q0 28 -19 48q-19 19 -47 19t-47 -19q-19 -20 -19 -48q0 -26 19 -46t47 -20t47 20zM889 678q0 -35 -13 -66q-14 -32 -37 -55q-24 -24 -55 -37
q-32 -14 -67 -14q-36 0 -67 14q-32 13 -56 37q-24 23 -37 55q-14 31 -14 66q0 36 14 68q14 31 38 55t56 38q31 13 66 13t67 -13q31 -14 55 -38q23 -24 37 -55z" />
    <glyph glyph-name="divide" unicode="&#xf7;" horiz-adv-x="1229" 
d="M659 1034q0 44 -21 78q-21 33 -54 56t-73 35q-40 11 -79 11t-79 -11q-41 -12 -74 -35q-34 -23 -55 -56q-21 -34 -21 -78t22 -77q21 -34 55 -56q33 -23 74 -35q40 -12 78 -12q39 0 79 12t73 35t54 57zM844 780h-815v-254h815v254zM659 268q0 44 -21 78q-21 33 -54 56
t-73 35t-79 12t-79 -12q-41 -12 -74 -35q-34 -24 -55 -57q-21 -34 -21 -77q0 -44 22 -77q21 -33 55 -55q33 -23 74 -34q40 -12 78 -12q39 0 79 12t73 35q33 22 54 55zM895 1165h334v-303l-199 -164q8 -17 13 -35q4 -18 4 -38q0 -35 -14 -69q-15 -35 -40 -58l-356 -357
q-40 -40 -94 -61t-111 -21q-45 0 -91 14q-46 13 -83 40q-38 26 -62 65t-24 90q0 38 17 73t44 62l93 93h-326v305l180 180q-3 12 -5 26q-3 13 -3 27q0 38 17 73t44 62l357 357q37 38 92 57q54 19 106 19q45 0 91 -14q46 -15 84 -42q37 -27 61 -66q23 -39 23 -89
q0 -36 -14 -69q-15 -34 -40 -58z" />
    <glyph glyph-name="oslash" unicode="&#xf8;" horiz-adv-x="1788" 
d="M1405 678q0 130 -46 246q-47 116 -132 215l123 123h-97l-75 -74q-97 85 -213 132q-117 46 -248 46q-94 0 -181 -25q-88 -25 -164 -70q-77 -45 -140 -108t-108 -139q-45 -77 -70 -164q-25 -88 -25 -182q0 -130 47 -247q46 -117 133 -214l-125 -123h96l78 74
q97 -84 213 -129t246 -45q94 0 182 25q87 24 164 69q76 44 139 107q63 62 108 138t70 164zM1788 1032q0 -67 -13 -134t-38 -130q-25 -64 -61 -121q-37 -58 -85 -106l-352 -353q-106 -106 -236 -165q-131 -60 -286 -60q-125 0 -243 43q-119 43 -216 121l-65 -64h-181l156 154
q-82 97 -125 216q-43 118 -43 245q0 157 61 287t170 239l175 175q86 87 174 173q48 48 106 85t122 63q63 25 131 38q67 13 134 13q124 0 245 -44q120 -45 216 -124l65 66h183l-158 -156q81 -97 123 -216zM891 678q0 -35 -13 -66q-14 -32 -38 -55q-24 -24 -55 -37
q-32 -14 -68 -14q-25 0 -50 7t-46 19l241 242zM573 582q-30 42 -30 96q0 36 14 68q14 31 38 55t56 38q31 13 66 13q26 0 51 -6q25 -7 47 -23z" />
    <glyph glyph-name="ugrave" unicode="&#xf9;" horiz-adv-x="1540" 
d="M850 1712h10v-10l94 -96l107 106h479v-803q0 -118 -45 -224t-127 -189q-87 -90 -174 -175t-174 -171q-87 -90 -195 -138q-108 -49 -233 -49q-122 0 -230 47q-108 46 -188 127q-81 80 -127 187q-47 107 -47 229v793l365 366h98l131 131q12 13 26 18t29 5q20 0 38 -7
q17 -7 32 -18t29 -24q14 -14 26 -27zM1153 1325h-428v-766q0 -25 -10 -47q-10 -23 -27 -40q-17 -18 -40 -28t-48 -10q-26 0 -48 10q-23 10 -40 28q-17 17 -27 40q-10 22 -10 47v766h-444v-772q0 -116 44 -218t121 -177q76 -76 178 -120t218 -44q115 0 217 44t179 120
q76 76 121 178q44 102 44 217v772zM772 1397l-197 194q-10 10 -21 22q-12 12 -25 22t-27 17t-29 7q-22 0 -36 -13q-15 -14 -15 -34q0 -14 9 -26q8 -12 20 -22t26 -18q13 -8 23 -14l217 -135h55z" />
    <glyph glyph-name="uacute" unicode="&#xfa;" horiz-adv-x="1540" 
d="M1020 1788q0 -17 -6 -30t-19 -25l-135 -136v-86l201 201h479v-803q0 -118 -45 -224t-127 -189q-87 -90 -174 -175t-174 -171q-87 -90 -195 -138q-108 -49 -233 -49q-122 0 -230 47q-108 46 -188 127q-81 80 -127 187q-47 107 -47 229v793l365 366h372l94 94q23 23 50 42
q27 18 61 18q32 0 55 -22zM1153 1325h-428v-766q0 -25 -10 -47q-10 -23 -27 -40q-17 -18 -40 -28t-48 -10q-26 0 -48 10q-23 10 -40 28q-17 17 -27 40q-10 22 -10 47v766h-444v-772q0 -116 44 -218t121 -177q76 -76 178 -120t218 -44q115 0 217 44t179 120q76 76 121 178
q44 102 44 217v772zM813 1612q0 20 -14 34q-15 13 -35 13q-15 0 -29 -7q-15 -7 -28 -17q-14 -10 -26 -22l-216 -216h53l219 135q10 6 23 14t25 18t20 22z" />
    <glyph glyph-name="ucircumflex" unicode="&#xfb;" horiz-adv-x="1540" 
d="M999 1651l62 61h479v-803q0 -118 -45 -224t-127 -189q-87 -90 -174 -175t-174 -171q-87 -90 -195 -138q-108 -49 -233 -49q-122 0 -230 47q-108 46 -188 127q-81 80 -127 187q-47 107 -47 229v793l365 366h194l156 154h123zM1153 1325h-428v-766q0 -25 -10 -47
q-10 -23 -27 -40q-17 -18 -40 -28t-48 -10q-26 0 -48 10q-23 10 -40 28q-17 17 -27 40q-10 22 -10 47v766h-444v-772q0 -116 44 -218t121 -177q76 -76 178 -120t218 -44q115 0 217 44t179 120q76 76 121 178q44 102 44 217v772zM842 1399l-197 260h-92l-199 -260h54l190 164
l190 -164h54z" />
    <glyph glyph-name="udieresis" unicode="&#xfc;" horiz-adv-x="1540" 
d="M967 1706q0 -20 -7 -37q-8 -17 -22 -31l-78 -77v-50l201 201h479v-803q0 -118 -45 -224t-127 -189q-87 -90 -174 -175t-174 -171q-87 -90 -195 -138q-108 -49 -233 -49q-122 0 -230 47q-108 46 -188 127q-81 80 -127 187q-47 107 -47 229v793l365 366h188l61 62
q30 28 68 28q29 0 53 -16q24 -17 35 -43q23 23 44 41t56 18q41 0 69 -28zM1153 1325h-428v-766q0 -25 -10 -47q-10 -23 -27 -40q-17 -18 -40 -28t-48 -10q-26 0 -48 10q-23 10 -40 28q-17 17 -27 40q-10 22 -10 47v766h-444v-772q0 -116 44 -218t121 -177q76 -76 178 -120
t218 -44q115 0 217 44t179 120q76 76 121 178q44 102 44 217v772zM569 1528q0 28 -19 48q-20 19 -46 19q-28 0 -48 -19q-20 -20 -20 -48q0 -26 20 -46t48 -20q26 0 46 20zM758 1528q0 28 -19 48q-19 19 -47 19t-46 -19q-19 -20 -19 -48q0 -26 19 -46q18 -20 46 -20t47 20z
" />
    <glyph glyph-name="yacute" unicode="&#xfd;" horiz-adv-x="1815" 
d="M1137 1788q0 -17 -6 -30q-7 -13 -19 -25l-117 -117l49 -82l181 178h590l-474 -809v-541l-364 -362h-512v547l-465 796l369 369h485l94 94q23 23 50 42q27 18 61 18q32 0 55 -22zM1405 1325h-522l-158 -268l-158 268h-522l449 -770v-526h462v526zM930 1612q0 20 -14 34
q-15 13 -35 13q-15 0 -29 -7q-15 -7 -28 -17q-14 -10 -26 -22l-216 -216h53l219 135q10 6 23 14t25 18t20 22z" />
    <glyph glyph-name="thorn" unicode="&#xfe;" horiz-adv-x="1534" 
d="M1149 676q0 76 -29 144q-30 67 -80 118q-51 50 -118 80q-68 29 -144 29h-276v278h-473v-1296h473v276h276q76 0 144 30q67 29 118 80q50 50 80 118zM1534 1022q0 -82 -33 -152q-34 -71 -90 -127l-328 -327q-60 -60 -127 -97q-67 -38 -155 -43l-279 -276h-522v1346
l365 366h522v-278h268q85 0 155 -34t120 -91q49 -57 77 -131zM719 674q0 -31 -18 -50q-19 -20 -50 -20h-149v137h149q31 0 50 -19z" />
    <glyph glyph-name="ydieresis" unicode="&#xff;" horiz-adv-x="1815" 
d="M1096 1706q0 -20 -7 -37q-8 -17 -22 -31l-53 -53l30 -51l181 178h590l-474 -809v-541l-364 -362h-512v547l-465 796l369 369h313l61 62q30 28 68 28q29 0 53 -16q24 -17 35 -43q23 23 44 41t56 18q41 0 69 -28zM1405 1325h-522l-158 -268l-158 268h-522l449 -770v-526
h462v526zM698 1528q0 28 -19 48q-20 19 -46 19q-28 0 -48 -19q-20 -20 -20 -48q0 -26 20 -46t48 -20q26 0 46 20zM887 1528q0 28 -19 48q-19 19 -47 19t-46 -19q-19 -20 -19 -48q0 -26 19 -46q18 -20 46 -20t47 20z" />
    <glyph glyph-name="dotlessi" unicode="&#x131;" horiz-adv-x="881" 
d="M494 29v1296h-465v-1296h465zM881 362l-365 -362h-516v1348l365 364h516v-1350z" />
    <glyph glyph-name="OE" unicode="&#x152;" horiz-adv-x="1989" 
d="M1604 29v403h-494v41h57q42 0 79 16q36 16 64 44t44 65q16 36 16 78q0 41 -16 78t-44 65q-28 27 -64 44q-37 16 -79 16h-57v41h494v405h-926q-89 0 -171 -23q-83 -24 -155 -66q-73 -43 -132 -102q-59 -60 -101 -132q-43 -73 -66 -155q-24 -83 -24 -171q0 -89 24 -172
q23 -83 66 -154q42 -72 101 -131t132 -101q72 -43 155 -66q82 -23 171 -23h926zM1989 362l-365 -362h-946q-140 0 -263 53q-124 53 -216 145t-145 215q-54 123 -54 263q0 139 53 264q53 124 152 221l364 365q47 46 103 81q55 35 116 58t126 35t130 12h945v-457l-234 -233
q-2 -35 -11 -62q-10 -28 -26 -51q-16 -24 -36 -46q-21 -22 -44 -44h351v-457zM815 676q0 -37 -14 -69q-15 -33 -39 -57q-25 -25 -57 -39q-33 -15 -70 -15t-69 15q-33 14 -57 39q-25 24 -39 57q-15 32 -15 69t15 70q14 33 39 58q24 24 57 38q32 14 69 14t70 -14
q32 -14 57 -38q24 -25 39 -58z" />
    <glyph glyph-name="oe" unicode="&#x153;" horiz-adv-x="1989" 
d="M1604 29v403h-494v41h57q42 0 79 16q36 16 64 44t44 65q16 36 16 78q0 41 -16 78t-44 65q-28 27 -64 44q-37 16 -79 16h-57v41h494v405h-926q-89 0 -171 -23q-83 -24 -155 -66q-73 -43 -132 -102q-59 -60 -101 -132q-43 -73 -66 -155q-24 -83 -24 -171q0 -89 24 -172
q23 -83 66 -154q42 -72 101 -131t132 -101q72 -43 155 -66q82 -23 171 -23h926zM1989 362l-365 -362h-946q-140 0 -263 53q-124 53 -216 145t-145 215q-54 123 -54 263q0 139 53 264q53 124 152 221l364 365q47 46 103 81q55 35 116 58t126 35t130 12h945v-457l-234 -233
q-2 -35 -11 -62q-10 -28 -26 -51q-16 -24 -36 -46q-21 -22 -44 -44h351v-457zM815 676q0 -37 -14 -69q-15 -33 -39 -57q-25 -25 -57 -39q-33 -15 -70 -15t-69 15q-33 14 -57 39q-25 24 -39 57q-15 32 -15 69t15 70q14 33 39 58q24 24 57 38q32 14 69 14t70 -14
q32 -14 57 -38q24 -25 39 -58z" />
    <glyph glyph-name="Scaron" unicode="&#x160;" horiz-adv-x="1550" 
d="M1065 1886l-115 -149q169 -2 323 -57q153 -56 277 -171l-270 -321q59 -32 108 -72t84 -90q34 -50 53 -109q19 -60 19 -129q0 -88 -37 -165q-38 -78 -98 -140q-87 -89 -174 -176l-174 -174q-93 -90 -212 -133t-247 -43q-87 0 -172 18t-162 54q-78 36 -146 90
q-68 53 -122 123q29 38 60 81q31 42 64 84q33 41 68 80q34 38 72 70q-100 62 -153 152q-54 90 -54 209q0 89 37 167q36 77 99 140q65 65 128 130t130 130l-170 223l178 178h125l178 -153l178 153h125zM1157 432q0 84 -26 148q-26 63 -68 111q-42 47 -96 81q-55 33 -111 58
t-110 44q-55 19 -97 36t-68 35t-26 42q0 18 10 31t25 22q14 8 31 13q17 4 32 4q90 0 175 -34q84 -34 153 -91l172 217q-55 53 -121 92q-67 38 -139 63q-73 24 -149 36q-77 12 -152 12q-92 0 -182 -30q-91 -31 -163 -87q-72 -57 -116 -137q-45 -80 -45 -180q0 -83 25 -145
q24 -62 64 -107t92 -76q51 -32 105 -55q53 -23 105 -40q51 -17 91 -33q40 -17 65 -35q24 -18 24 -44q0 -18 -9 -30q-9 -13 -22 -20q-14 -8 -30 -11t-31 -3q-99 0 -191 36q-93 36 -165 104l-172 -219q51 -63 116 -110q64 -48 138 -80q73 -32 152 -48t159 -16q64 0 130 13
t128 39q61 25 116 63q54 38 94 88q40 49 64 110zM827 1679h-53l-190 -163l-191 163h-53l199 -260h92z" />
    <glyph glyph-name="scaron" unicode="&#x161;" horiz-adv-x="1550" 
d="M1065 1886l-115 -149q169 -2 323 -57q153 -56 277 -171l-270 -321q59 -32 108 -72t84 -90q34 -50 53 -109q19 -60 19 -129q0 -88 -37 -165q-38 -78 -98 -140q-87 -89 -174 -176l-174 -174q-93 -90 -212 -133t-247 -43q-87 0 -172 18t-162 54q-78 36 -146 90
q-68 53 -122 123q29 38 60 81q31 42 64 84q33 41 68 80q34 38 72 70q-100 62 -153 152q-54 90 -54 209q0 89 37 167q36 77 99 140q65 65 128 130t130 130l-170 223l178 178h125l178 -153l178 153h125zM1157 432q0 84 -26 148q-26 63 -68 111q-42 47 -96 81q-55 33 -111 58
t-110 44q-55 19 -97 36t-68 35t-26 42q0 18 10 31t25 22q14 8 31 13q17 4 32 4q90 0 175 -34q84 -34 153 -91l172 217q-55 53 -121 92q-67 38 -139 63q-73 24 -149 36q-77 12 -152 12q-92 0 -182 -30q-91 -31 -163 -87q-72 -57 -116 -137q-45 -80 -45 -180q0 -83 25 -145
q24 -62 64 -107t92 -76q51 -32 105 -55q53 -23 105 -40q51 -17 91 -33q40 -17 65 -35q24 -18 24 -44q0 -18 -9 -30q-9 -13 -22 -20q-14 -8 -30 -11t-31 -3q-99 0 -191 36q-93 36 -165 104l-172 -219q51 -63 116 -110q64 -48 138 -80q73 -32 152 -48t159 -16q64 0 130 13
t128 39q61 25 116 63q54 38 94 88q40 49 64 110zM827 1679h-53l-190 -163l-191 163h-53l199 -260h92z" />
    <glyph glyph-name="Ydieresis" unicode="&#x178;" horiz-adv-x="1815" 
d="M1096 1706q0 -20 -7 -37q-8 -17 -22 -31l-53 -53l30 -51l181 178h590l-474 -809v-541l-364 -362h-512v547l-465 796l369 369h313l61 62q30 28 68 28q29 0 53 -16q24 -17 35 -43q23 23 44 41t56 18q41 0 69 -28zM1405 1325h-522l-158 -268l-158 268h-522l449 -770v-526
h462v526zM698 1528q0 28 -19 48q-20 19 -46 19q-28 0 -48 -19q-20 -20 -20 -48q0 -26 20 -46t48 -20q26 0 46 20zM887 1528q0 28 -19 48q-19 19 -47 19t-46 -19q-19 -20 -19 -48q0 -26 19 -46q18 -20 46 -20t47 20z" />
    <glyph glyph-name="Zcaron" unicode="&#x17d;" horiz-adv-x="1473" 
d="M1087 1866l-116 -154h475v-457l-383 -421h410v-472l-365 -362h-1108v465l403 420h-397v461l316 317l-19 25l178 178h125l178 -154l179 154h124zM1085 29v426h-444l420 456v414h-1024v-412h436l-442 -458v-426h1054zM850 1659h-53l-191 -164l-190 164h-54l199 -260h92z
" />
    <glyph glyph-name="zcaron" unicode="&#x17e;" horiz-adv-x="1473" 
d="M1087 1866l-116 -154h475v-457l-383 -421h410v-472l-365 -362h-1108v465l403 420h-397v461l316 317l-19 25l178 178h125l178 -154l179 154h124zM1085 29v426h-444l420 456v414h-1024v-412h436l-442 -458v-426h1054zM850 1659h-53l-191 -164l-190 164h-54l199 -260h92z
" />
    <glyph glyph-name="florin" unicode="&#x192;" horiz-adv-x="1997" 
d="M1745 174q-65 -62 -148 -97q-83 -36 -176 -36q-45 -26 -98 -40q-54 -15 -111 -15h-26q-44 -17 -91 -28q-48 -11 -98 -11q-49 0 -96 11t-90 28h-27q-55 0 -109 15q-55 14 -100 40q-46 0 -91 9t-86 27q-41 17 -77 42q-37 24 -65 55q-45 33 -84 72q-40 39 -70 85
q-30 45 -47 96q-18 51 -18 108q0 80 39 153t96 129q-26 57 -42 117q-17 60 -17 123q0 91 32 175q31 83 89 156q57 72 138 132q80 60 179 103q98 42 211 66q113 23 235 23q123 0 237 -23q114 -24 213 -67t180 -102q81 -60 139 -133q57 -73 89 -156q31 -84 31 -174
q0 -125 -65 -240q60 -56 100 -129q39 -73 39 -153q0 -57 -17 -108q-18 -51 -47 -96q-30 -46 -69 -85zM1505 100q57 11 108 40q50 28 89 70q38 42 60 96t22 116q0 49 -15 96q-15 46 -47 84q0 6 -2 10t-2 9q0 9 9 18q9 8 18 8q2 0 9 -4q7 -5 9 -10q35 -45 54 -99
q18 -55 18 -112q0 -29 -3 -56q-3 -28 -11 -53q40 47 65 102t25 120q0 38 -11 74q-11 35 -29 68q-19 32 -44 62t-53 58q-2 2 -2 6v22q30 54 47 112q16 57 16 120q0 83 -29 161q-30 77 -84 145q-55 67 -131 123q-76 55 -169 95t-200 62q-108 22 -225 22q-115 0 -221 -22
q-107 -22 -200 -62t-169 -95q-76 -56 -130 -123q-55 -68 -85 -145q-30 -78 -30 -161q0 -63 16 -120q15 -58 47 -112q2 -3 2 -6v-4q0 -5 -1 -10q-2 -6 -7 -8q-27 -28 -51 -58t-42 -62q-19 -33 -29 -68q-11 -36 -11 -74q0 -65 25 -120q24 -55 61 -102q-3 25 -6 53q-4 27 -4 56
q0 57 18 112q18 54 53 99q5 5 11 10q6 4 12 4t16 -8q9 -9 9 -18q0 -5 -2 -9q-3 -4 -5 -10q-34 -38 -48 -84q-15 -47 -15 -96q0 -62 23 -116q22 -54 61 -96q38 -42 89 -70q51 -29 108 -40q-54 50 -87 117q-34 67 -34 148q0 125 82 225q8 8 12 10q3 2 8 2q9 0 18 -8t9 -21
q0 -2 -3 -5q-3 -4 -8 -7q-69 -84 -69 -196q0 -66 25 -122q24 -56 66 -98q42 -43 98 -70t118 -34q-63 51 -102 124t-39 161q0 9 8 16q7 6 18 6q10 0 17 -6q6 -7 6 -16q0 -75 31 -136q30 -61 81 -104q51 -44 116 -68t134 -24q70 0 136 24t117 68q51 43 82 104q30 61 30 136
q0 9 7 16q6 6 15 6q11 0 19 -6q8 -7 8 -16q0 -88 -39 -161t-102 -124q61 7 117 34t99 70q43 42 68 98t25 122q0 112 -72 196q-2 3 -2 6v6q0 13 4 21t17 8q5 0 9 -2t9 -10q40 -50 61 -106t21 -119q0 -81 -32 -148zM1139 958v-18q0 -7 -2 -16h37q26 0 54 -5q27 -6 51 -17
q23 -12 39 -31t19 -46q26 11 61 16q34 5 68 5q40 0 77 -9q37 -10 65 -29q28 -20 45 -49q16 -30 16 -71q0 -12 -2 -27q-3 -15 -9 -28t-15 -22t-21 -9q-9 0 -17 8q-8 7 -8 17q0 4 4 11q4 6 9 14q4 8 8 18q4 9 4 18q0 24 -10 44q-11 20 -29 35q-18 14 -42 22t-52 8
q-58 0 -105 -16q-47 -17 -80 -41t-51 -51q-18 -28 -18 -50q0 -13 4 -26q4 -14 15 -24q11 -11 31 -17q20 -7 52 -7q23 0 45 5t39 5q10 0 19 -5q8 -5 8 -19q-5 -36 -25 -70q-20 -35 -52 -62q-33 -28 -77 -44q-44 -17 -98 -17t-107 21t-92 67q-37 -46 -90 -67t-110 -21
q-47 0 -89 15t-75 42q-33 26 -55 61t-29 75q0 14 8 19q7 5 18 5q19 -3 40 -6q21 -4 44 -4q33 0 54 7q21 6 32 17q11 10 15 24q4 13 4 26q0 22 -18 50q-18 27 -52 51t-82 41q-49 16 -110 16q-25 0 -47 -8q-23 -8 -40 -22q-18 -15 -28 -35t-10 -44q0 -8 4 -16q3 -8 7 -15
q4 -8 8 -15q3 -8 3 -15q0 -10 -7 -17q-8 -8 -17 -8q-12 0 -21 9t-15 22t-8 28q-3 15 -3 27q0 41 17 71q16 29 45 49q28 19 65 29q36 9 77 9q32 0 67 -5q34 -5 60 -16q3 27 20 46q16 19 40 31q23 11 51 17q27 5 51 5h39v39q0 29 3 57q2 27 7 49q5 21 13 34q7 13 16 13t16 -9
q6 -9 11 -23q4 -15 7 -34t5 -40l-41 -52h43q0 -17 -1 -34q-1 -18 -3 -35q19 -11 31 -31t12 -43q0 -28 -10 -47q-11 -19 -27 -32t-34 -21q-19 -9 -35 -17q-16 -9 -26 -19q-11 -10 -11 -24q0 -23 17 -38q16 -16 41 -26q24 -10 52 -14t51 -4q25 0 54 4t54 14t42 26q16 15 16 38
q0 15 -11 25q-11 9 -27 18q-16 8 -35 17q-20 8 -36 21t-27 32q-11 18 -11 47q0 23 13 43q12 20 32 31q-2 17 -5 36q-3 18 -3 38q0 30 4 58q4 27 10 48t14 34t17 13t15 -12q5 -12 13 -31l11 -63l-47 -52h49zM1171 573q-18 -14 -40 -23t-45 -15t-46 -8q-24 -3 -43 -3
q-18 0 -40 3q-23 2 -45 8q-23 6 -43 15q-21 9 -35 23q-42 -27 -86 -43q-45 -16 -89 -16q-14 0 -26 3q-12 2 -25 5q12 -27 33 -48q20 -21 46 -35q25 -15 53 -22t57 -7q54 0 103 22q48 21 77 66q6 8 9 11t11 3q17 0 23 -14q12 -23 32 -39q19 -17 43 -27q23 -11 49 -16
q26 -6 52 -6q28 0 58 7t56 22q26 14 46 35t28 48q-9 -3 -21 -5q-12 -3 -26 -3q-43 0 -87 16zM1178 895q-25 0 -48 -7t-41 -18q-18 -12 -29 -26t-11 -29q0 -17 11 -32q10 -15 28 -26t41 -17q23 -7 49 -7q27 0 51 7q24 6 42 17t28 26t10 32q0 15 -10 29q-11 14 -29 26
q-18 11 -41 18zM821 895q-27 0 -51 -6q-24 -7 -42 -18t-28 -25q-10 -15 -10 -31q0 -18 10 -33q10 -16 28 -26q18 -11 42 -17t51 -6q28 0 52 8q23 7 40 19q17 11 26 26q9 14 9 29q0 12 -9 26q-10 14 -27 26q-18 12 -41 20zM811 1262q-64 -14 -118 -35q-55 -22 -95 -54
q-40 -33 -63 -76q-23 -44 -23 -102q0 -18 3 -35t3 -38q0 -13 -8 -20q-9 -7 -18 -7q-10 0 -16 11t-9 27t-3 33q-1 17 -1 29q0 82 32 159q32 76 91 138q-48 26 -82 70q-35 43 -47 102q0 13 8 17t16 4q6 0 13 -3q6 -4 8 -18q10 -39 34 -70t56 -52t70 -32q38 -12 77 -12
q36 0 72 11q36 10 67 30q30 19 53 48q23 28 34 65q3 8 9 10t11 2q9 0 18 -2t11 -10q11 -37 35 -65q23 -29 54 -48q30 -20 66 -30q36 -11 72 -11q37 0 75 12q38 11 70 32t55 52t32 70q3 14 11 18q7 3 13 3q9 0 18 -5q9 -6 9 -26q-13 -49 -44 -88q-31 -40 -71 -68
q57 -61 91 -138t34 -165v-30q-1 -17 -3 -32q-3 -16 -9 -27t-17 -11q-12 0 -20 8q-8 7 -8 21q3 20 6 37q2 17 2 34q0 59 -20 103t-55 76q-35 31 -82 51q-48 19 -103 30q-33 6 -67 16t-65 25q-32 15 -59 37q-28 22 -49 53q-28 -48 -72 -80z" />
    <glyph glyph-name="circumflex" unicode="&#x2c6;" horiz-adv-x="784" 
d="M547 1399l-197 260h-92l-199 -260h54l190 164l191 -164h53zM784 1548l-178 -178h-123l-180 154l-178 -154h-125l162 211q23 31 39 55q16 23 41 52q17 18 30 30l29 29l119 119h123z" />
    <glyph glyph-name="tilde" unicode="&#x2dc;" horiz-adv-x="762" 
d="M508 1614q-6 -32 -26 -58q-21 -26 -56 -26q-27 0 -52 12q-26 12 -52 26q-27 14 -57 26t-66 12q-34 0 -63 -13t-51 -35q-23 -22 -36 -51q-14 -30 -16 -63h43q8 34 34 56q25 22 60 22q26 0 50 -12t49 -27t53 -27t63 -12t65 14q29 14 51 38t35 55q13 30 15 63h-43zM762 1821
q-2 -25 -5 -47q-4 -23 -10 -43q-7 -21 -18 -40q-12 -20 -31 -38l-178 -178q-28 -29 -60 -45q-33 -17 -75 -17q-37 0 -65 12q-29 11 -53 25q-25 14 -47 27q-22 12 -44 14l-78 -76h-98q2 25 6 47q3 22 10 42t19 39q11 18 31 36l178 178q28 29 62 42q33 13 73 13q34 0 59 -8
q25 -9 48 -20q22 -11 45 -23q22 -13 51 -20l80 80h100z" />
    <glyph glyph-name="endash" unicode="&#x2013;" horiz-adv-x="1233" 
d="M848 504v344h-819v-344h819zM1233 840l-365 -365h-868v393l365 365h868v-393z" />
    <glyph glyph-name="emdash" unicode="&#x2014;" horiz-adv-x="1847" 
d="M1462 504v344h-1433v-344h1433zM1847 840l-364 -365h-1483v393l365 365h1482v-393z" />
    <glyph glyph-name="quoteleft" unicode="&#x2018;" horiz-adv-x="872" 
d="M487 1075q0 47 -24 77t-60 48q-37 17 -79 24q-43 7 -80 7v127q-39 -17 -77 -44q-39 -27 -69 -62q-31 -35 -50 -77t-19 -88q0 -45 20 -80q20 -36 53 -61q32 -25 73 -38t83 -13q38 0 79 12q40 12 74 35q33 23 55 57zM872 1432q0 -42 -16 -76q-17 -34 -45 -62l-346 -346
q-42 -40 -96 -61t-111 -21q-48 0 -94 15t-82 44q-37 28 -59 69q-23 41 -23 93q0 62 29 116t71 97l346 347q41 38 86 65q44 27 97 45v-139q41 -2 84 -13t79 -33q35 -22 58 -56z" />
    <glyph glyph-name="quoteright" unicode="&#x2019;" horiz-adv-x="872" 
d="M487 1178q0 46 -20 82q-20 35 -52 60q-33 24 -74 37t-83 13q-38 0 -78 -11q-41 -12 -74 -35q-34 -23 -55 -56q-22 -34 -22 -78q0 -47 24 -77t61 -47q36 -18 79 -25q42 -7 79 -7v-127q40 18 79 45q38 27 69 62q30 34 49 76zM872 1524q0 -27 -8 -54t-21 -52t-30 -48
t-35 -41l-354 -354q-38 -38 -83 -64q-46 -27 -97 -47v140q-42 1 -85 13q-43 11 -78 34q-36 22 -58 57q-23 34 -23 82q0 38 17 74q16 35 42 61l353 352q40 41 94 61q53 19 108 19q52 0 99 -16q46 -16 82 -46q35 -30 56 -73z" />
    <glyph glyph-name="quotesinglbase" unicode="&#x201a;" horiz-adv-x="872" 
d="M487 160q0 46 -20 82t-52 61q-33 24 -74 37q-41 12 -83 12q-38 0 -78 -11q-41 -12 -74 -35q-34 -23 -55 -56q-22 -34 -22 -78q0 -47 24 -77t61 -47q36 -18 79 -25q42 -7 79 -7v-127q40 18 79 45q38 27 69 61q30 35 49 77zM872 506q0 -27 -8 -54t-21 -52t-30 -48t-35 -41
l-354 -354q-38 -38 -83 -65q-46 -26 -97 -46v140q-42 1 -85 12q-43 12 -78 35q-36 22 -58 57q-23 34 -23 82q0 38 17 74q16 35 42 61l353 352q40 41 94 61q53 19 108 19q52 0 99 -16q46 -16 82 -46q35 -30 56 -73z" />
    <glyph glyph-name="quotedblleft" unicode="&#x201c;" horiz-adv-x="1372" 
d="M487 1075q0 47 -24 77t-60 48q-37 17 -79 24q-43 7 -80 7v127q-39 -17 -77 -44q-39 -27 -69 -62q-31 -35 -50 -77t-19 -88q0 -45 20 -80q20 -36 53 -61q32 -25 73 -38t83 -13q38 0 79 12q40 12 74 35q33 23 55 57zM987 1075q0 47 -24 77t-60 48q-37 17 -80 24t-80 7v127
q-39 -17 -77 -44t-68 -62q-31 -35 -49 -77q-19 -42 -19 -88q0 -45 20 -80q20 -36 53 -61q32 -25 73 -38q40 -13 82 -13q38 0 79 12q40 12 74 35q33 23 55 57zM1372 1432q0 -42 -16 -76q-17 -34 -45 -62l-346 -346q-42 -40 -96 -61t-111 -21q-35 0 -71 9t-68 26t-58 43
q-27 26 -43 60q-30 -31 -57 -56q-27 -26 -57 -44t-65 -28t-81 -10q-48 0 -94 15t-82 44q-37 28 -59 69q-23 41 -23 93q0 62 29 116t71 97l346 347q41 38 86 65q44 27 97 45v-139q55 -3 112 -22t95 -62q37 37 69 70q31 33 64 61t71 51q37 23 88 41v-139q42 -2 86 -13
q43 -11 79 -33q35 -22 57 -56z" />
    <glyph glyph-name="quotedblright" unicode="&#x201d;" horiz-adv-x="1368" 
d="M487 1178q0 46 -20 82q-20 35 -52 60q-33 24 -74 37t-83 13q-38 0 -78 -11q-41 -12 -74 -35q-34 -23 -55 -56q-22 -34 -22 -78q0 -47 24 -77t61 -47q36 -18 79 -25q42 -7 79 -7v-127q40 18 79 45q38 27 69 62q30 34 49 76zM983 1178q0 46 -20 82q-20 35 -52 60
q-33 24 -74 37t-83 13q-39 0 -79 -11q-41 -12 -74 -35t-54 -56q-21 -34 -21 -78q0 -47 25 -77q24 -30 61 -47q36 -18 79 -25q42 -7 79 -7v-127q40 18 79 45q38 27 68 62q30 34 48 76zM1368 1524q0 -27 -7 -54q-8 -27 -20 -52q-13 -25 -30 -48t-35 -41l-354 -354
q-41 -38 -86 -64q-46 -27 -97 -47v140q-27 1 -55 7q-28 5 -55 15q-27 9 -51 24q-25 14 -43 35q-40 -40 -71 -72t-62 -58q-32 -26 -69 -48q-37 -23 -89 -43v140q-42 1 -85 13q-43 11 -78 34q-36 22 -58 57q-23 34 -23 82q0 38 17 74q16 35 42 61l353 352q40 41 94 61
q53 19 108 19q36 0 72 -8q36 -9 68 -26q31 -17 57 -43q25 -26 41 -60q31 31 58 56t57 43q29 18 64 28q34 10 79 10q52 0 99 -16t82 -46t56 -73z" />
    <glyph glyph-name="quotedblbase" unicode="&#x201e;" horiz-adv-x="1368" 
d="M487 160q0 46 -20 82t-52 61q-33 24 -74 37q-41 12 -83 12q-38 0 -78 -11q-41 -12 -74 -35q-34 -23 -55 -56q-22 -34 -22 -78q0 -47 24 -77t61 -47q36 -18 79 -25q42 -7 79 -7v-127q40 18 79 45q38 27 69 61q30 35 49 77zM983 160q0 46 -20 82t-52 61q-33 24 -74 37
q-41 12 -83 12q-39 0 -79 -11q-41 -12 -74 -35t-54 -56q-21 -34 -21 -78q0 -47 25 -77q24 -30 61 -47q36 -18 79 -25q42 -7 79 -7v-127q40 18 79 45q38 27 68 61q30 35 48 77zM1368 506q0 -27 -7 -54q-8 -27 -20 -52q-13 -25 -30 -48t-35 -41l-354 -354q-41 -38 -86 -65
q-46 -26 -97 -46v140q-27 1 -55 6q-28 6 -55 16q-27 9 -51 24q-25 15 -43 36q-40 -40 -71 -72t-62 -59q-32 -26 -69 -49q-37 -22 -89 -42v140q-42 1 -85 12q-43 12 -78 35q-36 22 -58 57q-23 34 -23 82q0 38 17 74q16 35 42 61l353 352q40 41 94 61q53 19 108 19q36 0 72 -8
q36 -9 68 -26q31 -17 57 -43q25 -26 41 -60q31 31 58 56t57 43q29 18 64 28q34 10 79 10q52 0 99 -16t82 -46t56 -73z" />
    <glyph glyph-name="dagger" unicode="&#x2020;" horiz-adv-x="1208" 
d="M823 858q0 27 -9 52t-25 44q-16 18 -38 30q-23 11 -51 11q-38 0 -65 -16t-53 -36q-27 -20 -56 -37q-30 -18 -73 -21q1 47 13 78q11 31 27 54q16 22 34 39t34 38q15 20 25 48q10 27 10 70q0 34 -14 63q-15 28 -39 48t-54 32q-31 11 -63 11t-62 -11q-31 -12 -55 -32
t-38 -48q-15 -29 -15 -63q0 -43 10 -70q10 -28 26 -48q15 -21 33 -38q17 -17 33 -39q16 -23 28 -54q11 -31 13 -78q-43 3 -72 21q-30 17 -56 37t-53 36t-64 16q-29 0 -52 -11q-23 -12 -39 -30q-16 -19 -25 -44t-9 -52t9 -51q9 -25 25 -43q16 -19 39 -30t52 -11q37 0 64 16
t53 36t56 38q29 18 72 21v-9q1 -52 -14 -93q-15 -42 -42 -74q-27 -33 -65 -58q-38 -26 -83 -47q102 -121 158 -262t65 -297h16q9 156 65 297q55 141 158 262q-45 21 -83 46t-65 58q-27 32 -42 74q-15 41 -14 94v9q43 -3 73 -21q29 -18 56 -38q26 -20 53 -36t65 -16
q28 0 51 11q22 11 38 30t25 44zM1208 1210q0 -34 -11 -63t-36 -53l-149 -150l51 -24q-116 -129 -175 -272q-60 -144 -69 -316l-364 -369h-64q-5 91 -21 169t-45 150q-30 72 -73 140q-43 67 -100 137l215 217l4 25q-35 -6 -57 -23t-44 -36t-48 -33q-26 -15 -68 -15
q-35 0 -63 13q-29 13 -49 36q-20 22 -31 52t-11 63q0 35 13 69q13 33 38 58l178 178q-2 13 -3 25t-1 24q0 38 17 71q17 32 43 58l352 353q29 29 69 43t80 14q42 0 78 -15q35 -15 61 -41t41 -61q15 -36 15 -78q0 -35 -9 -61q-10 -27 -24 -48q-15 -22 -32 -40q-18 -19 -33 -38
q-16 -20 -28 -42q-12 -23 -15 -53q33 5 54 23q21 17 42 36q21 18 48 33q26 14 71 14q37 0 66 -13q29 -14 48 -37t29 -54z" />
    <glyph glyph-name="daggerdbl" unicode="&#x2021;" horiz-adv-x="1075" 
d="M1075 1305q0 -28 -10 -55q-11 -28 -31 -48l-135 -135l57 -29l-182 -180l-6 -39q29 6 47 20t35 29q17 14 39 25q21 10 59 10q28 0 52 -11q23 -12 40 -31q17 -20 26 -45t9 -52q0 -28 -10 -55q-11 -27 -31 -47l-153 -154q2 -8 2 -16v-17q0 -29 -11 -57t-32 -49l-353 -351
q-26 -24 -58 -40q-33 -15 -71 -15q-32 0 -62 11q-31 12 -54 33q-24 21 -38 50q-14 28 -14 62q0 30 8 51q7 20 19 37q11 16 25 30t27 30q13 15 23 36q9 20 13 49q-29 -5 -46 -19t-33 -28q-17 -15 -38 -26q-22 -11 -59 -11q-29 0 -53 12q-24 11 -41 31q-17 19 -26 44t-9 53
q0 27 10 55q9 27 29 47l137 135l-45 25l168 184q6 18 6 41q-19 -4 -32 -11q-14 -8 -25 -17l-22 -20t-24 -18q-13 -9 -30 -14q-18 -6 -43 -6q-29 0 -53 12q-24 11 -41 30t-26 44t-9 53q0 31 12 59q11 28 31 48l152 151q-2 8 -3 17q-2 9 -2 18q0 32 16 61q15 29 38 52l350 348
q25 25 53 37q27 12 62 12q34 0 66 -10q31 -11 55 -30q24 -20 39 -49q14 -29 14 -65q0 -41 -15 -68q-16 -28 -36 -52t-38 -50q-19 -27 -24 -67q26 5 44 19q17 14 35 29q17 14 39 25t58 11q29 0 53 -11q24 -12 41 -31t26 -44zM688 408q0 21 -6 41q-7 20 -20 36q-13 15 -31 24
t-41 9t-38 -6q-16 -6 -28 -15q-13 -9 -25 -20t-27 -20q-16 -10 -37 -17q-21 -8 -52 -10v6q-2 85 41 145q42 59 115 97q-30 16 -58 43q-29 27 -51 60t-35 70q-13 36 -12 71v6q31 -3 52 -10t37 -17q15 -10 27 -20q12 -11 25 -20q12 -9 28 -15q15 -6 38 -6q22 0 40 9t31 24
t20 35q7 19 7 40q0 45 -26 78t-72 33q-23 0 -39 -6t-28 -15q-13 -10 -25 -21t-27 -20q-16 -10 -37 -17q-21 -8 -53 -9q2 42 12 71q9 28 22 49q13 20 28 36q14 15 27 31q12 16 20 36q8 19 8 47t-12 51t-31 40q-20 16 -45 25q-26 9 -52 9q-25 0 -49 -9q-25 -10 -44 -26
q-20 -17 -32 -40t-12 -50q0 -28 8 -47q8 -20 20 -36t27 -31q14 -16 27 -36q12 -21 22 -49q9 -29 11 -71q-47 2 -72 16t-43 30t-37 29q-20 13 -55 13q-23 0 -41 -9q-19 -9 -32 -24q-13 -16 -20 -36t-7 -42q0 -21 7 -40q7 -20 20 -35t32 -24q18 -9 41 -9q34 0 54 13
q19 12 37 28q18 15 43 29t71 18l2 -8q0 -85 -43 -144q-43 -60 -115 -98q72 -38 115 -97q43 -60 43 -145l-2 -6q-46 3 -71 17t-43 30t-37 29q-20 12 -54 12q-23 0 -41 -9q-19 -9 -32 -24q-13 -16 -20 -36t-7 -41q0 -22 7 -42t20 -35q13 -16 32 -25q18 -9 41 -9q34 0 54 13
q19 12 38 28q18 16 43 30t72 17q-2 -42 -11 -70q-9 -29 -21 -49q-13 -21 -27 -36q-15 -16 -27 -31q-13 -16 -21 -34q-8 -19 -8 -46q0 -28 12 -51q11 -23 31 -39q19 -17 44 -26q24 -9 50 -9t52 9q25 9 45 26q19 16 31 39t12 51q0 27 -8 46q-8 18 -20 34q-13 16 -27 32
q-15 15 -28 36q-13 20 -22 48q-10 28 -12 70q32 -2 54 -9q21 -8 37 -17q15 -10 27 -21t25 -20q12 -9 28 -15q15 -6 38 -6q22 0 40 9t31 25q13 15 20 35z" />
    <glyph glyph-name="bullet" unicode="&#x2022;" horiz-adv-x="1208" 
d="M940 737q0 94 -36 177q-36 82 -98 144t-144 98q-83 36 -177 36q-93 0 -176 -36t-145 -98q-63 -62 -99 -144q-36 -83 -36 -177t36 -176q36 -83 99 -144q62 -62 145 -98t176 -36q94 0 177 36q82 36 144 98q62 61 98 144zM1208 950q0 -38 -9 -80q-10 -42 -26 -82
q-17 -40 -40 -76t-50 -63l-239 -237q-76 -76 -163 -118t-196 -42q-100 0 -188 39q-88 38 -154 104t-104 154q-39 88 -39 188q0 109 42 196t118 163l119 119q58 59 118 118q31 31 70 55t82 40q42 16 87 24q44 8 87 8q108 0 197 -40q89 -41 153 -110q64 -70 100 -162z" />
    <glyph glyph-name="ellipsis" unicode="&#x2026;" horiz-adv-x="2290" 
d="M487 172q0 44 -21 78q-22 33 -55 56q-34 23 -74 35q-41 11 -79 11t-78 -11q-41 -12 -74 -35q-34 -23 -55 -56q-22 -34 -22 -78q0 -43 22 -76q21 -34 55 -56q33 -23 74 -34q40 -12 78 -12t79 12q40 12 74 35q33 22 55 56zM872 528q0 -35 -13 -68q-13 -34 -38 -59
l-356 -354q-42 -42 -96 -63t-111 -21q-45 0 -90 14q-46 14 -83 41q-38 27 -61 66q-24 39 -24 88q0 38 17 73q16 34 42 62l357 357q38 38 92 57q54 18 106 18q45 0 91 -14t83 -41t61 -66zM1196 172q0 44 -21 78q-22 33 -55 56q-34 23 -74 35q-41 11 -79 11q-39 0 -79 -11
q-41 -12 -74 -35q-34 -23 -55 -56q-22 -34 -22 -78q0 -43 22 -76q21 -34 55 -56q33 -23 74 -34q40 -12 79 -12q38 0 79 12q40 12 74 35q33 22 55 56zM1581 528q0 -35 -13 -68q-13 -34 -38 -59l-356 -354q-42 -42 -96 -63t-111 -21q-45 0 -90 14q-46 14 -83 41q-38 27 -61 66
q-24 39 -24 88q0 38 17 73q16 34 42 62l356 357q39 38 93 57q53 18 106 18q45 0 91 -14t83 -41t61 -66zM1905 172q0 44 -21 78q-22 33 -55 56q-34 23 -74 35q-41 11 -80 11q-38 0 -78 -11q-41 -12 -74 -35q-34 -23 -55 -56q-22 -34 -22 -78q0 -43 22 -76q21 -34 55 -56
q33 -23 74 -34q40 -12 78 -12q39 0 80 12q40 12 74 35q33 22 55 56zM2290 528q0 -35 -13 -68q-14 -34 -39 -59l-356 -354q-42 -42 -96 -63t-111 -21q-45 0 -90 14q-46 14 -83 41q-38 27 -61 66q-24 39 -24 88q0 38 17 73q17 34 43 62l356 357q38 38 92 57q54 18 107 18
q45 0 91 -14t83 -41t61 -66z" />
    <glyph glyph-name="perthousand" unicode="&#x2030;" horiz-adv-x="3068" 
d="M805 938q0 80 -30 151q-31 70 -83 123q-53 52 -123 83q-71 30 -151 30t-150 -31q-71 -31 -124 -83q-53 -53 -84 -123q-31 -71 -31 -150q0 -80 31 -150q31 -71 84 -124t124 -84q70 -31 150 -31t151 31q70 31 123 84q52 53 83 124zM1542 1325h-385l-817 -1296h385z
M1853 414q0 81 -30 152q-31 70 -83 123q-53 53 -123 84q-71 30 -151 30t-150 -30q-71 -31 -123 -84q-53 -53 -83 -123q-31 -71 -31 -152q0 -79 31 -149q30 -70 83 -122q52 -53 123 -83q70 -31 150 -31t151 31q70 30 123 83q52 52 83 122zM2683 414q0 81 -30 152
q-31 70 -83 123q-53 53 -123 84q-71 30 -151 30t-150 -30q-71 -31 -124 -84t-84 -123q-31 -71 -31 -152q0 -79 31 -149t84 -122q53 -53 124 -83q70 -31 150 -31t151 31q70 30 123 83q52 52 83 122zM3068 772q0 -37 -7 -76t-21 -76t-34 -71q-21 -34 -47 -60l-356 -356
q-62 -60 -140 -97q-79 -38 -167 -38q-65 0 -125 20q-60 19 -111 54t-90 84q-40 49 -63 108q-49 -49 -96 -97t-98 -85q-52 -38 -112 -61t-135 -23q-72 0 -138 24q-66 23 -120 66t-92 102q-39 58 -55 129l-320 -319h-454q99 149 193 301q94 151 190 303q-54 -40 -119 -62
t-133 -22q-86 0 -162 33t-133 90t-90 133t-33 162q0 93 36 169q36 75 101 140l340 338q60 60 136 93q76 32 161 32q72 0 139 -23q66 -24 120 -66q53 -43 92 -101q38 -59 55 -129l319 319h453l-385 -610q54 42 118 65t134 23q64 0 125 -18q60 -19 111 -53t91 -82
q40 -49 64 -109q52 51 99 99q47 47 98 84q51 36 112 58q60 21 139 21q85 0 160 -34q74 -34 130 -91q55 -57 88 -132zM551 938q0 -28 -11 -52t-29 -42t-42 -28q-24 -11 -51 -11t-51 11q-24 10 -42 28q-19 18 -29 42q-11 24 -11 52q0 26 11 50q10 24 28 42q17 18 41 29
q23 10 49 10q28 0 53 -10t44 -27q18 -17 29 -41zM1599 414q0 -27 -10 -51q-11 -24 -29 -41q-18 -18 -42 -28q-24 -11 -52 -11q-27 0 -51 11q-24 10 -42 28q-18 17 -29 41t-11 51t11 52q11 24 29 42t42 29q24 10 51 10t51 -10q24 -11 43 -29q18 -18 29 -42zM2427 414
q0 -27 -10 -51q-11 -24 -29 -41q-18 -18 -41 -28q-24 -11 -51 -11q-28 0 -52 11q-24 10 -42 28q-18 17 -28 41q-11 24 -11 51t11 52q10 24 28 42t42 29q24 10 52 10q27 0 51 -10q23 -11 41 -29t29 -42z" />
    <glyph glyph-name="guilsinglleft" unicode="&#x2039;" horiz-adv-x="975" 
d="M561 893h-272l-252 -340l237 -324h273l-240 324zM975 1280l-275 -373l252 -338l-370 -368h-322l-260 352l180 242q13 18 23 34q9 15 19 30q9 14 20 28t26 31l363 362h344z" />
    <glyph glyph-name="guilsinglright" unicode="&#x203a;" horiz-adv-x="965" 
d="M571 553l-252 340h-270l252 -340l-238 -324h271zM965 907l-256 -344l-361 -362h-344l260 352l-264 356l371 371h319z" />
    <glyph glyph-name="Euro" unicode="&#x20ac;" horiz-adv-x="1888" 
d="M1524 1030q-10 -10 -38 -27t-60 -35q-32 -19 -62 -37t-45 -30q-10 -8 -31 -29q-21 -22 -44 -46q-24 -25 -45 -48t-32 -35q26 -6 57 -12q30 -6 58 -6q50 0 87 14t68 37q30 23 59 53q28 30 60 62l297 -215q-86 -130 -189 -246t-214 -225q-55 -54 -116 -98q-62 -45 -129 -77
q-68 -32 -141 -50q-73 -17 -151 -17q-124 0 -238 41t-206 115q-93 73 -159 175q-67 101 -95 222h-215q7 15 22 41q14 25 31 52q16 27 33 50t31 33h-64q7 12 18 31q10 19 22 39q11 20 21 38t17 27q9 11 25 27q15 16 33 33q17 17 34 33q16 15 27 26q31 74 77 141
q46 66 103 121l346 344q48 48 106 85q57 37 121 63q64 25 132 38q67 13 135 13q97 0 187 -25q89 -25 168 -71t146 -112q66 -66 117 -148zM1200 496q-23 -36 -54 -65q-31 -30 -68 -50q-37 -21 -78 -32q-42 -11 -85 -11q-53 0 -100 15q-48 14 -88 41t-72 65t-53 86h324l49 86
h-397q0 12 -1 25q-2 12 -2 24q0 11 1 21q0 9 2 20h448l49 84h-475q43 99 125 156t190 57q43 0 85 -11q41 -11 78 -32t68 -50t54 -65l293 187q-47 73 -110 132q-64 59 -139 100t-159 63t-172 22q-124 0 -235 -42q-112 -42 -201 -117q-90 -75 -152 -177q-62 -103 -87 -223h-84
l-50 -84h123q-2 -12 -2 -23v-45q0 -11 2 -22h-127l-49 -86h187q26 -121 88 -222t151 -174t201 -114q111 -41 235 -41q85 0 170 23q84 23 160 65t141 100q64 58 109 129z" />
    <glyph glyph-name="trademark" unicode="&#x2122;" horiz-adv-x="1698" 
d="M545 1290v144h-514v-144h155v-444h203v444h156zM1380 846v588h-247l-121 -250l-117 250h-250v-588h184v313l125 -313h117l125 313v-313h184zM1698 1112l-295 -297h-236v80l-80 -80h-153l-25 62l-59 -62h-236v205l-204 -205h-254v447h-156v192l297 297h565v-49l47 49h291
l66 -137l137 137h295v-639z" />
    </font>
</defs>
</svg>
